Huninn.glyphspackage
{
glyphname = exclam;
kernRight = exclam;
layers = (
{
layerId = "162F4A02-D1DE-460C-9ADC-EEB0D0B313BF";
shapes = (
{
closed = 1;
nodes = (
(156,217,o),
(170,227,o),
(171,246,cs),
(188,568,l),
(188,665,ls),
(188,693,o),
(167,717,o),
(138,717,cs),
(109,717,o),
(86,693,o),
(86,665,cs),
(86,568,l),
(104,246,ls),
(104,227,o),
(119,217,o),
(138,217,cs)
);
},
{
closed = 1;
nodes = (
(170,24,o),
(197,51,o),
(197,84,cs),
(197,115,o),
(170,142,o),
(138,142,cs),
(106,142,o),
(79,115,o),
(79,84,cs),
(79,51,o),
(106,24,o),
(138,24,cs)
);
}
);
userData = {
com.hugojourdan.ColorFlow = {
"0" = 0;
"1" = 0;
"10" = 0;
"11" = 0;
"2" = 0;
"3" = 0;
"4" = 0;
"5" = 0;
"6" = 0;
"7" = 0;
"8" = 0;
"9" = 0;
};
};
width = 274;
}
);
note = exclam;
unicode = 33;
}
{
glyphname = quotedbl;
kernLeft = quotedbl;
kernRight = quotedbl;
layers = (
{
layerId = "162F4A02-D1DE-460C-9ADC-EEB0D0B313BF";
shapes = (
{
closed = 1;
nodes = (
(311,557,o),
(321,569,o),
(324,590,cs),
(345,732,l),
(346,740,l),
(346,775,o),
(327,793,o),
(292,793,cs),
(257,793,o),
(238,776,o),
(238,742,cs),
(239,732,l),
(261,590,ls),
(264,569,o),
(274,557,o),
(292,557,cs)
);
},
{
closed = 1;
nodes = (
(129,557,o),
(140,569,o),
(143,590,cs),
(163,732,l),
(165,742,ls),
(166,753,o),
(161,764,o),
(151,775,cs),
(141,786,o),
(128,793,o),
(111,793,cs),
(76,793,o),
(58,776,o),
(58,741,c),
(59,732,l),
(79,590,ls),
(82,569,o),
(93,557,o),
(111,557,cs)
);
}
);
userData = {
com.hugojourdan.ColorFlow = {
"0" = 0;
"1" = 0;
"10" = 0;
"11" = 0;
"2" = 0;
"3" = 0;
"4" = 0;
"5" = 0;
"6" = 0;
"7" = 0;
"8" = 0;
"9" = 0;
};
};
width = 403;
}
);
note = quotedbl;
unicode = 34;
}
{
glyphname = numbersign;
layers = (
{
layerId = "162F4A02-D1DE-460C-9ADC-EEB0D0B313BF";
shapes = (
{
closed = 1;
nodes = (
(173,23,o),
(188,37,o),
(190,52,cs),
(215,206,l),
(337,206,l),
(319,95,o),
(313,61,o),
(313,58,cs),
(313,38,o),
(330,23,o),
(349,23,cs),
(366,23,o),
(381,37,o),
(384,52,cs),
(408,206,l),
(493,206,ls),
(512,206,o),
(528,222,o),
(528,241,cs),
(528,259,o),
(512,276,o),
(493,276,cs),
(419,276,l),
(442,423,l),
(527,423,ls),
(546,423,o),
(563,439,o),
(563,458,cs),
(563,476,o),
(546,493,o),
(527,493,cs),
(453,493,l),
(470,591,o),
(477,634,o),
(477,639,cs),
(477,659,o),
(463,675,o),
(441,675,cs),
(423,675,o),
(409,663,o),
(406,646,cs),
(382,493,l),
(260,493,l),
(276,591,o),
(283,634,o),
(283,639,cs),
(283,659,o),
(270,675,o),
(248,675,cs),
(229,675,o),
(216,663,o),
(213,646,cs),
(188,493,l),
(104,493,ls),
(85,493,o),
(68,476,o),
(68,458,cs),
(68,439,o),
(85,423,o),
(104,423,cs),
(178,423,l),
(154,276,l),
(69,276,ls),
(51,276,o),
(34,259,o),
(34,241,cs),
(34,222,o),
(51,206,o),
(69,206,cs),
(144,206,l),
(126,95,o),
(120,61,o),
(120,58,cs),
(120,38,o),
(137,23,o),
(155,23,cs)
);
},
{
closed = 1;
nodes = (
(249,423,l),
(371,423,l),
(348,276,l),
(226,276,l)
);
}
);
userData = {
com.hugojourdan.ColorFlow = {
"0" = 0;
"1" = 0;
"10" = 0;
"11" = 0;
"2" = 0;
"3" = 0;
"4" = 0;
"5" = 0;
"6" = 0;
"7" = 0;
"8" = 0;
"9" = 0;
};
};
width = 598;
}
);
note = numbersign;
unicode = 35;
}
{
glyphname = dollar;
kernLeft = S;
kernRight = S;
layers = (
{
layerId = "162F4A02-D1DE-460C-9ADC-EEB0D0B313BF";
shapes = (
{
closed = 1;
nodes = (
(322,-79,o),
(335,-66,o),
(335,-49,cs),
(335,19,l),
(423,24,o),
(495,58,o),
(533,115,cs),
(552,144,o),
(561,175,o),
(561,210,cs),
(561,295,o),
(514,344,o),
(451,371,cs),
(421,383,o),
(382,396,o),
(335,407,c),
(335,637,l),
(386,635,o),
(434,627,o),
(477,611,cs),
(483,608,o),
(488,607,o),
(492,607,cs),
(516,607,o),
(532,629,o),
(532,649,cs),
(532,670,o),
(522,682,o),
(504,689,cs),
(455,708,o),
(398,718,o),
(335,721,c),
(335,788,ls),
(335,804,o),
(320,819,o),
(304,819,cs),
(286,819,o),
(273,804,o),
(273,788,cs),
(273,720,l),
(186,713,o),
(116,675,o),
(81,615,cs),
(63,585,o),
(56,553,o),
(56,520,cs),
(56,451,o),
(93,397,o),
(163,366,cs),
(192,352,o),
(229,340,o),
(273,328,c),
(273,105,l),
(215,108,o),
(159,122,o),
(108,144,c),
(103,147,o),
(97,148,o),
(90,148,cs),
(66,148,o),
(49,130,o),
(49,106,cs),
(49,89,o),
(62,72,o),
(77,65,cs),
(138,40,o),
(202,24,o),
(273,19,c),
(273,-49,ls),
(273,-68,o),
(287,-79,o),
(304,-79,cs)
);
},
{
closed = 1;
nodes = (
(335,313,l),
(425,289,o),
(471,265,o),
(471,216,cs),
(471,149,o),
(427,112,o),
(335,105,c)
);
},
{
closed = 1;
nodes = (
(189,444,o),
(146,470,o),
(146,527,cs),
(146,583,o),
(192,623,o),
(273,634,c),
(273,422,l)
);
}
);
userData = {
com.hugojourdan.ColorFlow = {
"0" = 0;
"1" = 0;
"10" = 0;
"11" = 0;
"2" = 0;
"3" = 0;
"4" = 0;
"5" = 0;
"6" = 0;
"7" = 0;
"8" = 0;
"9" = 0;
};
};
width = 602;
}
);
note = dollar;
unicode = 36;
}
{
glyphname = percent;
layers = (
{
layerId = "162F4A02-D1DE-460C-9ADC-EEB0D0B313BF";
shapes = (
{
closed = 1;
nodes = (
(212,18,o),
(223,25,o),
(229,36,cs),
(624,668,ls),
(629,675,o),
(631,683,o),
(631,690,cs),
(631,709,o),
(617,720,o),
(597,720,cs),
(584,720,o),
(575,715,o),
(568,705,cs),
(171,69,ls),
(168,64,o),
(166,57,o),
(166,51,cs),
(166,33,o),
(183,18,o),
(199,18,cs)
);
},
{
closed = 1;
nodes = (
(300,377,o),
(357,451,o),
(357,552,cs),
(357,654,o),
(300,728,o),
(199,728,cs),
(99,728,o),
(41,654,o),
(41,552,cs),
(41,451,o),
(99,377,o),
(199,377,cs)
);
},
{
closed = 1;
nodes = (
(146,442,o),
(111,485,o),
(111,552,cs),
(111,620,o),
(146,663,o),
(199,663,cs),
(252,663,o),
(287,620,o),
(287,552,cs),
(287,485,o),
(252,442,o),
(199,442,cs)
);
},
{
closed = 1;
nodes = (
(696,10,o),
(754,85,o),
(754,186,cs),
(754,288,o),
(696,362,o),
(596,362,cs),
(495,362,o),
(438,288,o),
(438,186,cs),
(438,85,o),
(495,10,o),
(596,10,cs)
);
},
{
closed = 1;
nodes = (
(543,76,o),
(508,119,o),
(508,186,cs),
(508,254,o),
(543,297,o),
(596,297,cs),
(648,297,o),
(684,254,o),
(684,186,cs),
(684,119,o),
(648,76,o),
(596,76,cs)
);
}
);
userData = {
com.hugojourdan.ColorFlow = {
"0" = 0;
"1" = 0;
"10" = 0;
"11" = 0;
"2" = 0;
"3" = 0;
"4" = 0;
"5" = 0;
"6" = 0;
"7" = 0;
"8" = 0;
"9" = 0;
};
};
width = 795;
}
);
note = percent;
unicode = 37;
}
{
glyphname = ampersand;
kernLeft = ampersand;
kernRight = ampersand;
layers = (
{
layerId = "162F4A02-D1DE-460C-9ADC-EEB0D0B313BF";
shapes = (
{
closed = 1;
nodes = (
(384,18,o),
(453,48,o),
(509,94,c),
(573,32,ls),
(582,24,o),
(592,20,o),
(604,20,cs),
(629,20,o),
(646,39,o),
(646,61,cs),
(646,76,o),
(641,84,o),
(630,93,cs),
(564,155,l),
(583,180,o),
(599,207,o),
(611,235,cs),
(614,242,o),
(616,248,o),
(616,255,cs),
(616,279,o),
(598,296,o),
(574,296,cs),
(557,296,o),
(542,285,o),
(535,270,cs),
(522,245,o),
(513,225,o),
(504,213,c),
(301,404,ls),
(245,456,o),
(225,477,o),
(213,505,cs),
(206,519,o),
(203,536,o),
(203,554,cs),
(203,602,o),
(241,643,o),
(307,643,cs),
(335,643,o),
(365,635,o),
(398,618,cs),
(405,615,o),
(411,613,o),
(416,613,cs),
(437,613,o),
(451,630,o),
(451,648,cs),
(451,660,o),
(442,674,o),
(434,678,c),
(390,707,o),
(347,721,o),
(303,721,cs),
(229,721,o),
(171,688,o),
(142,635,cs),
(127,609,o),
(119,581,o),
(119,550,cs),
(119,494,o),
(140,455,o),
(179,408,c),
(124,373,o),
(68,309,o),
(68,220,cs),
(68,151,o),
(101,86,o),
(173,48,cs),
(209,28,o),
(254,18,o),
(309,18,cs)
);
},
{
closed = 1;
nodes = (
(217,95,o),
(154,148,o),
(154,217,cs),
(154,278,o),
(189,324,o),
(233,352,c),
(449,149,l),
(404,113,o),
(354,95,o),
(301,95,cs)
);
}
);
userData = {
com.hugojourdan.ColorFlow = {
"0" = 0;
"1" = 0;
"10" = 0;
"11" = 0;
"2" = 0;
"3" = 0;
"4" = 0;
"5" = 0;
"6" = 0;
"7" = 0;
"8" = 0;
"9" = 0;
};
};
width = 715;
}
);
note = ampersand;
unicode = 38;
}
{
glyphname = quotesingle;
kernLeft = quotedbl;
kernRight = quotedbl;
layers = (
{
layerId = "162F4A02-D1DE-460C-9ADC-EEB0D0B313BF";
shapes = (
{
closed = 1;
nodes = (
(124,508,o),
(135,519,o),
(138,534,cs),
(148,588,o),
(159,660,o),
(159,710,cs),
(159,738,o),
(136,759,o),
(108,759,cs),
(81,759,o),
(58,738,o),
(58,710,cs),
(58,660,o),
(68,588,o),
(79,534,cs),
(82,519,o),
(93,508,o),
(108,508,cs)
);
}
);
userData = {
com.hugojourdan.ColorFlow = {
"0" = 0;
"1" = 0;
"10" = 0;
"11" = 0;
"2" = 0;
"3" = 0;
"4" = 0;
"5" = 0;
"6" = 0;
"7" = 0;
"8" = 0;
"9" = 0;
};
};
width = 217;
}
);
note = quotesingle;
unicode = 39;
}
{
glyphname = parenleft;
kernRight = parenleft;
layers = (
{
layerId = "162F4A02-D1DE-460C-9ADC-EEB0D0B313BF";
shapes = (
{
closed = 1;
nodes = (
(240,-122,o),
(260,-106,o),
(260,-83,cs),
(260,-75,o),
(257,-68,o),
(254,-61,c),
(183,56,o),
(140,191,o),
(140,329,cs),
(140,467,o),
(183,601,o),
(254,718,c),
(257,725,o),
(260,733,o),
(260,741,cs),
(260,763,o),
(240,780,o),
(220,780,cs),
(204,780,o),
(197,775,o),
(187,762,cs),
(98,656,o),
(49,501,o),
(49,329,cs),
(49,157,o),
(98,2,o),
(187,-105,cs),
(197,-117,o),
(204,-122,o),
(220,-122,cs)
);
}
);
userData = {
com.hugojourdan.ColorFlow = {
"0" = 0;
"1" = 0;
"10" = 0;
"11" = 0;
"2" = 0;
"3" = 0;
"4" = 0;
"5" = 0;
"6" = 0;
"7" = 0;
"8" = 0;
"9" = 0;
};
};
width = 305;
}
);
note = parenleft;
unicode = 40;
}
{
glyphname = parenright;
kernLeft = parenright;
layers = (
{
layerId = "162F4A02-D1DE-460C-9ADC-EEB0D0B313BF";
shapes = (
{
closed = 1;
nodes = (
(102,-122,o),
(108,-117,o),
(119,-105,cs),
(208,2,o),
(257,157,o),
(257,329,cs),
(257,501,o),
(208,656,o),
(119,762,cs),
(108,775,o),
(102,780,o),
(86,780,cs),
(65,780,o),
(46,763,o),
(46,741,cs),
(46,733,o),
(49,725,o),
(52,718,c),
(123,601,o),
(166,467,o),
(166,329,cs),
(166,191,o),
(123,56,o),
(52,-61,c),
(49,-68,o),
(46,-75,o),
(46,-83,cs),
(46,-106,o),
(65,-122,o),
(86,-122,cs)
);
}
);
userData = {
com.hugojourdan.ColorFlow = {
"0" = 0;
"1" = 0;
"10" = 0;
"11" = 0;
"2" = 0;
"3" = 0;
"4" = 0;
"5" = 0;
"6" = 0;
"7" = 0;
"8" = 0;
"9" = 0;
};
};
width = 305;
}
);
note = parenright;
unicode = 41;
}
{
glyphname = asterisk;
kernLeft = asterisk;
kernRight = asterisk;
layers = (
{
layerId = "162F4A02-D1DE-460C-9ADC-EEB0D0B313BF";
shapes = (
{
closed = 1;
nodes = (
(219,403,o),
(233,416,o),
(233,432,cs),
(233,435,o),
(229,468,o),
(218,534,c),
(226,528,o),
(232,522,o),
(238,517,cs),
(286,478,o),
(296,470,o),
(299,469,cs),
(303,467,o),
(308,467,o),
(312,467,cs),
(323,467,o),
(332,472,o),
(339,481,c),
(342,487,o),
(343,492,o),
(343,497,cs),
(343,508,o),
(338,516,o),
(328,522,c),
(233,559,l),
(328,596,l),
(337,602,o),
(343,611,o),
(343,623,cs),
(343,628,o),
(342,633,o),
(339,638,cs),
(332,648,o),
(324,653,o),
(313,653,cs),
(307,653,o),
(302,652,o),
(298,649,cs),
(296,648,o),
(286,640,o),
(238,601,cs),
(232,596,o),
(226,591,o),
(218,585,c),
(229,650,o),
(233,683,o),
(233,686,cs),
(233,703,o),
(219,716,o),
(203,716,cs),
(188,716,o),
(173,703,o),
(173,686,cs),
(173,683,o),
(178,650,o),
(188,585,c),
(181,591,o),
(174,596,o),
(168,601,cs),
(120,640,o),
(110,648,o),
(107,649,c),
(104,651,o),
(100,653,o),
(94,653,cs),
(82,653,o),
(74,648,o),
(67,638,cs),
(64,633,o),
(63,628,o),
(63,622,cs),
(63,611,o),
(68,602,o),
(78,596,c),
(173,559,l),
(78,522,l),
(67,516,o),
(63,508,o),
(63,498,cs),
(63,492,o),
(64,487,o),
(67,481,c),
(74,472,o),
(83,467,o),
(95,467,cs),
(99,467,o),
(104,467,o),
(107,469,c),
(110,470,o),
(120,478,o),
(168,517,cs),
(188,534,l),
(178,468,o),
(173,435,o),
(173,432,cs),
(173,416,o),
(188,403,o),
(203,403,cs)
);
}
);
userData = {
com.hugojourdan.ColorFlow = {
"0" = 0;
"1" = 0;
"10" = 0;
"11" = 0;
"2" = 0;
"3" = 0;
"4" = 0;
"5" = 0;
"6" = 0;
"7" = 0;
"8" = 0;
"9" = 0;
};
};
width = 407;
}
);
note = asterisk;
unicode = 42;
}
{
glyphname = plus;
layers = (
{
layerId = "162F4A02-D1DE-460C-9ADC-EEB0D0B313BF";
shapes = (
{
closed = 1;
nodes = (
(297,130,o),
(313,148,o),
(313,169,cs),
(313,328,l),
(472,328,ls),
(494,328,o),
(511,345,o),
(511,366,cs),
(511,388,o),
(494,405,o),
(472,405,cs),
(313,405,l),
(313,564,ls),
(313,587,o),
(297,603,o),
(274,603,cs),
(254,603,o),
(235,587,o),
(235,564,cs),
(235,405,l),
(76,405,ls),
(56,405,o),
(38,388,o),
(38,366,cs),
(38,345,o),
(56,328,o),
(76,328,cs),
(235,328,l),
(235,169,ls),
(235,148,o),
(254,130,o),
(274,130,cs)
);
}
);
userData = {
com.hugojourdan.ColorFlow = {
"0" = 0;
"1" = 0;
"10" = 0;
"11" = 0;
"2" = 0;
"3" = 0;
"4" = 0;
"5" = 0;
"6" = 0;
"7" = 0;
"8" = 0;
"9" = 0;
};
};
width = 549;
}
);
note = plus;
unicode = 43;
}
{
glyphname = hyphen;
kernLeft = periodcentered;
kernRight = periodcentered;
layers = (
{
layerId = "162F4A02-D1DE-460C-9ADC-EEB0D0B313BF";
shapes = (
{
closed = 1;
nodes = (
(291,262,ls),
(313,262,o),
(332,279,o),
(332,302,cs),
(332,325,o),
(313,343,o),
(291,343,cs),
(106,343,ls),
(83,343,o),
(66,325,o),
(66,302,cs),
(66,280,o),
(84,262,o),
(106,262,cs)
);
}
);
userData = {
com.hugojourdan.ColorFlow = {
"0" = 0;
"1" = 0;
"10" = 0;
"11" = 0;
"2" = 0;
"3" = 0;
"4" = 0;
"5" = 0;
"6" = 0;
"7" = 0;
"8" = 0;
"9" = 0;
};
};
width = 398;
}
);
note = hyphen;
unicode = 45;
}
{
glyphname = period;
kernLeft = period;
kernRight = period;
layers = (
{
layerId = "162F4A02-D1DE-460C-9ADC-EEB0D0B313BF";
shapes = (
{
closed = 1;
nodes = (
(132,25,ls),
(162,25,o),
(188,50,o),
(188,81,cs),
(188,87,ls),
(188,117,o),
(162,142,o),
(132,142,cs),
(122,142,ls),
(92,142,o),
(66,117,o),
(66,87,cs),
(66,81,ls),
(66,50,o),
(92,25,o),
(122,25,cs)
);
}
);
userData = {
com.hugojourdan.ColorFlow = {
"0" = 0;
"1" = 0;
"10" = 0;
"11" = 0;
"2" = 0;
"3" = 0;
"4" = 0;
"5" = 0;
"6" = 0;
"7" = 0;
"8" = 0;
"9" = 0;
};
};
width = 254;
}
);
note = period;
unicode = 46;
}
{
glyphname = slash;
kernLeft = slash;
kernRight = slash;
layers = (
{
layerId = "162F4A02-D1DE-460C-9ADC-EEB0D0B313BF";
shapes = (
{
closed = 1;
nodes = (
(106,-65,o),
(121,-53,o),
(126,-36,cs),
(385,720,ls),
(387,726,o),
(388,731,o),
(388,735,cs),
(388,758,o),
(371,776,o),
(347,776,cs),
(327,776,o),
(313,764,o),
(308,748,cs),
(49,-9,ls),
(47,-15,o),
(46,-20,o),
(46,-24,cs),
(46,-46,o),
(63,-65,o),
(87,-65,cs)
);
}
);
userData = {
com.hugojourdan.ColorFlow = {
"0" = 0;
"1" = 0;
"10" = 0;
"11" = 0;
"2" = 0;
"3" = 0;
"4" = 0;
"5" = 0;
"6" = 0;
"7" = 0;
"8" = 0;
"9" = 0;
};
};
width = 433;
}
);
note = slash;
unicode = 47;
}
{
glyphname = zero;
layers = (
{
layerId = "162F4A02-D1DE-460C-9ADC-EEB0D0B313BF";
shapes = (
{
closed = 1;
nodes = (
(475,18,o),
(572,149,o),
(572,370,cs),
(572,591,o),
(475,721,o),
(307,721,cs),
(134,721,o),
(41,585,o),
(41,370,cs),
(41,155,o),
(134,18,o),
(307,18,cs)
);
},
{
closed = 1;
nodes = (
(196,102,o),
(132,199,o),
(132,370,cs),
(132,540,o),
(196,636,o),
(307,636,cs),
(417,636,o),
(481,540,o),
(481,370,cs),
(481,199,o),
(417,102,o),
(307,102,cs)
);
}
);
userData = {
com.hugojourdan.ColorFlow = {
"0" = 0;
"1" = 0;
"10" = 0;
"11" = 0;
"2" = 0;
"3" = 0;
"4" = 0;
"5" = 0;
"6" = 0;
"7" = 0;
"8" = 0;
"9" = 0;
};
};
width = 613;
}
);
note = zero;
unicode = 48;
}
{
glyphname = one;
layers = (
{
layerId = "162F4A02-D1DE-460C-9ADC-EEB0D0B313BF";
shapes = (
{
closed = 1;
nodes = (
(475,28,ls),
(498,28,o),
(518,46,o),
(518,70,cs),
(518,93,o),
(498,113,o),
(475,113,cs),
(379,113,l),
(379,664,ls),
(379,690,o),
(357,712,o),
(331,712,cs),
(311,712,ls),
(302,712,o),
(291,710,o),
(283,705,cs),
(150,635,ls),
(133,627,o),
(124,613,o),
(124,594,cs),
(124,570,o),
(143,551,o),
(167,551,cs),
(173,551,o),
(181,553,o),
(189,557,cs),
(274,598,ls),
(283,603,o),
(288,599,o),
(288,591,cs),
(288,113,l),
(173,113,ls),
(148,113,o),
(131,93,o),
(131,70,cs),
(131,47,o),
(149,28,o),
(173,28,cs)
);
}
);
userData = {
com.hugojourdan.ColorFlow = {
"0" = 0;
"1" = 0;
"10" = 0;
"11" = 0;
"2" = 0;
"3" = 0;
"4" = 0;
"5" = 0;
"6" = 0;
"7" = 0;
"8" = 0;
"9" = 0;
};
};
width = 613;
}
);
note = one;
unicode = 49;
}
{
glyphname = two;
layers = (
{
layerId = "162F4A02-D1DE-460C-9ADC-EEB0D0B313BF";
shapes = (
{
closed = 1;
nodes = (
(492,28,ls),
(516,28,o),
(535,46,o),
(535,70,cs),
(535,93,o),
(516,113,o),
(492,113,cs),
(154,113,l),
(173,151,o),
(215,181,o),
(305,242,cs),
(405,307,o),
(463,348,o),
(508,415,cs),
(530,447,o),
(541,484,o),
(541,522,cs),
(541,600,o),
(499,664,o),
(430,697,cs),
(396,714,o),
(357,721,o),
(315,721,cs),
(238,721,o),
(165,705,o),
(99,672,cs),
(83,663,o),
(76,651,o),
(76,634,cs),
(76,612,o),
(94,595,o),
(114,595,cs),
(120,595,o),
(126,597,o),
(133,600,cs),
(186,624,o),
(240,635,o),
(300,635,cs),
(401,635,o),
(453,593,o),
(453,515,cs),
(453,473,o),
(425,432,o),
(371,392,cs),
(348,375,o),
(316,353,o),
(276,328,cs),
(184,268,o),
(132,232,o),
(93,175,cs),
(72,145,o),
(63,114,o),
(63,80,cs),
(63,49,o),
(85,28,o),
(115,28,cs)
);
}
);
userData = {
com.hugojourdan.ColorFlow = {
"0" = 0;
"1" = 0;
"10" = 0;
"11" = 0;
"2" = 0;
"3" = 0;
"4" = 0;
"5" = 0;
"6" = 0;
"7" = 0;
"8" = 0;
"9" = 0;
};
};
width = 613;
}
);
note = two;
unicode = 50;
}
{
glyphname = three;
layers = (
{
layerId = "162F4A02-D1DE-460C-9ADC-EEB0D0B313BF";
shapes = (
{
closed = 1;
nodes = (
(436,18,o),
(541,87,o),
(541,208,cs),
(541,313,o),
(474,364,o),
(400,382,c),
(468,407,o),
(517,456,o),
(517,545,cs),
(517,658,o),
(430,721,o),
(280,721,cs),
(213,721,o),
(148,705,o),
(87,672,cs),
(73,664,o),
(66,652,o),
(66,637,cs),
(66,616,o),
(84,600,o),
(104,600,cs),
(110,600,o),
(116,602,o),
(121,604,cs),
(167,626,o),
(217,636,o),
(272,636,cs),
(371,636,o),
(426,599,o),
(426,536,cs),
(426,460,o),
(357,419,o),
(226,419,cs),
(220,419,ls),
(197,419,o),
(178,399,o),
(178,377,cs),
(178,354,o),
(197,335,o),
(220,335,cs),
(235,335,ls),
(379,335,o),
(450,294,o),
(450,213,cs),
(450,135,o),
(372,105,o),
(271,105,cs),
(214,105,o),
(162,115,o),
(115,133,cs),
(110,135,o),
(104,137,o),
(97,137,cs),
(73,137,o),
(57,118,o),
(57,95,cs),
(57,77,o),
(66,64,o),
(83,57,cs),
(146,31,o),
(215,18,o),
(287,18,cs)
);
}
);
userData = {
com.hugojourdan.ColorFlow = {
"0" = 0;
"1" = 0;
"10" = 0;
"11" = 0;
"2" = 0;
"3" = 0;
"4" = 0;
"5" = 0;
"6" = 0;
"7" = 0;
"8" = 0;
"9" = 0;
};
};
width = 613;
}
);
note = three;
unicode = 51;
}
{
glyphname = five;
layers = (
{
layerId = "162F4A02-D1DE-460C-9ADC-EEB0D0B313BF";
shapes = (
{
closed = 1;
nodes = (
(467,18,o),
(559,108,o),
(559,240,cs),
(559,327,o),
(522,395,o),
(454,433,cs),
(419,452,o),
(377,462,o),
(330,462,cs),
(271,462,o),
(217,449,o),
(166,423,c),
(194,609,ls),
(196,622,o),
(204,627,o),
(216,627,cs),
(479,627,ls),
(503,627,o),
(522,644,o),
(522,669,cs),
(522,692,o),
(503,712,o),
(479,712,cs),
(166,712,ls),
(138,712,o),
(117,691,o),
(113,662,cs),
(69,402,ls),
(68,394,o),
(67,386,o),
(67,379,cs),
(67,344,o),
(96,321,o),
(133,321,cs),
(141,321,o),
(149,323,o),
(156,327,cs),
(162,330,o),
(167,332,o),
(168,333,c),
(212,360,o),
(263,375,o),
(317,375,cs),
(411,375,o),
(468,325,o),
(468,245,cs),
(468,145,o),
(402,108,o),
(278,108,cs),
(227,108,o),
(175,122,o),
(122,149,cs),
(115,152,o),
(108,154,o),
(102,154,cs),
(78,154,o),
(62,135,o),
(62,111,cs),
(62,92,o),
(68,84,o),
(81,75,cs),
(142,37,o),
(211,18,o),
(290,18,cs)
);
}
);
userData = {
com.hugojourdan.ColorFlow = {
"0" = 0;
"1" = 0;
"10" = 0;
"11" = 0;
"2" = 0;
"3" = 0;
"4" = 0;
"5" = 0;
"6" = 0;
"7" = 0;
"8" = 0;
"9" = 0;
};
};
width = 613;
}
);
note = five;
unicode = 53;
}
{
glyphname = six;
layers = (
{
layerId = "162F4A02-D1DE-460C-9ADC-EEB0D0B313BF";
shapes = (
{
closed = 1;
nodes = (
(419,18,o),
(497,57,o),
(538,129,cs),
(558,163,o),
(567,201,o),
(567,241,cs),
(567,331,o),
(529,403,o),
(460,443,cs),
(425,463,o),
(386,471,o),
(343,471,cs),
(256,471,o),
(189,443,o),
(144,388,c),
(151,514,o),
(202,633,o),
(348,633,cs),
(394,633,o),
(438,624,o),
(478,605,cs),
(482,603,o),
(488,602,o),
(494,602,cs),
(518,602,o),
(535,623,o),
(535,643,cs),
(535,658,o),
(526,673,o),
(514,679,cs),
(466,704,o),
(414,721,o),
(341,721,cs),
(207,721,o),
(122,641,o),
(85,534,cs),
(66,480,o),
(57,425,o),
(57,369,cs),
(57,135,o),
(146,18,o),
(325,18,cs)
);
},
{
closed = 1;
nodes = (
(226,103,o),
(166,162,o),
(148,282,c),
(187,352,o),
(247,388,o),
(332,388,cs),
(424,388,o),
(477,334,o),
(477,243,cs),
(477,192,o),
(451,148,o),
(406,123,cs),
(383,110,o),
(356,103,o),
(326,103,cs)
);
}
);
userData = {
com.hugojourdan.ColorFlow = {
"0" = 0;
"1" = 0;
"10" = 0;
"11" = 0;
"2" = 0;
"3" = 0;
"4" = 0;
"5" = 0;
"6" = 0;
"7" = 0;
"8" = 0;
"9" = 0;
};
};
width = 613;
}
);
note = six;
unicode = 54;
}
{
glyphname = seven;
layers = (
{
layerId = "162F4A02-D1DE-460C-9ADC-EEB0D0B313BF";
shapes = (
{
closed = 1;
nodes = (
(241,23,o),
(260,33,o),
(268,49,cs),
(545,616,ls),
(551,630,o),
(555,643,o),
(555,659,cs),
(555,690,o),
(530,712,o),
(499,712,cs),
(101,712,ls),
(76,712,o),
(58,691,o),
(58,668,cs),
(58,644,o),
(77,625,o),
(101,625,cs),
(438,625,ls),
(447,625,o),
(450,620,o),
(446,611,cs),
(186,92,ls),
(182,85,o),
(180,77,o),
(180,68,cs),
(180,44,o),
(200,23,o),
(225,23,cs)
);
}
);
userData = {
com.hugojourdan.ColorFlow = {
"0" = 0;
"1" = 0;
"10" = 0;
"11" = 0;
"2" = 0;
"3" = 0;
"4" = 0;
"5" = 0;
"6" = 0;
"7" = 0;
"8" = 0;
"9" = 0;
};
};
width = 613;
}
);
note = seven;
unicode = 55;
}
{
glyphname = eight;
layers = (
{
layerId = "162F4A02-D1DE-460C-9ADC-EEB0D0B313BF";
shapes = (
{
closed = 1;
nodes = (
(429,18,o),
(507,60,o),
(542,118,cs),
(560,146,o),
(568,176,o),
(568,210,cs),
(568,300,o),
(520,362,o),
(425,394,c),
(490,418,o),
(536,468,o),
(536,543,cs),
(536,598,o),
(508,659,o),
(438,695,cs),
(404,713,o),
(360,721,o),
(307,721,cs),
(200,721,o),
(131,681,o),
(101,626,cs),
(85,599,o),
(77,572,o),
(77,543,cs),
(77,468,o),
(123,418,o),
(188,394,c),
(94,362,o),
(45,300,o),
(45,210,cs),
(45,146,o),
(78,85,o),
(157,47,cs),
(195,28,o),
(245,18,o),
(307,18,cs)
);
},
{
closed = 1;
nodes = (
(226,98,o),
(176,129,o),
(153,167,cs),
(142,185,o),
(136,203,o),
(136,219,cs),
(136,301,o),
(210,350,o),
(307,350,cs),
(403,350,o),
(478,301,o),
(478,219,cs),
(478,185,o),
(456,145,o),
(406,119,cs),
(380,105,o),
(347,98,o),
(307,98,cs)
);
},
{
closed = 1;
nodes = (
(210,432,o),
(168,482,o),
(168,537,cs),
(168,601,o),
(221,641,o),
(307,641,cs),
(393,641,o),
(445,601,o),
(445,537,cs),
(445,482,o),
(403,432,o),
(307,432,cs)
);
}
);
userData = {
com.hugojourdan.ColorFlow = {
"0" = 0;
"1" = 0;
"10" = 0;
"11" = 0;
"2" = 0;
"3" = 0;
"4" = 0;
"5" = 0;
"6" = 0;
"7" = 0;
"8" = 0;
"9" = 0;
};
};
width = 613;
}
);
note = eight;
unicode = 56;
}
{
glyphname = colon;
kernLeft = colon;
kernRight = colon;
layers = (
{
layerId = "162F4A02-D1DE-460C-9ADC-EEB0D0B313BF";
shapes = (
{
closed = 1;
nodes = (
(132,414,ls),
(162,414,o),
(188,439,o),
(188,469,cs),
(188,475,ls),
(188,506,o),
(162,531,o),
(132,531,cs),
(122,531,ls),
(92,531,o),
(66,506,o),
(66,475,cs),
(66,469,ls),
(66,439,o),
(92,414,o),
(122,414,cs)
);
},
{
closed = 1;
nodes = (
(132,25,ls),
(162,25,o),
(188,50,o),
(188,81,cs),
(188,87,ls),
(188,117,o),
(162,142,o),
(132,142,cs),
(122,142,ls),
(92,142,o),
(66,117,o),
(66,87,cs),
(66,81,ls),
(66,50,o),
(92,25,o),
(122,25,cs)
);
}
);
userData = {
com.hugojourdan.ColorFlow = {
"0" = 0;
"1" = 0;
"10" = 0;
"11" = 0;
"2" = 0;
"3" = 0;
"4" = 0;
"5" = 0;
"6" = 0;
"7" = 0;
"8" = 0;
"9" = 0;
};
};
width = 254;
}
);
note = colon;
unicode = 58;
}
{
glyphname = semicolon;
kernLeft = colon;
kernRight = colon;
layers = (
{
layerId = "162F4A02-D1DE-460C-9ADC-EEB0D0B313BF";
shapes = (
{
closed = 1;
nodes = (
(96,-119,o),
(103,-117,o),
(107,-115,cs),
(161,-82,o),
(178,-33,o),
(188,29,cs),
(190,48,o),
(190,66,o),
(188,87,cs),
(183,117,o),
(162,142,o),
(132,142,cs),
(122,142,ls),
(92,142,o),
(66,117,o),
(66,87,cs),
(66,81,ls),
(66,50,o),
(92,25,o),
(122,25,cs),
(125,25,l),
(125,-24,o),
(107,-44,o),
(75,-64,cs),
(66,-70,o),
(61,-77,o),
(61,-89,cs),
(61,-105,o),
(73,-119,o),
(90,-119,cs)
);
},
{
closed = 1;
nodes = (
(132,414,ls),
(162,414,o),
(188,439,o),
(188,469,cs),
(188,475,ls),
(188,506,o),
(162,531,o),
(132,531,cs),
(122,531,ls),
(92,531,o),
(66,506,o),
(66,475,cs),
(66,469,ls),
(66,439,o),
(92,414,o),
(122,414,cs)
);
}
);
userData = {
com.hugojourdan.ColorFlow = {
"0" = 0;
"1" = 0;
"10" = 0;
"11" = 0;
"2" = 0;
"3" = 0;
"4" = 0;
"5" = 0;
"6" = 0;
"7" = 0;
"8" = 0;
"9" = 0;
};
};
width = 254;
}
);
note = semicolon;
unicode = 59;
}
{
glyphname = less;
layers = (
{
layerId = "162F4A02-D1DE-460C-9ADC-EEB0D0B313BF";
shapes = (
{
closed = 1;
nodes = (
(497,85,o),
(515,102,o),
(515,125,cs),
(515,141,o),
(503,156,o),
(487,163,cs),
(138,318,l),
(487,473,ls),
(503,480,o),
(515,495,o),
(515,511,cs),
(515,534,o),
(497,551,o),
(475,551,cs),
(470,551,o),
(464,550,o),
(459,549,c),
(69,374,ls),
(47,363,o),
(33,345,o),
(33,322,cs),
(33,314,ls),
(33,291,o),
(47,273,o),
(69,262,cs),
(459,88,ls),
(464,86,o),
(470,85,o),
(475,85,cs)
);
}
);
userData = {
com.hugojourdan.ColorFlow = {
"0" = 0;
"1" = 0;
"10" = 0;
"11" = 0;
"2" = 0;
"3" = 0;
"4" = 0;
"5" = 0;
"6" = 0;
"7" = 0;
"8" = 0;
"9" = 0;
};
};
width = 566;
}
);
note = less;
unicode = 60;
}
{
glyphname = equal;
layers = (
{
layerId = "162F4A02-D1DE-460C-9ADC-EEB0D0B313BF";
shapes = (
{
closed = 1;
nodes = (
(586,423,ls),
(608,423,o),
(625,441,o),
(625,462,cs),
(625,484,o),
(608,501,o),
(586,501,cs),
(109,501,ls),
(89,501,o),
(70,484,o),
(70,462,cs),
(70,441,o),
(89,423,o),
(109,423,cs)
);
},
{
closed = 1;
nodes = (
(586,204,ls),
(608,204,o),
(625,222,o),
(625,243,cs),
(625,265,o),
(608,282,o),
(586,282,cs),
(109,282,ls),
(89,282,o),
(70,265,o),
(70,243,cs),
(70,222,o),
(89,204,o),
(109,204,cs)
);
}
);
userData = {
com.hugojourdan.ColorFlow = {
"0" = 0;
"1" = 0;
"10" = 0;
"11" = 0;
"2" = 0;
"3" = 0;
"4" = 0;
"5" = 0;
"6" = 0;
"7" = 0;
"8" = 0;
"9" = 0;
};
};
width = 695;
}
);
note = equal;
unicode = 61;
}
{
glyphname = greater;
layers = (
{
layerId = "162F4A02-D1DE-460C-9ADC-EEB0D0B313BF";
shapes = (
{
closed = 1;
nodes = (
(97,85,o),
(103,86,o),
(107,88,cs),
(497,262,ls),
(520,273,o),
(533,291,o),
(533,314,cs),
(533,322,ls),
(533,345,o),
(520,363,o),
(497,374,cs),
(107,549,l),
(103,550,o),
(97,551,o),
(92,551,cs),
(69,551,o),
(52,534,o),
(52,511,cs),
(52,495,o),
(63,480,o),
(79,473,cs),
(428,318,l),
(79,163,ls),
(63,156,o),
(52,141,o),
(52,125,cs),
(52,102,o),
(69,85,o),
(92,85,cs)
);
}
);
userData = {
com.hugojourdan.ColorFlow = {
"0" = 0;
"1" = 0;
"10" = 0;
"11" = 0;
"2" = 0;
"3" = 0;
"4" = 0;
"5" = 0;
"6" = 0;
"7" = 0;
"8" = 0;
"9" = 0;
};
};
width = 566;
}
);
note = greater;
unicode = 62;
}
{
glyphname = question;
kernLeft = question;
layers = (
{
layerId = "162F4A02-D1DE-460C-9ADC-EEB0D0B313BF";
shapes = (
{
closed = 1;
nodes = (
(239,210,o),
(260,227,o),
(260,249,cs),
(260,300,o),
(288,330,o),
(344,374,cs),
(387,408,o),
(410,429,o),
(429,469,cs),
(438,489,o),
(442,511,o),
(442,536,cs),
(442,649,o),
(355,721,o),
(222,721,cs),
(155,721,o),
(104,709,o),
(49,675,cs),
(33,665,o),
(24,652,o),
(24,636,cs),
(24,616,o),
(44,596,o),
(64,596,cs),
(73,596,o),
(81,599,o),
(90,604,cs),
(123,625,o),
(168,636,o),
(214,636,cs),
(308,636,o),
(353,601,o),
(353,531,cs),
(353,495,o),
(330,471,o),
(280,432,cs),
(233,394,o),
(208,371,o),
(188,326,cs),
(177,303,o),
(172,278,o),
(172,249,cs),
(172,226,o),
(192,210,o),
(216,210,cs)
);
},
{
closed = 1;
nodes = (
(246,24,o),
(273,51,o),
(273,84,cs),
(273,115,o),
(246,142,o),
(214,142,cs),
(183,142,o),
(155,115,o),
(155,84,cs),
(155,51,o),
(183,24,o),
(214,24,cs)
);
}
);
userData = {
com.hugojourdan.ColorFlow = {
"0" = 0;
"1" = 0;
"10" = 0;
"11" = 0;
"2" = 0;
"3" = 0;
"4" = 0;
"5" = 0;
"6" = 0;
"7" = 0;
"8" = 0;
"9" = 0;
};
};
width = 485;
}
);
note = question;
unicode = 63;
}
{
glyphname = at;
kernLeft = at;
kernRight = at;
layers = (
{
layerId = "162F4A02-D1DE-460C-9ADC-EEB0D0B313BF";
shapes = (
{
closed = 1;
nodes = (
(471,-53,o),
(546,-36,o),
(616,-1,cs),
(625,3,o),
(631,13,o),
(631,22,cs),
(631,35,o),
(620,47,o),
(605,47,cs),
(603,47,o),
(599,46,o),
(595,45,c),
(520,14,o),
(470,0,o),
(391,0,cs),
(270,0,o),
(181,60,o),
(135,147,cs),
(111,192,o),
(100,238,o),
(100,285,cs),
(100,414,o),
(172,532,o),
(283,598,cs),
(339,632,o),
(398,648,o),
(462,648,cs),
(568,648,o),
(673,603,o),
(734,517,cs),
(765,474,o),
(780,423,o),
(780,363,cs),
(780,240,o),
(733,169,o),
(655,169,cs),
(626,169,o),
(607,192,o),
(607,231,cs),
(607,250,o),
(609,270,o),
(614,295,cs),
(646,480,l),
(647,491,ls),
(647,511,o),
(632,528,o),
(611,528,cs),
(593,528,o),
(577,514,o),
(574,497,cs),
(571,482,l),
(537,515,o),
(495,531,o),
(447,531,cs),
(368,531,o),
(291,492,o),
(248,421,cs),
(226,383,o),
(215,342,o),
(215,293,cs),
(215,191,o),
(277,120,o),
(382,120,cs),
(444,120,o),
(502,143,o),
(542,192,c),
(551,153,o),
(588,121,o),
(652,121,cs),
(735,121,o),
(791,173,o),
(816,247,cs),
(829,282,o),
(835,321,o),
(835,363,cs),
(835,493,o),
(763,600,o),
(648,659,cs),
(590,688,o),
(527,702,o),
(462,702,cs),
(314,702,o),
(179,620,o),
(104,492,cs),
(65,428,o),
(47,358,o),
(47,285,cs),
(47,167,o),
(105,55,o),
(210,-7,cs),
(263,-37,o),
(324,-53,o),
(391,-53,cs)
);
},
{
closed = 1;
nodes = (
(334,189,o),
(292,231,o),
(292,302,cs),
(292,365,o),
(322,416,o),
(373,441,cs),
(396,454,o),
(422,460,o),
(451,460,cs),
(497,460,o),
(533,444,o),
(561,416,c),
(545,325,ls),
(529,234,o),
(481,189,o),
(403,189,cs)
);
}
);
userData = {
com.hugojourdan.ColorFlow = {
"0" = 0;
"1" = 0;
"10" = 0;
"11" = 0;
"2" = 0;
"3" = 0;
"4" = 0;
"5" = 0;
"6" = 0;
"7" = 0;
"8" = 0;
"9" = 0;
};
};
width = 877;
}
);
note = at;
unicode = 64;
}
{
glyphname = B;
kernLeft = B;
kernRight = B;
layers = (
{
layerId = "162F4A02-D1DE-460C-9ADC-EEB0D0B313BF";
shapes = (
{
closed = 1;
nodes = (
(375,28,ls),
(541,28,o),
(627,94,o),
(627,220,cs),
(627,303,o),
(572,359,o),
(495,383,c),
(550,409,o),
(589,460,o),
(589,534,cs),
(589,645,o),
(506,712,o),
(369,712,cs),
(139,712,ls),
(113,712,o),
(94,690,o),
(94,666,cs),
(94,73,ls),
(94,49,o),
(114,28,o),
(139,28,cs)
);
},
{
closed = 1;
nodes = (
(188,113,o),
(185,117,o),
(185,125,cs),
(185,335,l),
(367,335,ls),
(482,335,o),
(539,298,o),
(539,224,cs),
(539,153,o),
(492,113,o),
(366,113,cs),
(196,113,ls)
);
},
{
closed = 1;
nodes = (
(185,615,ls),
(185,623,o),
(188,627,o),
(196,627,cs),
(362,627,ls),
(449,627,o),
(502,588,o),
(502,527,cs),
(502,457,o),
(462,417,o),
(346,417,cs),
(185,417,l)
);
}
);
userData = {
com.hugojourdan.ColorFlow = {
"0" = 0;
"1" = 0;
"10" = 0;
"11" = 0;
"2" = 0;
"3" = 0;
"4" = 0;
"5" = 0;
"6" = 0;
"7" = 0;
"8" = 0;
"9" = 0;
};
};
width = 677;
}
);
note = B;
unicode = 66;
}
{
glyphname = F;
kernLeft = B;
kernRight = F;
layers = (
{
layerId = "162F4A02-D1DE-460C-9ADC-EEB0D0B313BF";
shapes = (
{
closed = 1;
nodes = (
(163,23,o),
(185,43,o),
(185,68,cs),
(185,328,l),
(484,328,ls),
(508,328,o),
(527,345,o),
(527,370,cs),
(527,393,o),
(508,413,o),
(484,413,cs),
(185,413,l),
(185,615,ls),
(185,623,o),
(188,627,o),
(196,627,cs),
(519,627,ls),
(542,627,o),
(562,644,o),
(562,669,cs),
(562,692,o),
(542,712,o),
(519,712,cs),
(139,712,ls),
(113,712,o),
(94,690,o),
(94,666,cs),
(94,68,ls),
(94,44,o),
(114,23,o),
(139,23,cs)
);
}
);
userData = {
com.hugojourdan.ColorFlow = {
"0" = 0;
"1" = 0;
"10" = 0;
"11" = 0;
"2" = 0;
"3" = 0;
"4" = 0;
"5" = 0;
"6" = 0;
"7" = 0;
"8" = 0;
"9" = 0;
};
};
width = 594;
}
);
note = F;
unicode = 70;
}
{
glyphname = J;
kernLeft = J;
layers = (
{
anchors = (
{
name = top;
pos = (322,717);
}
);
layerId = "162F4A02-D1DE-460C-9ADC-EEB0D0B313BF";
shapes = (
{
closed = 1;
nodes = (
(297,18,o),
(366,99,o),
(366,254,cs),
(366,671,ls),
(366,695,o),
(345,717,o),
(320,717,cs),
(295,717,o),
(275,695,o),
(275,671,cs),
(275,248,ls),
(275,136,o),
(229,104,o),
(158,104,cs),
(128,104,o),
(98,111,o),
(67,126,c),
(63,129,o),
(57,130,o),
(50,130,cs),
(27,130,o),
(12,109,o),
(12,89,cs),
(12,72,o),
(20,60,o),
(33,51,c),
(73,29,o),
(116,18,o),
(164,18,cs)
);
}
);
userData = {
com.hugojourdan.ColorFlow = {
"0" = 0;
"1" = 0;
"10" = 0;
"11" = 0;
"2" = 0;
"3" = 0;
"4" = 0;
"5" = 0;
"6" = 0;
"7" = 0;
"8" = 0;
"9" = 0;
};
};
width = 455;
}
);
note = J;
unicode = 74;
}
{
glyphname = Q;
kernLeft = C;
kernRight = D;
layers = (
{
anchors = (
{
name = odot;
pos = (688,713);
},
{
name = top;
pos = (398,723);
}
);
layerId = "162F4A02-D1DE-460C-9ADC-EEB0D0B313BF";
shapes = (
{
closed = 1;
nodes = (
(616,-120,o),
(637,-101,o),
(636,-77,cs),
(636,-67,o),
(632,-57,o),
(624,-48,cs),
(539,46,l),
(663,97,o),
(737,217,o),
(740,370,c),
(737,506,o),
(679,617,o),
(577,676,cs),
(524,707,o),
(465,721,o),
(396,721,cs),
(260,721,o),
(152,658,o),
(97,551,cs),
(68,499,o),
(54,437,o),
(53,370,cs),
(56,233,o),
(113,123,o),
(216,63,cs),
(269,33,o),
(328,18,o),
(396,18,cs),
(419,18,o),
(438,19,o),
(455,22,c),
(561,-105,ls),
(569,-115,o),
(579,-120,o),
(593,-120,cs)
);
},
{
closed = 1;
nodes = (
(294,103,o),
(215,150,o),
(174,233,cs),
(154,272,o),
(144,318,o),
(144,370,cs),
(144,472,o),
(187,555,o),
(262,601,cs),
(299,625,o),
(344,636,o),
(396,636,cs),
(498,636,o),
(578,589,o),
(619,507,cs),
(639,467,o),
(649,422,o),
(649,370,cs),
(649,266,o),
(606,184,o),
(531,138,cs),
(494,115,o),
(449,103,o),
(396,103,cs)
);
}
);
userData = {
com.hugojourdan.ColorFlow = {
"0" = 0;
"1" = 0;
"10" = 0;
"11" = 0;
"2" = 0;
"3" = 0;
"4" = 0;
"5" = 0;
"6" = 0;
"7" = 0;
"8" = 0;
"9" = 0;
};
};
width = 793;
}
);
note = Q;
unicode = 81;
}
{
glyphname = S;
kernLeft = S;
kernRight = S;
layers = (
{
anchors = (
{
name = top;
pos = (313,719);
}
);
layerId = "162F4A02-D1DE-460C-9ADC-EEB0D0B313BF";
shapes = (
{
closed = 1;
nodes = (
(406,18,o),
(486,51,o),
(529,111,cs),
(550,140,o),
(561,175,o),
(561,210,cs),
(561,299,o),
(509,349,o),
(445,374,cs),
(413,386,o),
(372,398,o),
(320,411,cs),
(241,429,o),
(200,442,o),
(170,471,cs),
(154,485,o),
(146,504,o),
(146,527,cs),
(146,596,o),
(217,637,o),
(319,637,cs),
(373,637,o),
(426,629,o),
(477,611,c),
(483,608,o),
(488,607,o),
(492,607,cs),
(516,607,o),
(532,629,o),
(532,649,cs),
(532,670,o),
(522,682,o),
(504,689,cs),
(446,711,o),
(381,721,o),
(310,721,cs),
(208,721,o),
(126,686,o),
(85,623,cs),
(65,592,o),
(56,557,o),
(56,520,cs),
(56,446,o),
(97,391,o),
(176,361,cs),
(208,348,o),
(251,335,o),
(304,321,cs),
(383,300,o),
(421,290,o),
(449,263,c),
(463,252,o),
(471,236,o),
(471,216,cs),
(471,141,o),
(415,104,o),
(301,104,cs),
(232,104,o),
(168,118,o),
(108,144,c),
(103,147,o),
(97,148,o),
(90,148,cs),
(66,148,o),
(49,130,o),
(49,106,cs),
(49,89,o),
(62,72,o),
(77,65,cs),
(149,34,o),
(228,18,o),
(310,18,cs)
);
}
);
userData = {
com.hugojourdan.ColorFlow = {
"0" = 0;
"1" = 0;
"10" = 0;
"11" = 0;
"2" = 0;
"3" = 0;
"4" = 0;
"5" = 0;
"6" = 0;
"7" = 0;
"8" = 0;
"9" = 0;
};
};
width = 602;
}
);
note = S;
unicode = 83;
}
{
glyphname = V;
kernLeft = V;
kernRight = V;
layers = (
{
layerId = "162F4A02-D1DE-460C-9ADC-EEB0D0B313BF";
shapes = (
{
closed = 1;
nodes = (
(350,23,ls),
(377,23,o),
(397,39,o),
(411,69,c),
(652,654,ls),
(654,659,o),
(655,665,o),
(655,671,cs),
(655,698,o),
(639,717,o),
(610,717,cs),
(591,717,o),
(575,704,o),
(567,685,cs),
(347,134,ls),
(344,126,o),
(335,125,o),
(331,134,cs),
(110,685,ls),
(103,704,o),
(87,717,o),
(67,717,cs),
(39,717,o),
(22,698,o),
(22,671,cs),
(22,665,o),
(23,659,o),
(25,654,cs),
(267,69,ls),
(280,39,o),
(301,23,o),
(328,23,cs)
);
}
);
userData = {
com.hugojourdan.ColorFlow = {
"0" = 0;
"1" = 0;
"10" = 0;
"11" = 0;
"2" = 0;
"3" = 0;
"4" = 0;
"5" = 0;
"6" = 0;
"7" = 0;
"8" = 0;
"9" = 0;
};
};
width = 678;
}
);
note = V;
unicode = 86;
}
{
glyphname = bracketleft;
kernRight = parenleft;
layers = (
{
layerId = "162F4A02-D1DE-460C-9ADC-EEB0D0B313BF";
shapes = (
{
closed = 1;
nodes = (
(252,-101,ls),
(272,-101,o),
(288,-83,o),
(288,-65,cs),
(288,-46,o),
(271,-30,o),
(252,-30,cs),
(175,-30,ls),
(167,-30,o),
(163,-26,o),
(163,-18,cs),
(163,661,ls),
(163,669,o),
(167,673,o),
(175,673,cs),
(252,673,ls),
(271,673,o),
(288,689,o),
(288,709,cs),
(288,728,o),
(271,745,o),
(252,745,cs),
(128,745,ls),
(104,745,o),
(84,724,o),
(84,701,cs),
(84,-57,ls),
(84,-80,o),
(104,-101,o),
(128,-101,cs)
);
}
);
userData = {
com.hugojourdan.ColorFlow = {
"0" = 0;
"1" = 0;
"10" = 0;
"11" = 0;
"2" = 0;
"3" = 0;
"4" = 0;
"5" = 0;
"6" = 0;
"7" = 0;
"8" = 0;
"9" = 0;
};
};
width = 314;
}
);
note = bracketleft;
unicode = 91;
}
{
glyphname = backslash;
kernLeft = backslash;
kernRight = backslash;
layers = (
{
layerId = "162F4A02-D1DE-460C-9ADC-EEB0D0B313BF";
shapes = (
{
closed = 1;
nodes = (
(370,-65,o),
(387,-46,o),
(387,-24,cs),
(387,-20,o),
(386,-15,o),
(384,-9,cs),
(125,748,ls),
(120,764,o),
(105,776,o),
(86,776,cs),
(62,776,o),
(45,758,o),
(45,735,cs),
(45,731,o),
(46,726,o),
(48,720,cs),
(307,-36,ls),
(312,-53,o),
(326,-65,o),
(346,-65,cs)
);
}
);
userData = {
com.hugojourdan.ColorFlow = {
"0" = 0;
"1" = 0;
"10" = 0;
"11" = 0;
"2" = 0;
"3" = 0;
"4" = 0;
"5" = 0;
"6" = 0;
"7" = 0;
"8" = 0;
"9" = 0;
};
};
width = 433;
}
);
note = backslash;
unicode = 92;
}
{
glyphname = bracketright;
kernLeft = parenright;
layers = (
{
layerId = "162F4A02-D1DE-460C-9ADC-EEB0D0B313BF";
shapes = (
{
closed = 1;
nodes = (
(187,-101,ls),
(210,-101,o),
(230,-80,o),
(230,-57,cs),
(230,701,ls),
(230,724,o),
(210,745,o),
(187,745,cs),
(63,745,ls),
(43,745,o),
(26,728,o),
(26,709,cs),
(26,689,o),
(43,673,o),
(63,673,cs),
(140,673,ls),
(147,673,o),
(151,669,o),
(151,661,cs),
(151,-18,ls),
(151,-26,o),
(147,-30,o),
(140,-30,cs),
(63,-30,ls),
(43,-30,o),
(26,-46,o),
(26,-65,cs),
(26,-83,o),
(42,-101,o),
(63,-101,cs)
);
}
);
userData = {
com.hugojourdan.ColorFlow = {
"0" = 0;
"1" = 0;
"10" = 0;
"11" = 0;
"2" = 0;
"3" = 0;
"4" = 0;
"5" = 0;
"6" = 0;
"7" = 0;
"8" = 0;
"9" = 0;
};
};
width = 314;
}
);
note = bracketright;
unicode = 93;
}
{
glyphname = asciicircum;
kernLeft = asterisk;
kernRight = asterisk;
layers = (
{
layerId = "162F4A02-D1DE-460C-9ADC-EEB0D0B313BF";
shapes = (
{
closed = 1;
nodes = (
(125,433,o),
(136,436,o),
(142,444,cs),
(151,456,o),
(176,499,o),
(247,615,cs),
(252,624,o),
(259,623,o),
(264,614,cs),
(286,578,o),
(357,454,o),
(366,446,cs),
(373,439,o),
(381,433,o),
(395,433,cs),
(414,433,o),
(431,450,o),
(431,469,cs),
(431,473,o),
(429,479,o),
(425,487,cs),
(322,681,ls),
(311,703,o),
(297,716,o),
(273,716,cs),
(236,716,ls),
(213,716,o),
(199,703,o),
(188,681,cs),
(85,487,ls),
(81,479,o),
(79,473,o),
(79,469,cs),
(79,450,o),
(96,433,o),
(115,433,cs)
);
}
);
userData = {
com.hugojourdan.ColorFlow = {
"0" = 0;
"1" = 0;
"10" = 0;
"11" = 0;
"2" = 0;
"3" = 0;
"4" = 0;
"5" = 0;
"6" = 0;
"7" = 0;
"8" = 0;
"9" = 0;
};
};
width = 512;
}
);
note = asciicircum;
unicode = 94;
}
{
glyphname = underscore;
kernLeft = period;
kernRight = period;
layers = (
{
layerId = "162F4A02-D1DE-460C-9ADC-EEB0D0B313BF";
shapes = (
{
closed = 1;
nodes = (
(564,-116,ls),
(583,-116,o),
(598,-101,o),
(598,-82,cs),
(598,-66,o),
(583,-49,o),
(564,-49,cs),
(83,-49,ls),
(66,-49,o),
(50,-66,o),
(50,-82,cs),
(50,-101,o),
(66,-116,o),
(83,-116,cs)
);
}
);
userData = {
com.hugojourdan.ColorFlow = {
"0" = 0;
"1" = 0;
"10" = 0;
"11" = 0;
"2" = 0;
"3" = 0;
"4" = 0;
"5" = 0;
"6" = 0;
"7" = 0;
"8" = 0;
"9" = 0;
};
};
width = 647;
}
);
note = underscore;
unicode = 95;
}
{
glyphname = grave;
layers = (
{
layerId = "162F4A02-D1DE-460C-9ADC-EEB0D0B313BF";
shapes = (
{
closed = 1;
nodes = (
(212,582,o),
(223,593,o),
(223,609,cs),
(223,616,o),
(220,622,o),
(216,629,cs),
(166,716,ls),
(159,729,o),
(147,735,o),
(133,735,cs),
(110,735,o),
(96,721,o),
(96,698,cs),
(96,689,o),
(99,679,o),
(105,673,cs),
(173,592,ls),
(179,586,o),
(187,582,o),
(195,582,cs)
);
}
);
userData = {
com.hugojourdan.ColorFlow = {
"0" = 0;
"1" = 0;
"10" = 0;
"11" = 0;
"2" = 0;
"3" = 0;
"4" = 0;
"5" = 0;
"6" = 0;
"7" = 0;
"8" = 0;
"9" = 0;
};
};
width = 319;
}
);
note = grave;
unicode = 96;
}
{
glyphname = a;
kernLeft = a;
kernRight = a;
layers = (
{
anchors = (
{
name = bottom;
pos = (272,29);
},
{
name = odot;
pos = (538,551);
},
{
name = ogonek;
pos = (432,49);
},
{
name = top;
pos = (272,537);
}
);
layerId = "162F4A02-D1DE-460C-9ADC-EEB0D0B313BF";
shapes = (
{
closed = 1;
nodes = (
(277,18,o),
(339,42,o),
(387,92,c),
(387,68,ls),
(387,44,o),
(407,23,o),
(432,23,cs),
(456,23,o),
(478,43,o),
(478,68,cs),
(478,344,ls),
(478,412,o),
(449,474,o),
(388,510,cs),
(355,529,o),
(317,538,o),
(272,538,cs),
(215,538,o),
(158,526,o),
(104,503,cs),
(87,496,o),
(77,483,o),
(77,465,cs),
(77,444,o),
(95,426,o),
(114,426,cs),
(117,426,o),
(122,427,o),
(127,428,c),
(174,444,o),
(207,452,o),
(257,452,cs),
(349,452,o),
(387,415,o),
(387,332,cs),
(387,325,l),
(270,325,ls),
(127,325,o),
(44,267,o),
(44,166,cs),
(44,107,o),
(75,59,o),
(125,36,cs),
(149,24,o),
(177,18,o),
(204,18,cs)
);
},
{
closed = 1;
nodes = (
(163,98,o),
(135,129,o),
(135,175,cs),
(135,226,o),
(183,252,o),
(281,252,cs),
(387,252,l),
(387,171,l),
(351,130,o),
(295,98,o),
(237,98,cs)
);
}
);
userData = {
com.hugojourdan.ColorFlow = {
"0" = 0;
"1" = 0;
"10" = 0;
"11" = 0;
"2" = 0;
"3" = 0;
"4" = 0;
"5" = 0;
"6" = 0;
"7" = 0;
"8" = 0;
"9" = 0;
};
};
width = 549;
}
);
note = a;
unicode = 97;
}
{
glyphname = j;
kernLeft = i;
kernRight = uni01C8;
layers = (
{
anchors = (
{
name = odot;
pos = (255,493);
}
);
layerId = "162F4A02-D1DE-460C-9ADC-EEB0D0B313BF";
shapes = (
{
closed = 1;
nodes = (
(127,-206,o),
(172,-159,o),
(172,-72,cs),
(172,486,ls),
(172,512,o),
(152,532,o),
(126,532,cs),
(101,532,o),
(81,510,o),
(81,486,cs),
(81,-70,ls),
(81,-117,o),
(63,-126,o),
(22,-126,cs),
(19,-126,o),
(14,-126,o),
(8,-125,cs),
(5,-125,ls),
(0,-124,o),
(-4,-123,o),
(-7,-123,cs),
(-28,-123,o),
(-45,-142,o),
(-45,-161,cs),
(-45,-178,o),
(-35,-193,o),
(-19,-198,cs),
(-1,-203,o),
(20,-206,o),
(43,-206,cs)
);
},
{
closed = 1;
nodes = (
(130,628,ls),
(157,628,o),
(181,651,o),
(181,678,cs),
(181,682,ls),
(181,710,o),
(157,733,o),
(130,733,cs),
(124,733,ls),
(97,733,o),
(73,710,o),
(73,682,cs),
(73,678,ls),
(73,651,o),
(97,628,o),
(124,628,cs)
);
}
);
userData = {
com.hugojourdan.ColorFlow = {
"0" = 0;
"1" = 0;
"10" = 0;
"11" = 0;
"2" = 0;
"3" = 0;
"4" = 0;
"5" = 0;
"6" = 0;
"7" = 0;
"8" = 0;
"9" = 0;
};
};
width = 248;
}
);
note = j;
unicode = 106;
}
{
glyphname = l;
kernLeft = b;
kernRight = d;
layers = (
{
layerId = "162F4A02-D1DE-460C-9ADC-EEB0D0B313BF";
shapes = (
{
closed = 1;
nodes = (
(146,23,o),
(167,43,o),
(167,68,cs),
(167,702,ls),
(167,728,o),
(147,748,o),
(121,748,cs),
(96,748,o),
(76,726,o),
(76,702,cs),
(76,68,ls),
(76,44,o),
(97,23,o),
(121,23,cs)
);
}
);
userData = {
com.hugojourdan.ColorFlow = {
"0" = 0;
"1" = 0;
"10" = 0;
"11" = 0;
"2" = 0;
"3" = 0;
"4" = 0;
"5" = 0;
"6" = 0;
"7" = 0;
"8" = 0;
"9" = 0;
};
};
width = 243;
}
);
note = l;
unicode = 108;
}
{
glyphname = q;
kernLeft = c;
kernRight = g;
layers = (
{
layerId = "162F4A02-D1DE-460C-9ADC-EEB0D0B313BF";
shapes = (
{
closed = 1;
nodes = (
(521,-201,o),
(540,-180,o),
(540,-156,cs),
(540,488,ls),
(540,512,o),
(520,533,o),
(495,533,cs),
(471,533,o),
(449,513,o),
(449,488,cs),
(449,465,l),
(402,513,o),
(347,538,o),
(283,538,cs),
(202,538,o),
(125,496,o),
(80,417,cs),
(57,376,o),
(46,330,o),
(46,278,cs),
(46,173,o),
(96,91,o),
(169,50,cs),
(205,29,o),
(243,18,o),
(283,18,cs),
(347,18,o),
(402,43,o),
(449,92,c),
(449,-156,ls),
(449,-182,o),
(471,-201,o),
(495,-201,cs)
);
},
{
closed = 1;
nodes = (
(197,103,o),
(137,169,o),
(137,278,cs),
(137,387,o),
(197,453,o),
(296,453,cs),
(355,453,o),
(409,424,o),
(449,381,c),
(449,175,l),
(409,133,o),
(355,103,o),
(296,103,cs)
);
}
);
userData = {
com.hugojourdan.ColorFlow = {
"0" = 0;
"1" = 0;
"10" = 0;
"11" = 0;
"2" = 0;
"3" = 0;
"4" = 0;
"5" = 0;
"6" = 0;
"7" = 0;
"8" = 0;
"9" = 0;
};
};
width = 616;
}
);
note = q;
unicode = 113;
}
{
glyphname = r;
kernLeft = idotless;
kernRight = r;
layers = (
{
layerId = "162F4A02-D1DE-460C-9ADC-EEB0D0B313BF";
shapes = (
{
closed = 1;
nodes = (
(146,23,o),
(167,43,o),
(167,68,cs),
(167,365,l),
(203,420,o),
(257,450,o),
(317,450,cs),
(322,450,ls),
(349,450,o),
(368,467,o),
(368,493,cs),
(368,517,o),
(350,538,o),
(324,538,cs),
(319,538,ls),
(263,538,o),
(212,508,o),
(167,448,c),
(167,487,ls),
(167,511,o),
(146,533,o),
(121,533,cs),
(96,533,o),
(76,511,o),
(76,487,cs),
(76,68,ls),
(76,44,o),
(97,23,o),
(121,23,cs)
);
}
);
userData = {
com.hugojourdan.ColorFlow = {
"0" = 0;
"1" = 0;
"10" = 0;
"11" = 0;
"2" = 0;
"3" = 0;
"4" = 0;
"5" = 0;
"6" = 0;
"7" = 0;
"8" = 0;
"9" = 0;
};
};
width = 374;
}
);
note = r;
unicode = 114;
}
{
glyphname = t;
kernLeft = t;
kernRight = t;
layers = (
{
anchors = (
{
name = top;
pos = (151,636);
}
);
layerId = "162F4A02-D1DE-460C-9ADC-EEB0D0B313BF";
shapes = (
{
closed = 1;
nodes = (
(277,18,o),
(305,24,o),
(330,36,cs),
(345,44,o),
(354,55,o),
(354,71,cs),
(354,92,o),
(336,107,o),
(317,107,cs),
(311,107,o),
(306,106,o),
(301,105,c),
(300,104,o),
(299,104,o),
(298,104,c),
(285,100,o),
(271,98,o),
(259,98,cs),
(223,98,o),
(196,106,o),
(196,156,cs),
(196,445,l),
(306,445,ls),
(328,445,o),
(345,464,o),
(345,484,cs),
(345,507,o),
(328,523,o),
(306,523,cs),
(196,523,l),
(196,592,ls),
(196,621,o),
(181,638,o),
(151,638,cs),
(123,638,o),
(105,623,o),
(105,592,cs),
(105,523,l),
(57,523,ls),
(32,523,o),
(18,509,o),
(18,484,cs),
(18,460,o),
(31,445,o),
(57,445,cs),
(105,445,l),
(105,148,ls),
(105,61,o),
(154,18,o),
(249,18,cs)
);
}
);
userData = {
com.hugojourdan.ColorFlow = {
"0" = 0;
"1" = 0;
"10" = 0;
"11" = 0;
"2" = 0;
"3" = 0;
"4" = 0;
"5" = 0;
"6" = 0;
"7" = 0;
"8" = 0;
"9" = 0;
};
};
width = 373;
}
);
note = t;
unicode = 116;
}
{
glyphname = v;
kernLeft = uni0233;
kernRight = uni0233;
layers = (
{
layerId = "162F4A02-D1DE-460C-9ADC-EEB0D0B313BF";
shapes = (
{
closed = 1;
nodes = (
(264,23,ls),
(287,23,o),
(310,39,o),
(318,60,cs),
(488,467,ls),
(491,474,o),
(493,481,o),
(493,487,cs),
(493,511,o),
(474,533,o),
(448,533,cs),
(432,533,o),
(414,522,o),
(407,507,cs),
(267,149,ls),
(264,140,o),
(255,139,o),
(251,149,cs),
(110,507,ls),
(104,522,o),
(86,533,o),
(69,533,cs),
(44,533,o),
(24,511,o),
(24,487,cs),
(24,481,o),
(26,474,o),
(29,467,cs),
(199,60,ls),
(208,39,o),
(230,23,o),
(254,23,cs)
);
}
);
userData = {
com.hugojourdan.ColorFlow = {
"0" = 0;
"1" = 0;
"10" = 0;
"11" = 0;
"2" = 0;
"3" = 0;
"4" = 0;
"5" = 0;
"6" = 0;
"7" = 0;
"8" = 0;
"9" = 0;
};
};
width = 518;
}
);
note = v;
unicode = 118;
}
{
glyphname = x;
kernLeft = x;
kernRight = x;
layers = (
{
layerId = "162F4A02-D1DE-460C-9ADC-EEB0D0B313BF";
shapes = (
{
closed = 1;
nodes = (
(108,23,o),
(121,30,o),
(131,43,cs),
(261,206,l),
(398,41,ls),
(407,29,o),
(418,23,o),
(434,23,cs),
(462,23,o),
(479,45,o),
(479,69,cs),
(479,81,o),
(476,91,o),
(469,98,c),
(316,281,l),
(471,462,ls),
(477,470,o),
(480,479,o),
(480,490,cs),
(480,515,o),
(460,533,o),
(435,533,cs),
(421,533,o),
(408,527,o),
(399,516,cs),
(265,348,l),
(129,516,ls),
(120,528,o),
(107,533,o),
(93,533,cs),
(68,533,o),
(48,514,o),
(48,488,cs),
(48,477,o),
(52,467,o),
(59,459,cs),
(210,275,l),
(59,97,ls),
(53,89,o),
(49,80,o),
(49,69,cs),
(49,42,o),
(64,23,o),
(92,23,cs)
);
}
);
userData = {
com.hugojourdan.ColorFlow = {
"0" = 0;
"1" = 0;
"10" = 0;
"11" = 0;
"2" = 0;
"3" = 0;
"4" = 0;
"5" = 0;
"6" = 0;
"7" = 0;
"8" = 0;
"9" = 0;
};
};
width = 528;
}
);
note = x;
unicode = 120;
}
{
glyphname = braceleft;
kernRight = parenleft;
layers = (
{
layerId = "162F4A02-D1DE-460C-9ADC-EEB0D0B313BF";
shapes = (
{
closed = 1;
nodes = (
(274,-114,ls),
(293,-114,o),
(310,-97,o),
(310,-78,cs),
(310,-60,o),
(293,-43,o),
(274,-43,cs),
(260,-43,ls),
(211,-43,o),
(203,-27,o),
(203,-3,cs),
(203,214,ls),
(203,269,o),
(174,307,o),
(117,329,c),
(174,350,o),
(203,388,o),
(203,444,cs),
(203,661,ls),
(203,684,o),
(211,701,o),
(260,701,cs),
(274,701,ls),
(293,701,o),
(310,717,o),
(310,736,cs),
(310,755,o),
(293,771,o),
(274,771,cs),
(263,771,ls),
(176,771,o),
(125,743,o),
(125,653,cs),
(125,447,ls),
(125,400,o),
(104,381,o),
(36,369,cs),
(13,365,o),
(2,349,o),
(2,329,cs),
(2,308,o),
(13,293,o),
(36,289,cs),
(104,277,o),
(125,258,o),
(125,211,cs),
(125,5,ls),
(125,-85,o),
(176,-114,o),
(263,-114,cs)
);
}
);
userData = {
com.hugojourdan.ColorFlow = {
"0" = 0;
"1" = 0;
"10" = 0;
"11" = 0;
"2" = 0;
"3" = 0;
"4" = 0;
"5" = 0;
"6" = 0;
"7" = 0;
"8" = 0;
"9" = 0;
};
};
width = 336;
}
);
note = braceleft;
unicode = 123;
}
{
glyphname = bar;
kernLeft = B;
kernRight = H;
layers = (
{
layerId = "162F4A02-D1DE-460C-9ADC-EEB0D0B313BF";
shapes = (
{
closed = 1;
nodes = (
(146,-163,o),
(164,-147,o),
(164,-123,cs),
(164,713,ls),
(164,735,o),
(146,754,o),
(123,754,cs),
(100,754,o),
(83,735,o),
(83,713,cs),
(83,-123,ls),
(83,-146,o),
(101,-163,o),
(123,-163,cs)
);
}
);
userData = {
com.hugojourdan.ColorFlow = {
"0" = 0;
"1" = 0;
"10" = 0;
"11" = 0;
"2" = 0;
"3" = 0;
"4" = 0;
"5" = 0;
"6" = 0;
"7" = 0;
"8" = 0;
"9" = 0;
};
};
width = 247;
}
);
note = bar;
unicode = 124;
}
{
glyphname = braceright;
kernLeft = parenright;
layers = (
{
layerId = "162F4A02-D1DE-460C-9ADC-EEB0D0B313BF";
shapes = (
{
closed = 1;
nodes = (
(73,-114,ls),
(160,-114,o),
(211,-85,o),
(211,5,cs),
(211,211,ls),
(211,258,o),
(231,277,o),
(300,289,cs),
(323,293,o),
(334,308,o),
(334,329,cs),
(334,349,o),
(323,365,o),
(300,369,cs),
(231,381,o),
(211,400,o),
(211,447,cs),
(211,653,ls),
(211,743,o),
(160,771,o),
(73,771,cs),
(62,771,ls),
(43,771,o),
(26,755,o),
(26,736,cs),
(26,717,o),
(43,701,o),
(62,701,cs),
(76,701,ls),
(125,701,o),
(133,684,o),
(133,661,cs),
(133,444,ls),
(133,388,o),
(162,350,o),
(219,329,c),
(162,307,o),
(133,269,o),
(133,214,cs),
(133,-3,ls),
(133,-27,o),
(125,-43,o),
(76,-43,cs),
(62,-43,ls),
(43,-43,o),
(26,-60,o),
(26,-78,cs),
(26,-97,o),
(43,-114,o),
(62,-114,cs)
);
}
);
userData = {
com.hugojourdan.ColorFlow = {
"0" = 0;
"1" = 0;
"10" = 0;
"11" = 0;
"2" = 0;
"3" = 0;
"4" = 0;
"5" = 0;
"6" = 0;
"7" = 0;
"8" = 0;
"9" = 0;
};
};
width = 336;
}
);
note = braceright;
unicode = 125;
}
{
glyphname = asciitilde;
layers = (
{
layerId = "162F4A02-D1DE-460C-9ADC-EEB0D0B313BF";
shapes = (
{
closed = 1;
nodes = (
(494,229,o),
(539,276,o),
(555,356,cs),
(559,376,o),
(545,387,o),
(530,387,cs),
(519,387,o),
(511,382,o),
(506,372,cs),
(502,365,o),
(499,358,o),
(497,353,cs),
(481,324,o),
(474,314,o),
(438,314,cs),
(409,314,o),
(386,324,o),
(340,346,cs),
(281,374,o),
(247,388,o),
(196,388,cs),
(131,388,o),
(71,322,o),
(71,258,cs),
(71,246,o),
(85,232,o),
(98,232,cs),
(109,232,o),
(119,240,o),
(122,252,cs),
(132,287,o),
(154,303,o),
(189,303,cs),
(218,303,o),
(241,294,o),
(287,271,cs),
(346,244,o),
(380,229,o),
(430,229,cs)
);
}
);
userData = {
com.hugojourdan.ColorFlow = {
"0" = 0;
"1" = 0;
"10" = 0;
"11" = 0;
"2" = 0;
"3" = 0;
"4" = 0;
"5" = 0;
"6" = 0;
"7" = 0;
"8" = 0;
"9" = 0;
};
};
width = 623;
}
);
note = asciitilde;
unicode = 126;
}
{
glyphname = exclamdown;
kernRight = exclam;
layers = (
{
layerId = "162F4A02-D1DE-460C-9ADC-EEB0D0B313BF";
shapes = (
{
closed = 1;
nodes = (
(156,-160,o),
(178,-137,o),
(178,-109,cs),
(178,-12,l),
(160,310,ls),
(159,329,o),
(146,340,o),
(127,340,cs),
(108,340,o),
(94,329,o),
(93,310,cs),
(75,-12,l),
(75,-109,ls),
(75,-137,o),
(99,-160,o),
(127,-160,cs)
);
},
{
closed = 1;
nodes = (
(159,414,o),
(187,441,o),
(187,472,cs),
(187,505,o),
(159,532,o),
(127,532,cs),
(96,532,o),
(68,505,o),
(68,472,cs),
(68,441,o),
(96,414,o),
(127,414,cs)
);
}
);
userData = {
com.hugojourdan.ColorFlow = {
"0" = 0;
"1" = 0;
"10" = 0;
"11" = 0;
"2" = 0;
"3" = 0;
"4" = 0;
"5" = 0;
"6" = 0;
"7" = 0;
"8" = 0;
"9" = 0;
};
};
width = 253;
}
);
note = exclamdown;
unicode = 161;
}
{
glyphname = cent;
kernLeft = c;
kernRight = c;
layers = (
{
layerId = "162F4A02-D1DE-460C-9ADC-EEB0D0B313BF";
shapes = (
{
closed = 1;
nodes = (
(191,-92,o),
(202,-85,o),
(206,-74,cs),
(240,26,l),
(262,21,o),
(283,18,o),
(304,18,cs),
(373,18,o),
(420,38,o),
(464,65,cs),
(477,74,o),
(483,86,o),
(483,100,cs),
(483,120,o),
(466,140,o),
(445,140,cs),
(438,140,o),
(430,137,o),
(424,134,cs),
(381,112,o),
(357,103,o),
(312,103,cs),
(295,103,o),
(280,104,o),
(268,107,c),
(383,441,l),
(424,422,ls),
(430,419,o),
(438,416,o),
(445,416,cs),
(466,416,o),
(483,436,o),
(483,456,cs),
(483,470,o),
(477,482,o),
(464,491,cs),
(445,504,o),
(428,512,o),
(409,519,c),
(436,596,l),
(436,597,o),
(436,597,o),
(437,598,c),
(437,601,o),
(438,603,o),
(438,606,cs),
(438,622,o),
(426,635,o),
(409,635,cs),
(396,635,o),
(386,627,o),
(382,616,cs),
(354,534,l),
(334,537,o),
(316,538,o),
(304,538,cs),
(208,538,o),
(125,494,o),
(78,417,cs),
(54,377,o),
(42,331,o),
(42,278,cs),
(42,166,o),
(99,83,o),
(186,43,c),
(153,-51,l),
(151,-55,o),
(150,-60,o),
(150,-64,cs),
(150,-78,o),
(162,-92,o),
(179,-92,cs)
);
},
{
closed = 1;
nodes = (
(162,154,o),
(133,208,o),
(133,278,cs),
(133,384,o),
(201,453,o),
(312,453,cs),
(317,453,o),
(323,453,o),
(326,452,c),
(214,126,l)
);
}
);
userData = {
com.hugojourdan.ColorFlow = {
"0" = 0;
"1" = 0;
"10" = 0;
"11" = 0;
"2" = 0;
"3" = 0;
"4" = 0;
"5" = 0;
"6" = 0;
"7" = 0;
"8" = 0;
"9" = 0;
};
};
width = 538;
}
);
note = cent;
unicode = 162;
}
{
glyphname = sterling;
layers = (
{
layerId = "162F4A02-D1DE-460C-9ADC-EEB0D0B313BF";
shapes = (
{
closed = 1;
nodes = (
(462,18,o),
(497,27,o),
(529,45,cs),
(544,53,o),
(553,65,o),
(553,81,cs),
(553,104,o),
(534,121,o),
(512,121,cs),
(509,121,o),
(504,120,o),
(496,117,cs),
(476,110,o),
(455,106,o),
(435,106,cs),
(404,106,o),
(379,113,o),
(343,126,cs),
(296,140,o),
(276,146,o),
(242,146,cs),
(220,145,l),
(246,187,o),
(260,234,o),
(260,284,cs),
(260,290,o),
(259,298,o),
(259,307,c),
(258,309,o),
(258,311,o),
(258,313,c),
(404,313,ls),
(425,313,o),
(441,328,o),
(441,349,cs),
(441,369,o),
(424,386,o),
(404,386,cs),
(242,386,l),
(235,409,ls),
(220,459,o),
(212,491,o),
(212,523,cs),
(212,594,o),
(267,633,o),
(363,633,cs),
(396,633,o),
(432,628,o),
(470,615,cs),
(478,612,o),
(483,611,o),
(488,611,cs),
(512,611,o),
(530,630,o),
(530,653,cs),
(530,673,o),
(520,685,o),
(500,693,cs),
(454,712,o),
(407,721,o),
(359,721,cs),
(214,721,o),
(121,643,o),
(121,519,cs),
(121,475,o),
(130,445,o),
(149,386,c),
(73,386,ls),
(53,386,o),
(37,369,o),
(37,349,cs),
(37,330,o),
(54,313,o),
(73,313,cs),
(167,313,l),
(169,302,o),
(170,291,o),
(170,278,cs),
(170,205,o),
(130,134,o),
(80,88,cs),
(71,80,o),
(66,69,o),
(66,56,cs),
(66,37,o),
(84,21,o),
(104,21,cs),
(112,21,o),
(120,24,o),
(127,29,cs),
(158,51,o),
(193,62,o),
(231,62,cs),
(270,62,o),
(293,54,o),
(329,40,cs),
(368,25,o),
(390,18,o),
(426,18,cs)
);
}
);
userData = {
com.hugojourdan.ColorFlow = {
"0" = 0;
"1" = 0;
"10" = 0;
"11" = 0;
"2" = 0;
"3" = 0;
"4" = 0;
"5" = 0;
"6" = 0;
"7" = 0;
"8" = 0;
"9" = 0;
};
};
width = 590;
}
);
note = sterling;
unicode = 163;
}
{
glyphname = currency;
layers = (
{
layerId = "162F4A02-D1DE-460C-9ADC-EEB0D0B313BF";
shapes = (
{
closed = 1;
nodes = (
(109,107,o),
(118,111,o),
(127,118,c),
(190,181,l),
(231,152,o),
(276,137,o),
(326,137,cs),
(376,137,o),
(421,152,o),
(462,181,c),
(525,118,l),
(534,111,o),
(543,107,o),
(552,107,cs),
(573,107,o),
(589,125,o),
(589,144,cs),
(589,155,o),
(585,164,o),
(578,171,cs),
(515,233,l),
(544,275,o),
(559,320,o),
(559,370,cs),
(559,420,o),
(544,465,o),
(515,507,c),
(578,569,ls),
(585,576,o),
(589,585,o),
(589,595,cs),
(589,615,o),
(573,633,o),
(552,633,cs),
(543,633,o),
(534,629,o),
(525,622,c),
(462,558,l),
(421,588,o),
(376,602,o),
(326,602,cs),
(276,602,o),
(231,588,o),
(190,558,c),
(127,622,l),
(118,629,o),
(109,633,o),
(101,633,cs),
(79,633,o),
(63,615,o),
(63,595,cs),
(63,585,o),
(67,576,o),
(74,569,cs),
(138,507,l),
(108,465,o),
(94,420,o),
(94,370,cs),
(94,320,o),
(108,275,o),
(138,233,c),
(74,171,ls),
(67,164,o),
(63,155,o),
(63,144,cs),
(63,125,o),
(79,107,o),
(101,107,cs)
);
},
{
closed = 1;
nodes = (
(271,218,o),
(223,248,o),
(195,295,cs),
(182,317,o),
(175,342,o),
(175,370,cs),
(175,425,o),
(204,473,o),
(251,501,cs),
(273,514,o),
(299,521,o),
(326,521,cs),
(381,521,o),
(430,492,o),
(457,445,cs),
(471,423,o),
(478,397,o),
(478,370,cs),
(478,315,o),
(448,266,o),
(401,239,cs),
(379,225,o),
(354,218,o),
(326,218,cs)
);
}
);
userData = {
com.hugojourdan.ColorFlow = {
"0" = 0;
"1" = 0;
"10" = 0;
"11" = 0;
"2" = 0;
"3" = 0;
"4" = 0;
"5" = 0;
"6" = 0;
"7" = 0;
"8" = 0;
"9" = 0;
};
};
width = 652;
}
);
note = currency;
unicode = 164;
}
{
glyphname = yen;
kernLeft = Y;
kernRight = Y;
layers = (
{
layerId = "162F4A02-D1DE-460C-9ADC-EEB0D0B313BF";
shapes = (
{
closed = 1;
nodes = (
(345,22,o),
(366,42,o),
(366,67,cs),
(366,175,l),
(503,175,ls),
(523,175,o),
(540,192,o),
(540,213,cs),
(540,233,o),
(524,251,o),
(503,251,cs),
(366,251,l),
(366,311,l),
(503,311,ls),
(523,311,o),
(540,328,o),
(540,348,cs),
(540,369,o),
(524,386,o),
(503,386,cs),
(409,386,l),
(572,652,l),
(577,662,o),
(580,670,o),
(580,678,cs),
(580,706,o),
(560,725,o),
(532,725,cs),
(514,725,o),
(500,716,o),
(489,697,cs),
(321,403,l),
(153,697,ls),
(143,716,o),
(129,725,o),
(110,725,cs),
(83,725,o),
(63,706,o),
(63,678,cs),
(63,670,o),
(65,662,o),
(70,652,c),
(233,386,l),
(140,386,ls),
(118,386,o),
(103,369,o),
(103,348,cs),
(103,328,o),
(119,311,o),
(140,311,cs),
(276,311,l),
(276,251,l),
(140,251,ls),
(118,251,o),
(103,233,o),
(103,213,cs),
(103,192,o),
(119,175,o),
(140,175,cs),
(276,175,l),
(276,67,ls),
(276,42,o),
(298,22,o),
(321,22,cs)
);
}
);
userData = {
com.hugojourdan.ColorFlow = {
"0" = 0;
"1" = 0;
"10" = 0;
"11" = 0;
"2" = 0;
"3" = 0;
"4" = 0;
"5" = 0;
"6" = 0;
"7" = 0;
"8" = 0;
"9" = 0;
};
};
width = 643;
}
);
note = yen;
unicode = 165;
}
{
glyphname = brokenbar;
kernLeft = B;
kernRight = H;
layers = (
{
layerId = "162F4A02-D1DE-460C-9ADC-EEB0D0B313BF";
shapes = (
{
closed = 1;
nodes = (
(146,383,o),
(164,400,o),
(164,424,cs),
(164,713,ls),
(164,735,o),
(146,754,o),
(123,754,cs),
(100,754,o),
(83,735,o),
(83,713,cs),
(83,424,ls),
(83,401,o),
(101,383,o),
(123,383,cs)
);
},
{
closed = 1;
nodes = (
(146,-163,o),
(164,-147,o),
(164,-123,cs),
(164,166,ls),
(164,188,o),
(146,207,o),
(123,207,cs),
(100,207,o),
(83,188,o),
(83,166,cs),
(83,-123,ls),
(83,-146,o),
(101,-163,o),
(123,-163,cs)
);
}
);
userData = {
com.hugojourdan.ColorFlow = {
"0" = 0;
"1" = 0;
"10" = 0;
"11" = 0;
"2" = 0;
"3" = 0;
"4" = 0;
"5" = 0;
"6" = 0;
"7" = 0;
"8" = 0;
"9" = 0;
};
};
width = 247;
}
);
note = brokenbar;
unicode = 166;
}
{
glyphname = section;
layers = (
{
layerId = "162F4A02-D1DE-460C-9ADC-EEB0D0B313BF";
shapes = (
{
closed = 1;
nodes = (
(609,-24,o),
(679,39,o),
(679,122,cs),
(679,172,o),
(657,211,o),
(616,239,c),
(679,259,o),
(712,300,o),
(712,363,cs),
(712,426,o),
(672,470,o),
(623,495,cs),
(599,508,o),
(567,521,o),
(529,536,cs),
(490,550,o),
(462,564,o),
(444,576,cs),
(425,587,o),
(417,601,o),
(417,619,cs),
(417,664,o),
(452,686,o),
(526,686,cs),
(568,686,o),
(605,680,o),
(639,668,cs),
(643,666,o),
(647,665,o),
(653,665,cs),
(674,665,o),
(694,683,o),
(694,705,cs),
(694,723,o),
(684,737,o),
(667,744,cs),
(624,761,o),
(574,770,o),
(521,770,cs),
(400,770,o),
(331,708,o),
(331,625,cs),
(331,576,o),
(353,537,o),
(393,507,c),
(330,485,o),
(298,444,o),
(298,383,cs),
(298,320,o),
(338,275,o),
(388,251,cs),
(412,238,o),
(442,225,o),
(480,211,cs),
(520,196,o),
(548,182,o),
(565,172,cs),
(585,160,o),
(593,145,o),
(593,128,cs),
(593,83,o),
(558,60,o),
(483,60,cs),
(430,60,o),
(384,69,o),
(348,88,cs),
(340,92,o),
(333,93,o),
(327,93,cs),
(307,93,o),
(288,76,o),
(288,53,cs),
(288,41,o),
(295,25,o),
(304,20,cs),
(351,-9,o),
(412,-24,o),
(489,-24,cs)
);
},
{
closed = 1;
nodes = (
(504,293,ls),
(438,318,o),
(382,339,o),
(382,389,cs),
(382,434,o),
(405,463,o),
(453,474,c),
(464,469,o),
(474,466,o),
(482,463,cs),
(491,460,o),
(498,457,o),
(505,454,cs),
(571,428,o),
(628,408,o),
(628,357,cs),
(628,312,o),
(604,284,o),
(556,272,c)
);
}
);
userData = {
com.hugojourdan.ColorFlow = {
"0" = 0;
"1" = 0;
"10" = 0;
"11" = 0;
"2" = 0;
"3" = 0;
"4" = 0;
"5" = 0;
"6" = 0;
"7" = 0;
"8" = 0;
"9" = 0;
};
};
width = 1000;
}
);
note = section;
unicode = 167;
}
{
glyphname = dieresis;
layers = (
{
layerId = "162F4A02-D1DE-460C-9ADC-EEB0D0B313BF";
shapes = (
{
closed = 1;
nodes = (
(292,577,o),
(316,600,o),
(316,627,cs),
(316,655,o),
(292,678,o),
(265,678,cs),
(238,678,o),
(214,655,o),
(214,627,cs),
(214,600,o),
(238,577,o),
(265,577,cs)
);
},
{
closed = 1;
nodes = (
(128,577,o),
(152,600,o),
(152,627,cs),
(152,655,o),
(128,678,o),
(101,678,cs),
(74,678,o),
(50,655,o),
(50,627,cs),
(50,600,o),
(74,577,o),
(101,577,cs)
);
}
);
userData = {
com.hugojourdan.ColorFlow = {
"0" = 0;
"1" = 0;
"10" = 0;
"11" = 0;
"2" = 0;
"3" = 0;
"4" = 0;
"5" = 0;
"6" = 0;
"7" = 0;
"8" = 0;
"9" = 0;
};
};
width = 366;
}
);
note = dieresis;
unicode = 168;
}
{
glyphname = copyright;
kernLeft = C;
kernRight = D;
layers = (
{
layerId = "162F4A02-D1DE-460C-9ADC-EEB0D0B313BF";
shapes = (
{
closed = 1;
nodes = (
(526,19,o),
(642,88,o),
(705,194,cs),
(736,249,o),
(752,307,o),
(752,370,cs),
(752,496,o),
(685,610,o),
(577,674,cs),
(522,705,o),
(463,720,o),
(400,720,cs),
(274,720,o),
(159,652,o),
(97,546,cs),
(64,491,o),
(49,433,o),
(49,370,cs),
(49,244,o),
(117,130,o),
(225,67,cs),
(279,35,o),
(337,19,o),
(400,19,cs)
);
},
{
closed = 1;
nodes = (
(481,171,o),
(540,208,o),
(572,274,cs),
(574,278,o),
(575,283,o),
(575,287,cs),
(575,306,o),
(562,319,o),
(543,319,cs),
(529,319,o),
(520,311,o),
(512,297,cs),
(487,254,o),
(452,232,o),
(406,232,cs),
(329,232,o),
(284,292,o),
(284,370,cs),
(284,448,o),
(329,508,o),
(406,508,cs),
(452,508,o),
(487,486,o),
(512,443,cs),
(520,428,o),
(529,421,o),
(543,421,cs),
(562,421,o),
(575,436,o),
(575,453,cs),
(575,457,o),
(574,462,o),
(572,466,cs),
(540,532,o),
(481,569,o),
(406,569,cs),
(333,569,o),
(273,536,o),
(241,474,cs),
(225,444,o),
(217,410,o),
(217,370,cs),
(217,293,o),
(250,228,o),
(308,195,cs),
(337,178,o),
(369,171,o),
(406,171,cs)
);
},
{
closed = 1;
nodes = (
(291,72,o),
(196,131,o),
(143,221,cs),
(115,266,o),
(102,316,o),
(102,370,cs),
(102,478,o),
(160,573,o),
(251,628,cs),
(298,655,o),
(347,668,o),
(399,668,cs),
(509,668,o),
(604,609,o),
(659,518,cs),
(687,471,o),
(699,423,o),
(699,370,cs),
(699,261,o),
(642,167,o),
(550,113,cs),
(505,86,o),
(455,72,o),
(399,72,cs)
);
}
);
userData = {
com.hugojourdan.ColorFlow = {
"0" = 0;
"1" = 0;
"10" = 0;
"11" = 0;
"2" = 0;
"3" = 0;
"4" = 0;
"5" = 0;
"6" = 0;
"7" = 0;
"8" = 0;
"9" = 0;
};
};
width = 800;
}
);
note = copyright;
unicode = 169;
}
{
glyphname = ordfeminine;
kernLeft = ordfeminine;
kernRight = ordfeminine;
layers = (
{
layerId = "162F4A02-D1DE-460C-9ADC-EEB0D0B313BF";
shapes = (
{
closed = 1;
nodes = (
(246,359,o),
(286,378,o),
(310,404,c),
(310,398,ls),
(310,379,o),
(326,362,o),
(346,362,cs),
(365,362,o),
(382,379,o),
(382,398,cs),
(382,585,ls),
(382,659,o),
(332,721,o),
(238,721,cs),
(199,721,o),
(160,714,o),
(120,698,cs),
(106,693,o),
(97,680,o),
(97,668,cs),
(97,651,o),
(112,635,o),
(129,635,cs),
(132,635,o),
(134,636,o),
(137,636,c),
(138,637,o),
(138,637,o),
(139,637,c),
(166,647,o),
(195,653,o),
(228,653,cs),
(283,653,o),
(310,630,o),
(310,571,cs),
(310,570,l),
(236,570,ls),
(135,570,o),
(78,534,o),
(78,465,cs),
(78,401,o),
(130,359,o),
(192,359,cs)
);
},
{
closed = 1;
nodes = (
(368,252,ls),
(383,252,o),
(396,265,o),
(396,280,cs),
(396,295,o),
(383,308,o),
(368,308,cs),
(92,308,ls),
(77,308,o),
(63,295,o),
(63,280,cs),
(63,265,o),
(77,252,o),
(92,252,cs)
);
},
{
closed = 1;
nodes = (
(171,425,o),
(150,440,o),
(150,470,cs),
(150,501,o),
(182,515,o),
(244,515,cs),
(310,515,l),
(310,469,l),
(285,444,o),
(251,425,o),
(215,425,cs)
);
}
);
userData = {
com.hugojourdan.ColorFlow = {
"0" = 0;
"1" = 0;
"10" = 0;
"11" = 0;
"2" = 0;
"3" = 0;
"4" = 0;
"5" = 0;
"6" = 0;
"7" = 0;
"8" = 0;
"9" = 0;
};
};
width = 474;
}
);
note = ordfeminine;
unicode = 170;
}
{
glyphname = guillemetleft;
kernLeft = guillemotleft;
kernRight = guillemotleft;
layers = (
{
layerId = "162F4A02-D1DE-460C-9ADC-EEB0D0B313BF";
shapes = (
{
closed = 1;
nodes = (
(483,48,o),
(500,64,o),
(500,87,cs),
(500,96,o),
(498,105,o),
(491,113,cs),
(348,264,ls),
(340,273,o),
(340,283,o),
(348,292,cs),
(491,443,l),
(497,451,o),
(500,460,o),
(500,469,cs),
(500,492,o),
(483,508,o),
(461,508,cs),
(449,508,o),
(439,506,o),
(433,498,c),
(272,321,l),
(262,308,o),
(255,294,o),
(255,278,cs),
(255,262,o),
(262,248,o),
(272,235,c),
(433,58,l),
(439,50,o),
(449,48,o),
(461,48,cs)
);
},
{
closed = 1;
nodes = (
(280,48,o),
(297,64,o),
(297,87,cs),
(297,96,o),
(295,105,o),
(288,113,cs),
(145,264,ls),
(137,273,o),
(137,283,o),
(145,292,cs),
(288,443,l),
(294,451,o),
(297,460,o),
(297,469,cs),
(297,492,o),
(280,508,o),
(258,508,cs),
(246,508,o),
(236,506,o),
(229,498,cs),
(69,321,l),
(59,308,o),
(52,294,o),
(52,278,cs),
(52,262,o),
(59,248,o),
(69,235,c),
(229,58,ls),
(236,50,o),
(246,48,o),
(258,48,cs)
);
}
);
userData = {
com.hugojourdan.ColorFlow = {
"0" = 0;
"1" = 0;
"10" = 0;
"11" = 0;
"2" = 0;
"3" = 0;
"4" = 0;
"5" = 0;
"6" = 0;
"7" = 0;
"8" = 0;
"9" = 0;
};
};
width = 571;
}
);
note = guillemotleft;
unicode = 171;
}
{
glyphname = logicalnot;
layers = (
{
layerId = "162F4A02-D1DE-460C-9ADC-EEB0D0B313BF";
shapes = (
{
closed = 1;
nodes = (
(468,192,o),
(485,208,o),
(485,229,cs),
(485,362,ls),
(485,384,o),
(466,404,o),
(443,404,cs),
(106,404,ls),
(87,404,o),
(70,387,o),
(70,368,cs),
(70,348,o),
(87,332,o),
(106,332,cs),
(410,332,l),
(410,229,ls),
(410,209,o),
(427,192,o),
(447,192,cs)
);
}
);
userData = {
com.hugojourdan.ColorFlow = {
"0" = 0;
"1" = 0;
"10" = 0;
"11" = 0;
"2" = 0;
"3" = 0;
"4" = 0;
"5" = 0;
"6" = 0;
"7" = 0;
"8" = 0;
"9" = 0;
};
};
width = 565;
}
);
note = logicalnot;
unicode = 172;
}
{
glyphname = registered;
kernLeft = C;
kernRight = D;
layers = (
{
layerId = "162F4A02-D1DE-460C-9ADC-EEB0D0B313BF";
shapes = (
{
closed = 1;
nodes = (
(526,18,o),
(642,87,o),
(705,194,cs),
(736,249,o),
(752,307,o),
(752,370,cs),
(752,496,o),
(685,611,o),
(577,675,cs),
(522,706,o),
(463,721,o),
(400,721,cs),
(274,721,o),
(159,654,o),
(97,547,cs),
(64,492,o),
(49,433,o),
(49,370,cs),
(49,244,o),
(117,129,o),
(225,66,cs),
(279,34,o),
(337,18,o),
(400,18,cs)
);
},
{
closed = 1;
nodes = (
(291,71,o),
(196,130,o),
(143,221,cs),
(115,266,o),
(102,316,o),
(102,371,cs),
(102,479,o),
(160,574,o),
(251,629,cs),
(298,656,o),
(347,669,o),
(399,669,cs),
(509,669,o),
(604,610,o),
(659,519,cs),
(687,472,o),
(699,424,o),
(699,371,cs),
(699,261,o),
(642,166,o),
(550,112,cs),
(505,85,o),
(455,71,o),
(399,71,cs)
);
},
{
closed = 1;
nodes = (
(306,170,o),
(321,183,o),
(321,203,cs),
(321,320,l),
(427,320,ls),
(488,320,o),
(497,277,o),
(497,221,cs),
(497,204,ls),
(497,185,o),
(513,170,o),
(531,170,cs),
(550,170,o),
(565,185,o),
(565,204,cs),
(565,230,ls),
(565,300,o),
(535,339,o),
(500,352,c),
(541,368,o),
(570,401,o),
(570,447,cs),
(570,522,o),
(515,565,o),
(416,565,cs),
(299,565,ls),
(273,565,o),
(254,544,o),
(254,519,cs),
(254,203,ls),
(254,184,o),
(269,170,o),
(287,170,cs)
);
},
{
closed = 1;
nodes = (
(321,495,ls),
(321,503,o),
(325,507,o),
(333,507,cs),
(411,507,ls),
(476,507,o),
(504,486,o),
(504,445,cs),
(504,405,o),
(471,380,o),
(413,380,cs),
(321,380,l)
);
}
);
userData = {
com.hugojourdan.ColorFlow = {
"0" = 0;
"1" = 0;
"10" = 0;
"11" = 0;
"2" = 0;
"3" = 0;
"4" = 0;
"5" = 0;
"6" = 0;
"7" = 0;
"8" = 0;
"9" = 0;
};
};
width = 800;
}
);
note = registered;
unicode = 174;
}
{
glyphname = macron;
layers = (
{
layerId = "162F4A02-D1DE-460C-9ADC-EEB0D0B313BF";
shapes = (
{
closed = 1;
nodes = (
(267,604,ls),
(283,604,o),
(297,618,o),
(297,634,cs),
(297,651,o),
(283,665,o),
(267,665,cs),
(38,665,ls),
(21,665,o),
(8,651,o),
(8,634,cs),
(8,618,o),
(21,604,o),
(38,604,cs)
);
}
);
userData = {
com.hugojourdan.ColorFlow = {
"0" = 0;
"1" = 0;
"10" = 0;
"11" = 0;
"2" = 0;
"3" = 0;
"4" = 0;
"5" = 0;
"6" = 0;
"7" = 0;
"8" = 0;
"9" = 0;
};
};
width = 305;
}
);
note = macron;
unicode = 175;
}
{
glyphname = degree;
kernLeft = ordfeminine;
kernRight = ordfeminine;
layers = (
{
layerId = "162F4A02-D1DE-460C-9ADC-EEB0D0B313BF";
shapes = (
{
closed = 1;
nodes = (
(258,452,o),
(319,513,o),
(319,587,cs),
(319,660,o),
(258,721,o),
(185,721,cs),
(111,721,o),
(50,660,o),
(50,587,cs),
(50,513,o),
(111,452,o),
(185,452,cs)
);
},
{
closed = 1;
nodes = (
(139,505,o),
(103,541,o),
(103,587,cs),
(103,633,o),
(139,669,o),
(185,669,cs),
(230,669,o),
(267,633,o),
(267,587,cs),
(267,541,o),
(230,505,o),
(185,505,cs)
);
}
);
userData = {
com.hugojourdan.ColorFlow = {
"0" = 0;
"1" = 0;
"10" = 0;
"11" = 0;
"2" = 0;
"3" = 0;
"4" = 0;
"5" = 0;
"6" = 0;
"7" = 0;
"8" = 0;
"9" = 0;
};
};
width = 369;
}
);
note = degree;
unicode = 176;
}
{
glyphname = plusminus;
layers = (
{
layerId = "162F4A02-D1DE-460C-9ADC-EEB0D0B313BF";
shapes = (
{
closed = 1;
nodes = (
(318,170,o),
(335,188,o),
(335,209,cs),
(335,362,l),
(493,362,ls),
(516,362,o),
(532,380,o),
(532,400,cs),
(532,423,o),
(516,439,o),
(493,439,cs),
(335,439,l),
(335,592,ls),
(335,615,o),
(318,632,o),
(296,632,cs),
(275,632,o),
(257,615,o),
(257,592,cs),
(257,439,l),
(98,439,ls),
(77,439,o),
(60,423,o),
(60,400,cs),
(60,380,o),
(77,362,o),
(98,362,cs),
(257,362,l),
(257,209,ls),
(257,188,o),
(275,170,o),
(296,170,cs)
);
},
{
closed = 1;
nodes = (
(493,28,ls),
(516,28,o),
(532,46,o),
(532,66,cs),
(532,89,o),
(516,105,o),
(493,105,cs),
(98,105,ls),
(77,105,o),
(60,89,o),
(60,66,cs),
(60,46,o),
(77,28,o),
(98,28,cs)
);
}
);
userData = {
com.hugojourdan.ColorFlow = {
"0" = 0;
"1" = 0;
"10" = 0;
"11" = 0;
"2" = 0;
"3" = 0;
"4" = 0;
"5" = 0;
"6" = 0;
"7" = 0;
"8" = 0;
"9" = 0;
};
};
width = 592;
}
);
note = plusminus;
unicode = 177;
}
{
glyphname = twosuperior;
layers = (
{
layerId = "162F4A02-D1DE-460C-9ADC-EEB0D0B313BF";
shapes = (
{
closed = 1;
nodes = (
(290,331,ls),
(307,331,o),
(320,342,o),
(320,360,cs),
(320,377,o),
(307,390,o),
(290,390,cs),
(106,390,l),
(118,405,o),
(140,420,o),
(179,445,cs),
(236,483,o),
(270,506,o),
(297,545,cs),
(310,563,o),
(316,585,o),
(316,607,cs),
(316,674,o),
(260,722,o),
(186,722,cs),
(138,722,o),
(95,712,o),
(59,690,cs),
(49,684,o),
(44,675,o),
(44,665,cs),
(44,647,o),
(57,636,o),
(72,636,cs),
(76,636,o),
(81,637,o),
(85,639,cs),
(111,654,o),
(141,661,o),
(178,661,cs),
(227,661,o),
(253,639,o),
(253,603,cs),
(253,588,o),
(246,573,o),
(230,560,cs),
(215,547,o),
(190,529,o),
(158,508,cs),
(79,458,o),
(36,425,o),
(36,371,cs),
(36,350,o),
(53,331,o),
(75,331,cs)
);
}
);
userData = {
com.hugojourdan.ColorFlow = {
"0" = 0;
"1" = 0;
"10" = 0;
"11" = 0;
"2" = 0;
"3" = 0;
"4" = 0;
"5" = 0;
"6" = 0;
"7" = 0;
"8" = 0;
"9" = 0;
};
};
width = 361;
}
);
note = uni00B2;
unicode = 178;
}
{
glyphname = acute;
layers = (
{
layerId = "162F4A02-D1DE-460C-9ADC-EEB0D0B313BF";
shapes = (
{
closed = 1;
nodes = (
(132,582,o),
(140,586,o),
(146,592,c),
(213,673,l),
(220,679,o),
(223,689,o),
(223,698,cs),
(223,720,o),
(206,735,o),
(186,735,cs),
(171,735,o),
(159,729,o),
(153,716,c),
(103,629,ls),
(99,622,o),
(96,616,o),
(96,609,cs),
(96,592,o),
(108,582,o),
(123,582,cs)
);
}
);
userData = {
com.hugojourdan.ColorFlow = {
"0" = 0;
"1" = 0;
"10" = 0;
"11" = 0;
"2" = 0;
"3" = 0;
"4" = 0;
"5" = 0;
"6" = 0;
"7" = 0;
"8" = 0;
"9" = 0;
};
};
width = 319;
}
);
note = acute;
unicode = 180;
}
{
glyphname = micro;
kernLeft = u;
layers = (
{
layerId = "162F4A02-D1DE-460C-9ADC-EEB0D0B313BF";
shapes = (
{
closed = 1;
nodes = (
(150,-185,o),
(172,-165,o),
(172,-140,cs),
(172,44,l),
(198,26,o),
(229,18,o),
(262,18,cs),
(339,18,o),
(387,51,o),
(438,106,c),
(438,69,ls),
(438,45,o),
(459,23,o),
(483,23,cs),
(509,23,o),
(528,45,o),
(528,69,cs),
(528,488,ls),
(528,512,o),
(508,533,o),
(483,533,cs),
(459,533,o),
(438,513,o),
(438,488,cs),
(438,195,l),
(392,138,o),
(344,102,o),
(278,102,cs),
(208,102,o),
(172,141,o),
(172,220,cs),
(172,488,ls),
(172,512,o),
(151,533,o),
(127,533,cs),
(103,533,o),
(81,513,o),
(81,488,cs),
(81,-140,ls),
(81,-164,o),
(102,-185,o),
(126,-185,cs)
);
}
);
userData = {
com.hugojourdan.ColorFlow = {
"0" = 0;
"1" = 0;
"10" = 0;
"11" = 0;
"2" = 0;
"3" = 0;
"4" = 0;
"5" = 0;
"6" = 0;
"7" = 0;
"8" = 0;
"9" = 0;
};
};
width = 590;
}
);
note = uni00B5;
unicode = 181;
}
{
glyphname = paragraph;
kernRight = H;
layers = (
{
layerId = "162F4A02-D1DE-460C-9ADC-EEB0D0B313BF";
shapes = (
{
closed = 1;
nodes = (
(385,-191,o),
(402,-173,o),
(402,-151,cs),
(402,633,l),
(510,633,l),
(510,-151,ls),
(510,-173,o),
(528,-191,o),
(549,-191,cs),
(571,-191,o),
(589,-173,o),
(589,-151,cs),
(589,633,l),
(633,633,ls),
(655,633,o),
(673,651,o),
(673,672,cs),
(673,694,o),
(655,712,o),
(633,712,cs),
(289,712,ls),
(198,712,o),
(116,664,o),
(71,587,cs),
(48,547,o),
(37,505,o),
(37,460,cs),
(37,369,o),
(85,287,o),
(162,242,cs),
(202,218,o),
(244,208,o),
(289,208,cs),
(323,208,l),
(323,-151,ls),
(323,-173,o),
(342,-191,o),
(362,-191,cs)
);
}
);
userData = {
com.hugojourdan.ColorFlow = {
"0" = 0;
"1" = 0;
"10" = 0;
"11" = 0;
"2" = 0;
"3" = 0;
"4" = 0;
"5" = 0;
"6" = 0;
"7" = 0;
"8" = 0;
"9" = 0;
};
};
width = 715;
}
);
note = paragraph;
unicode = 182;
}
{
color = 2;
glyphname = periodcentered;
kernLeft = periodcentered;
kernRight = periodcentered;
layers = (
{
layerId = "162F4A02-D1DE-460C-9ADC-EEB0D0B313BF";
shapes = (
{
closed = 1;
nodes = (
(133,313,ls),
(170,313,o),
(201,344,o),
(201,382,cs),
(201,389,ls),
(201,426,o),
(170,458,o),
(133,458,cs),
(121,458,ls),
(84,458,o),
(53,426,o),
(53,389,cs),
(53,382,ls),
(53,344,o),
(84,313,o),
(121,313,cs)
);
}
);
userData = {
com.hugojourdan.ColorFlow = {
"0" = 0;
"1" = 0;
"10" = 0;
"11" = 0;
"2" = 0;
"3" = 0;
"4" = 0;
"5" = 0;
"6" = 0;
"7" = 0;
"8" = 0;
"9" = 0;
};
};
width = 254;
}
);
note = periodcentered;
unicode = 183;
}
{
glyphname = cedilla;
layers = (
{
layerId = "162F4A02-D1DE-460C-9ADC-EEB0D0B313BF";
shapes = (
{
closed = 1;
nodes = (
(254,-188,o),
(292,-157,o),
(292,-97,cs),
(292,-56,o),
(260,-28,o),
(216,-28,cs),
(205,-28,o),
(194,-29,o),
(185,-31,c),
(229,47,l),
(187,47,l),
(123,-53,ls),
(120,-58,o),
(119,-63,o),
(119,-68,cs),
(119,-77,o),
(129,-84,o),
(138,-84,cs),
(141,-84,o),
(144,-83,o),
(147,-81,c),
(162,-75,o),
(176,-71,o),
(190,-71,cs),
(212,-71,o),
(225,-82,o),
(225,-100,cs),
(225,-129,o),
(207,-144,o),
(170,-144,cs),
(151,-144,o),
(133,-138,o),
(112,-127,cs),
(108,-125,o),
(105,-124,o),
(103,-124,cs),
(91,-124,o),
(83,-133,o),
(83,-145,cs),
(83,-151,o),
(86,-156,o),
(94,-162,cs),
(122,-179,o),
(151,-188,o),
(183,-188,cs)
);
}
);
userData = {
com.hugojourdan.ColorFlow = {
"0" = 0;
"1" = 0;
"10" = 0;
"11" = 0;
"2" = 0;
"3" = 0;
"4" = 0;
"5" = 0;
"6" = 0;
"7" = 0;
"8" = 0;
"9" = 0;
};
};
width = 300;
}
);
note = cedilla;
unicode = 184;
}
{
glyphname = onesuperior;
layers = (
{
layerId = "162F4A02-D1DE-460C-9ADC-EEB0D0B313BF";
shapes = (
{
closed = 1;
nodes = (
(275,331,ls),
(292,331,o),
(306,342,o),
(306,360,cs),
(306,377,o),
(292,390,o),
(275,390,cs),
(228,390,l),
(228,678,ls),
(228,702,o),
(210,721,o),
(185,721,cs),
(178,721,o),
(172,719,o),
(165,717,c),
(95,680,l),
(82,675,o),
(75,663,o),
(75,652,cs),
(75,634,o),
(90,622,o),
(105,622,cs),
(108,622,o),
(113,623,o),
(120,626,cs),
(163,646,l),
(163,390,l),
(105,390,ls),
(88,390,o),
(76,377,o),
(76,360,cs),
(76,342,o),
(89,331,o),
(105,331,cs)
);
}
);
userData = {
com.hugojourdan.ColorFlow = {
"0" = 0;
"1" = 0;
"10" = 0;
"11" = 0;
"2" = 0;
"3" = 0;
"4" = 0;
"5" = 0;
"6" = 0;
"7" = 0;
"8" = 0;
"9" = 0;
};
};
width = 361;
}
);
note = uni00B9;
unicode = 185;
}
{
glyphname = ordmasculine;
kernLeft = ordfeminine;
kernRight = ordfeminine;
layers = (
{
layerId = "162F4A02-D1DE-460C-9ADC-EEB0D0B313BF";
shapes = (
{
closed = 1;
nodes = (
(356,359,o),
(426,432,o),
(426,541,cs),
(426,649,o),
(357,721,o),
(251,721,cs),
(145,721,o),
(76,649,o),
(76,541,cs),
(76,432,o),
(146,359,o),
(251,359,cs)
);
},
{
closed = 1;
nodes = (
(406,252,ls),
(421,252,o),
(435,265,o),
(435,280,cs),
(435,295,o),
(421,308,o),
(406,308,cs),
(96,308,ls),
(81,308,o),
(67,295,o),
(67,280,cs),
(67,265,o),
(81,252,o),
(96,252,cs)
);
},
{
closed = 1;
nodes = (
(196,424,o),
(148,463,o),
(148,542,cs),
(148,620,o),
(196,658,o),
(251,658,cs),
(306,658,o),
(354,620,o),
(354,542,cs),
(354,463,o),
(306,424,o),
(251,424,cs)
);
}
);
userData = {
com.hugojourdan.ColorFlow = {
"0" = 0;
"1" = 0;
"10" = 0;
"11" = 0;
"2" = 0;
"3" = 0;
"4" = 0;
"5" = 0;
"6" = 0;
"7" = 0;
"8" = 0;
"9" = 0;
};
};
width = 502;
}
);
note = ordmasculine;
unicode = 186;
}
{
glyphname = guillemetright;
kernLeft = guillemotright;
kernRight = guillemotright;
layers = (
{
layerId = "162F4A02-D1DE-460C-9ADC-EEB0D0B313BF";
shapes = (
{
closed = 1;
nodes = (
(325,48,o),
(335,50,o),
(342,58,cs),
(502,235,ls),
(513,248,o),
(520,262,o),
(520,278,cs),
(520,294,o),
(513,308,o),
(502,321,cs),
(342,498,ls),
(335,506,o),
(325,508,o),
(313,508,cs),
(291,508,o),
(274,492,o),
(274,469,cs),
(274,460,o),
(277,451,o),
(283,443,c),
(427,292,ls),
(435,283,o),
(435,273,o),
(427,264,cs),
(283,113,ls),
(276,105,o),
(274,96,o),
(274,87,cs),
(274,64,o),
(291,48,o),
(313,48,cs)
);
},
{
closed = 1;
nodes = (
(122,48,o),
(132,50,o),
(139,58,cs),
(299,235,ls),
(310,248,o),
(316,262,o),
(316,278,cs),
(316,294,o),
(310,308,o),
(299,321,cs),
(139,498,ls),
(132,506,o),
(122,508,o),
(110,508,cs),
(88,508,o),
(71,492,o),
(71,469,cs),
(71,460,o),
(74,451,o),
(80,443,c),
(224,292,l),
(231,283,o),
(231,273,o),
(224,264,c),
(80,113,ls),
(73,105,o),
(71,96,o),
(71,87,cs),
(71,64,o),
(88,48,o),
(110,48,cs)
);
}
);
userData = {
com.hugojourdan.ColorFlow = {
"0" = 0;
"1" = 0;
"10" = 0;
"11" = 0;
"2" = 0;
"3" = 0;
"4" = 0;
"5" = 0;
"6" = 0;
"7" = 0;
"8" = 0;
"9" = 0;
};
};
width = 571;
}
);
note = guillemotright;
unicode = 187;
}
{
glyphname = onequarter;
layers = (
{
layerId = "162F4A02-D1DE-460C-9ADC-EEB0D0B313BF";
shapes = (
{
closed = 1;
nodes = (
(305,5,o),
(314,9,o),
(320,18,cs),
(725,685,l),
(727,692,o),
(729,698,o),
(729,703,cs),
(729,723,o),
(714,737,o),
(695,737,cs),
(683,737,o),
(673,732,o),
(667,723,cs),
(263,56,ls),
(260,50,o),
(258,44,o),
(258,39,cs),
(258,18,o),
(273,5,o),
(292,5,cs)
);
},
{
closed = 1;
nodes = (
(314,331,ls),
(331,331,o),
(345,342,o),
(345,360,cs),
(345,377,o),
(331,390,o),
(314,390,cs),
(267,390,l),
(267,678,ls),
(267,702,o),
(249,721,o),
(224,721,cs),
(217,721,o),
(211,719,o),
(204,717,c),
(134,680,l),
(121,675,o),
(114,663,o),
(114,652,cs),
(114,634,o),
(129,622,o),
(144,622,cs),
(147,622,o),
(152,623,o),
(159,626,cs),
(202,646,l),
(202,390,l),
(144,390,ls),
(127,390,o),
(115,377,o),
(115,360,cs),
(115,342,o),
(128,331,o),
(144,331,cs)
);
},
{
closed = 1;
nodes = (
(809,23,o),
(822,39,o),
(822,55,cs),
(822,122,l),
(856,122,ls),
(873,122,o),
(887,133,o),
(887,151,cs),
(887,168,o),
(873,181,o),
(856,181,cs),
(822,181,l),
(822,378,ls),
(822,400,o),
(805,420,o),
(780,420,cs),
(772,420,ls),
(759,420,o),
(747,412,o),
(736,399,cs),
(575,193,ls),
(568,184,o),
(564,175,o),
(564,164,cs),
(564,141,o),
(584,122,o),
(606,122,cs),
(758,122,l),
(758,55,ls),
(758,39,o),
(773,23,o),
(790,23,cs)
);
},
{
closed = 1;
nodes = (
(758,339,l),
(758,181,l),
(637,181,l)
);
}
);
userData = {
com.hugojourdan.ColorFlow = {
"0" = 0;
"1" = 0;
"10" = 0;
"11" = 0;
"2" = 0;
"3" = 0;
"4" = 0;
"5" = 0;
"6" = 0;
"7" = 0;
"8" = 0;
"9" = 0;
};
};
width = 1000;
}
);
note = onequarter;
unicode = 188;
}
{
glyphname = onehalf;
layers = (
{
layerId = "162F4A02-D1DE-460C-9ADC-EEB0D0B313BF";
shapes = (
{
closed = 1;
nodes = (
(295,5,o),
(304,9,o),
(310,18,cs),
(715,685,l),
(717,692,o),
(719,698,o),
(719,703,cs),
(719,723,o),
(704,737,o),
(685,737,cs),
(673,737,o),
(663,732,o),
(657,723,cs),
(253,56,ls),
(250,50,o),
(248,44,o),
(248,39,cs),
(248,18,o),
(263,5,o),
(282,5,cs)
);
},
{
closed = 1;
nodes = (
(304,331,ls),
(321,331,o),
(335,342,o),
(335,360,cs),
(335,377,o),
(321,390,o),
(304,390,cs),
(257,390,l),
(257,678,ls),
(257,702,o),
(239,721,o),
(214,721,cs),
(207,721,o),
(201,719,o),
(194,717,c),
(124,680,l),
(111,675,o),
(104,663,o),
(104,652,cs),
(104,634,o),
(119,622,o),
(134,622,cs),
(137,622,o),
(142,623,o),
(149,626,cs),
(192,646,l),
(192,390,l),
(134,390,ls),
(117,390,o),
(105,377,o),
(105,360,cs),
(105,342,o),
(118,331,o),
(134,331,cs)
);
},
{
closed = 1;
nodes = (
(867,28,ls),
(883,28,o),
(897,40,o),
(897,57,cs),
(897,74,o),
(883,88,o),
(867,88,cs),
(683,88,l),
(695,102,o),
(717,117,o),
(756,142,cs),
(813,180,o),
(846,203,o),
(874,242,cs),
(886,260,o),
(893,282,o),
(893,304,cs),
(893,371,o),
(837,420,o),
(762,420,cs),
(715,420,o),
(672,409,o),
(635,387,cs),
(626,382,o),
(621,373,o),
(621,362,cs),
(621,344,o),
(633,334,o),
(649,334,cs),
(653,334,o),
(658,335,o),
(662,337,cs),
(688,351,o),
(717,358,o),
(755,358,cs),
(803,358,o),
(830,337,o),
(830,300,cs),
(830,285,o),
(823,270,o),
(807,258,cs),
(792,244,o),
(767,226,o),
(735,206,cs),
(656,155,o),
(613,123,o),
(613,68,cs),
(613,48,o),
(630,28,o),
(652,28,cs)
);
}
);
userData = {
com.hugojourdan.ColorFlow = {
"0" = 0;
"1" = 0;
"10" = 0;
"11" = 0;
"2" = 0;
"3" = 0;
"4" = 0;
"5" = 0;
"6" = 0;
"7" = 0;
"8" = 0;
"9" = 0;
};
};
width = 1000;
}
);
note = onehalf;
unicode = 189;
}
{
glyphname = threequarters;
layers = (
{
layerId = "162F4A02-D1DE-460C-9ADC-EEB0D0B313BF";
shapes = (
{
closed = 1;
nodes = (
(325,5,o),
(334,9,o),
(340,18,cs),
(745,685,l),
(747,692,o),
(749,698,o),
(749,703,cs),
(749,723,o),
(734,737,o),
(715,737,cs),
(703,737,o),
(693,732,o),
(687,723,cs),
(283,56,ls),
(280,50,o),
(278,44,o),
(278,39,cs),
(278,18,o),
(293,5,o),
(312,5,cs)
);
},
{
closed = 1;
nodes = (
(329,325,o),
(374,373,o),
(374,435,cs),
(374,481,o),
(349,515,o),
(302,530,c),
(335,544,o),
(361,572,o),
(361,618,cs),
(361,684,o),
(312,722,o),
(227,722,cs),
(190,722,o),
(153,712,o),
(118,693,cs),
(105,686,o),
(98,678,o),
(98,667,cs),
(98,651,o),
(111,639,o),
(126,639,cs),
(130,639,o),
(135,640,o),
(139,642,cs),
(164,655,o),
(192,661,o),
(223,661,cs),
(265,661,o),
(298,647,o),
(298,613,cs),
(298,574,o),
(258,557,o),
(197,557,cs),
(192,557,ls),
(175,557,o),
(162,544,o),
(162,527,cs),
(162,510,o),
(175,497,o),
(192,497,cs),
(203,497,ls),
(276,497,o),
(311,476,o),
(311,437,cs),
(311,406,o),
(280,387,o),
(222,387,cs),
(190,387,o),
(168,393,o),
(133,404,c),
(132,404,o),
(131,405,o),
(129,405,cs),
(126,405,o),
(124,406,o),
(122,406,cs),
(108,406,o),
(93,393,o),
(93,377,cs),
(93,365,o),
(101,354,o),
(111,349,cs),
(140,333,o),
(180,325,o),
(231,325,cs)
);
},
{
closed = 1;
nodes = (
(829,23,o),
(842,39,o),
(842,55,cs),
(842,122,l),
(876,122,ls),
(893,122,o),
(907,133,o),
(907,151,cs),
(907,168,o),
(893,181,o),
(876,181,cs),
(842,181,l),
(842,378,ls),
(842,400,o),
(825,420,o),
(800,420,cs),
(792,420,ls),
(779,420,o),
(767,412,o),
(756,399,cs),
(595,193,ls),
(588,184,o),
(584,175,o),
(584,164,cs),
(584,141,o),
(604,122,o),
(626,122,cs),
(778,122,l),
(778,55,ls),
(778,39,o),
(793,23,o),
(810,23,cs)
);
},
{
closed = 1;
nodes = (
(778,339,l),
(778,181,l),
(657,181,l)
);
}
);
userData = {
com.hugojourdan.ColorFlow = {
"0" = 0;
"1" = 0;
"10" = 0;
"11" = 0;
"2" = 0;
"3" = 0;
"4" = 0;
"5" = 0;
"6" = 0;
"7" = 0;
"8" = 0;
"9" = 0;
};
};
width = 1000;
}
);
note = threequarters;
unicode = 190;
}
{
glyphname = questiondown;
kernRight = questiondown;
layers = (
{
layerId = "162F4A02-D1DE-460C-9ADC-EEB0D0B313BF";
shapes = (
{
closed = 1;
nodes = (
(325,-165,o),
(377,-153,o),
(432,-118,cs),
(447,-109,o),
(456,-96,o),
(456,-80,cs),
(456,-60,o),
(438,-40,o),
(416,-40,cs),
(407,-40,o),
(399,-43,o),
(391,-48,cs),
(357,-69,o),
(313,-80,o),
(267,-80,cs),
(173,-80,o),
(128,-45,o),
(128,25,cs),
(128,61,o),
(150,85,o),
(200,124,cs),
(247,162,o),
(272,185,o),
(293,230,cs),
(304,253,o),
(309,278,o),
(309,307,cs),
(309,330,o),
(288,346,o),
(265,346,cs),
(241,346,o),
(221,329,o),
(221,307,cs),
(221,256,o),
(192,226,o),
(137,182,cs),
(94,148,o),
(70,127,o),
(52,88,cs),
(42,67,o),
(38,45,o),
(38,20,cs),
(38,-93,o),
(125,-165,o),
(259,-165,cs)
);
},
{
closed = 1;
nodes = (
(298,414,o),
(325,441,o),
(325,472,cs),
(325,505,o),
(298,532,o),
(267,532,cs),
(234,532,o),
(207,505,o),
(207,472,cs),
(207,441,o),
(234,414,o),
(267,414,cs)
);
}
);
userData = {
com.hugojourdan.ColorFlow = {
"0" = 0;
"1" = 0;
"10" = 0;
"11" = 0;
"2" = 0;
"3" = 0;
"4" = 0;
"5" = 0;
"6" = 0;
"7" = 0;
"8" = 0;
"9" = 0;
};
};
width = 477;
}
);
note = questiondown;
unicode = 191;
}
{
glyphname = Agrave;
kernLeft = A;
kernRight = A;
layers = (
{
anchors = (
{
name = bottom;
pos = (362,29);
},
{
name = odot;
pos = (566,724);
},
{
name = ogonek;
pos = (636,68);
},
{
name = top;
pos = (363,886);
}
);
layerId = "162F4A02-D1DE-460C-9ADC-EEB0D0B313BF";
shapes = (
{
closed = 1;
nodes = (
(112,23,o),
(128,34,o),
(136,51,cs),
(199,203,l),
(529,203,l),
(593,51,ls),
(601,34,o),
(616,23,o),
(636,23,cs),
(662,23,o),
(681,44,o),
(681,68,cs),
(681,73,o),
(679,80,o),
(676,88,cs),
(427,675,ls),
(416,700,o),
(396,717,o),
(369,717,cs),
(359,717,ls),
(332,717,o),
(313,700,o),
(302,675,cs),
(53,88,ls),
(50,80,o),
(48,73,o),
(48,68,cs),
(48,44,o),
(66,23,o),
(93,23,cs)
);
},
{
closed = 1;
nodes = (
(356,582,ls),
(359,591,o),
(368,592,o),
(372,582,cs),
(495,286,l),
(233,286,l)
);
},
{
closed = 1;
nodes = (
(381,750,o),
(392,761,o),
(392,777,cs),
(392,784,o),
(389,790,o),
(385,797,cs),
(335,883,ls),
(328,897,o),
(316,903,o),
(302,903,cs),
(279,903,o),
(265,889,o),
(265,866,cs),
(265,857,o),
(268,847,o),
(274,841,cs),
(342,760,ls),
(348,754,o),
(355,750,o),
(364,750,cs)
);
}
);
userData = {
com.hugojourdan.ColorFlow = {
"0" = 0;
"1" = 0;
"10" = 0;
"11" = 0;
"2" = 0;
"3" = 0;
"4" = 0;
"5" = 0;
"6" = 0;
"7" = 0;
"8" = 0;
"9" = 0;
};
};
width = 729;
}
);
note = Agrave;
unicode = 192;
}
{
glyphname = Atilde;
kernLeft = A;
kernRight = A;
layers = (
{
anchors = (
{
name = odot;
pos = (565,724);
},
{
name = ogonek;
pos = (636,68);
},
{
name = top;
pos = (363,886);
}
);
layerId = "162F4A02-D1DE-460C-9ADC-EEB0D0B313BF";
shapes = (
{
closed = 1;
nodes = (
(112,23,o),
(128,34,o),
(136,51,cs),
(199,203,l),
(529,203,l),
(593,51,ls),
(601,34,o),
(616,23,o),
(636,23,cs),
(662,23,o),
(681,44,o),
(681,68,cs),
(681,73,o),
(679,80,o),
(676,88,cs),
(427,675,ls),
(416,700,o),
(396,717,o),
(369,717,cs),
(359,717,ls),
(332,717,o),
(313,700,o),
(302,675,cs),
(53,88,ls),
(50,80,o),
(48,73,o),
(48,68,cs),
(48,44,o),
(66,23,o),
(93,23,cs)
);
},
{
closed = 1;
nodes = (
(356,582,ls),
(359,591,o),
(368,592,o),
(372,582,cs),
(495,286,l),
(233,286,l)
);
},
{
closed = 1;
nodes = (
(241,754,o),
(249,760,o),
(253,772,cs),
(262,793,o),
(274,802,o),
(290,802,cs),
(313,802,o),
(330,795,o),
(360,780,cs),
(395,764,o),
(414,756,o),
(440,756,cs),
(488,756,o),
(523,803,o),
(523,849,cs),
(522,862,o),
(513,872,o),
(500,872,cs),
(488,872,o),
(479,864,o),
(475,850,c),
(467,832,o),
(456,825,o),
(439,825,cs),
(416,825,o),
(397,833,o),
(367,847,cs),
(335,863,o),
(315,871,o),
(289,871,cs),
(241,871,o),
(206,820,o),
(206,777,cs),
(206,763,o),
(218,754,o),
(229,754,cs)
);
}
);
userData = {
com.hugojourdan.ColorFlow = {
"0" = 0;
"1" = 0;
"10" = 0;
"11" = 0;
"2" = 0;
"3" = 0;
"4" = 0;
"5" = 0;
"6" = 0;
"7" = 0;
"8" = 0;
"9" = 0;
};
};
width = 729;
}
);
note = Atilde;
unicode = 195;
}
{
glyphname = Adieresis;
kernLeft = A;
kernRight = A;
layers = (
{
anchors = (
{
name = bottom;
pos = (362,29);
},
{
name = odot;
pos = (566,724);
},
{
name = ogonek;
pos = (636,68);
},
{
name = top;
pos = (363,886);
}
);
layerId = "162F4A02-D1DE-460C-9ADC-EEB0D0B313BF";
shapes = (
{
closed = 1;
nodes = (
(112,23,o),
(128,34,o),
(136,51,cs),
(199,203,l),
(529,203,l),
(593,51,ls),
(601,34,o),
(616,23,o),
(636,23,cs),
(662,23,o),
(681,44,o),
(681,68,cs),
(681,73,o),
(679,80,o),
(676,88,cs),
(427,675,ls),
(416,700,o),
(396,717,o),
(369,717,cs),
(359,717,ls),
(332,717,o),
(313,700,o),
(302,675,cs),
(53,88,ls),
(50,80,o),
(48,73,o),
(48,68,cs),
(48,44,o),
(66,23,o),
(93,23,cs)
);
},
{
closed = 1;
nodes = (
(356,582,ls),
(359,591,o),
(368,592,o),
(372,582,cs),
(495,286,l),
(233,286,l)
);
},
{
closed = 1;
nodes = (
(310,758,o),
(333,781,o),
(333,808,cs),
(333,836,o),
(310,859,o),
(282,859,cs),
(255,859,o),
(231,836,o),
(231,808,cs),
(231,781,o),
(255,758,o),
(282,758,cs)
);
},
{
closed = 1;
nodes = (
(474,758,o),
(497,781,o),
(497,808,cs),
(497,836,o),
(474,859,o),
(446,859,cs),
(419,859,o),
(396,836,o),
(396,808,cs),
(396,781,o),
(419,758,o),
(446,758,cs)
);
}
);
userData = {
com.hugojourdan.ColorFlow = {
"0" = 0;
"1" = 0;
"10" = 0;
"11" = 0;
"2" = 0;
"3" = 0;
"4" = 0;
"5" = 0;
"6" = 0;
"7" = 0;
"8" = 0;
"9" = 0;
};
};
width = 729;
}
);
note = Adieresis;
unicode = 196;
}
{
glyphname = AE;
kernLeft = AE;
kernRight = AE;
layers = (
{
anchors = (
{
name = top;
pos = (524,747);
}
);
layerId = "162F4A02-D1DE-460C-9ADC-EEB0D0B313BF";
shapes = (
{
closed = 1;
nodes = (
(63,23,o),
(77,33,o),
(88,49,cs),
(187,203,l),
(486,203,l),
(486,73,ls),
(486,49,o),
(507,28,o),
(531,28,cs),
(923,28,ls),
(946,28,o),
(966,46,o),
(966,70,cs),
(966,93,o),
(946,113,o),
(923,113,cs),
(589,113,ls),
(581,113,o),
(577,117,o),
(577,125,cs),
(577,328,l),
(888,328,ls),
(911,328,o),
(931,345,o),
(931,370,cs),
(931,393,o),
(911,413,o),
(888,413,cs),
(577,413,l),
(577,615,ls),
(577,623,o),
(581,627,o),
(589,627,cs),
(923,627,ls),
(946,627,o),
(966,644,o),
(966,669,cs),
(966,692,o),
(946,712,o),
(923,712,cs),
(446,712,ls),
(428,712,o),
(412,702,o),
(400,687,c),
(11,96,ls),
(5,87,o),
(1,78,o),
(1,68,cs),
(1,43,o),
(22,23,o),
(47,23,cs)
);
},
{
closed = 1;
nodes = (
(458,619,ls),
(461,624,o),
(465,627,o),
(473,627,cs),
(486,627,l),
(486,286,l),
(241,286,l)
);
}
);
userData = {
com.hugojourdan.ColorFlow = {
"0" = 0;
"1" = 0;
"10" = 0;
"11" = 0;
"2" = 0;
"3" = 0;
"4" = 0;
"5" = 0;
"6" = 0;
"7" = 0;
"8" = 0;
"9" = 0;
};
};
width = 1016;
}
);
note = AE;
unicode = 198;
}
{
glyphname = Ccedilla;
kernLeft = C;
kernRight = C;
layers = (
{
anchors = (
{
name = top;
pos = (395,720);
}
);
layerId = "162F4A02-D1DE-460C-9ADC-EEB0D0B313BF";
shapes = (
{
closed = 1;
nodes = (
(444,-188,o),
(482,-157,o),
(482,-97,cs),
(482,-56,o),
(450,-28,o),
(406,-28,cs),
(396,-28,o),
(385,-29,o),
(375,-31,c),
(403,18,l),
(488,19,o),
(552,41,o),
(618,79,cs),
(634,87,o),
(641,100,o),
(641,117,cs),
(641,137,o),
(624,155,o),
(601,155,cs),
(594,155,o),
(588,154,o),
(583,151,cs),
(525,121,o),
(476,105,o),
(404,105,cs),
(296,105,o),
(214,152,o),
(174,234,cs),
(153,273,o),
(144,318,o),
(144,370,cs),
(144,474,o),
(186,555,o),
(263,600,cs),
(301,623,o),
(349,634,o),
(404,634,cs),
(476,634,o),
(525,619,o),
(583,589,cs),
(588,586,o),
(594,585,o),
(601,585,cs),
(624,585,o),
(641,603,o),
(641,623,cs),
(641,639,o),
(634,653,o),
(618,661,cs),
(549,700,o),
(484,721,o),
(396,721,cs),
(265,721,o),
(156,662,o),
(98,556,cs),
(67,503,o),
(53,441,o),
(53,370,cs),
(53,240,o),
(105,133,o),
(202,72,cs),
(249,42,o),
(301,24,o),
(359,19,c),
(313,-53,l),
(311,-58,o),
(310,-63,o),
(310,-68,cs),
(310,-77,o),
(319,-84,o),
(328,-84,cs),
(331,-84,o),
(334,-83,o),
(338,-81,cs),
(353,-75,o),
(366,-71,o),
(381,-71,cs),
(402,-71,o),
(415,-82,o),
(415,-100,cs),
(415,-129,o),
(397,-144,o),
(360,-144,cs),
(342,-144,o),
(323,-138,o),
(303,-127,cs),
(299,-125,o),
(296,-124,o),
(293,-124,cs),
(281,-124,o),
(273,-133,o),
(273,-145,cs),
(273,-151,o),
(276,-156,o),
(284,-162,c),
(313,-179,o),
(342,-188,o),
(373,-188,cs)
);
}
);
userData = {
com.hugojourdan.ColorFlow = {
"0" = 0;
"1" = 0;
"10" = 0;
"11" = 0;
"2" = 0;
"3" = 0;
"4" = 0;
"5" = 0;
"6" = 0;
"7" = 0;
"8" = 0;
"9" = 0;
};
};
width = 679;
}
);
note = Ccedilla;
unicode = 199;
}
{
glyphname = Egrave;
kernLeft = B;
kernRight = AE;
layers = (
{
anchors = (
{
name = odot;
pos = (585,804);
},
{
name = top;
pos = (334,886);
}
);
layerId = "162F4A02-D1DE-460C-9ADC-EEB0D0B313BF";
shapes = (
{
closed = 1;
nodes = (
(530,28,ls),
(554,28,o),
(573,46,o),
(573,70,cs),
(573,93,o),
(554,113,o),
(530,113,cs),
(196,113,ls),
(188,113,o),
(185,117,o),
(185,125,cs),
(185,328,l),
(495,328,ls),
(519,328,o),
(538,345,o),
(538,370,cs),
(538,393,o),
(519,413,o),
(495,413,cs),
(185,413,l),
(185,615,ls),
(185,623,o),
(188,627,o),
(196,627,cs),
(530,627,ls),
(554,627,o),
(573,644,o),
(573,669,cs),
(573,692,o),
(554,712,o),
(530,712,cs),
(139,712,ls),
(113,712,o),
(94,690,o),
(94,666,cs),
(94,73,ls),
(94,49,o),
(114,28,o),
(139,28,cs)
);
},
{
closed = 1;
nodes = (
(351,750,o),
(361,761,o),
(361,777,cs),
(361,784,o),
(358,790,o),
(354,797,cs),
(305,883,ls),
(298,897,o),
(286,903,o),
(271,903,cs),
(249,903,o),
(234,889,o),
(234,866,cs),
(234,857,o),
(237,847,o),
(244,841,c),
(312,760,ls),
(317,754,o),
(325,750,o),
(334,750,cs)
);
}
);
userData = {
com.hugojourdan.ColorFlow = {
"0" = 0;
"1" = 0;
"10" = 0;
"11" = 0;
"2" = 0;
"3" = 0;
"4" = 0;
"5" = 0;
"6" = 0;
"7" = 0;
"8" = 0;
"9" = 0;
};
};
width = 623;
}
);
note = Egrave;
unicode = 200;
}
{
glyphname = Eacute;
kernLeft = B;
kernRight = AE;
layers = (
{
anchors = (
{
name = odot;
pos = (585,804);
},
{
name = top;
pos = (334,886);
}
);
layerId = "162F4A02-D1DE-460C-9ADC-EEB0D0B313BF";
shapes = (
{
closed = 1;
nodes = (
(530,28,ls),
(554,28,o),
(573,46,o),
(573,70,cs),
(573,93,o),
(554,113,o),
(530,113,cs),
(196,113,ls),
(188,113,o),
(185,117,o),
(185,125,cs),
(185,328,l),
(495,328,ls),
(519,328,o),
(538,345,o),
(538,370,cs),
(538,393,o),
(519,413,o),
(495,413,cs),
(185,413,l),
(185,615,ls),
(185,623,o),
(188,627,o),
(196,627,cs),
(530,627,ls),
(554,627,o),
(573,644,o),
(573,669,cs),
(573,692,o),
(554,712,o),
(530,712,cs),
(139,712,ls),
(113,712,o),
(94,690,o),
(94,666,cs),
(94,73,ls),
(94,49,o),
(114,28,o),
(139,28,cs)
);
},
{
closed = 1;
nodes = (
(343,750,o),
(351,754,o),
(356,760,cs),
(424,841,l),
(431,847,o),
(434,857,o),
(434,866,cs),
(434,888,o),
(417,903,o),
(396,903,cs),
(382,903,o),
(370,897,o),
(363,883,cs),
(313,797,l),
(310,790,o),
(307,784,o),
(307,777,cs),
(307,760,o),
(318,750,o),
(334,750,cs)
);
}
);
userData = {
com.hugojourdan.ColorFlow = {
"0" = 0;
"1" = 0;
"10" = 0;
"11" = 0;
"2" = 0;
"3" = 0;
"4" = 0;
"5" = 0;
"6" = 0;
"7" = 0;
"8" = 0;
"9" = 0;
};
};
width = 623;
}
);
note = Eacute;
unicode = 201;
}
{
glyphname = Edieresis;
kernLeft = B;
kernRight = AE;
layers = (
{
anchors = (
{
name = odot;
pos = (585,804);
},
{
name = top;
pos = (334,886);
}
);
layerId = "162F4A02-D1DE-460C-9ADC-EEB0D0B313BF";
shapes = (
{
closed = 1;
nodes = (
(530,28,ls),
(554,28,o),
(573,46,o),
(573,70,cs),
(573,93,o),
(554,113,o),
(530,113,cs),
(196,113,ls),
(188,113,o),
(185,117,o),
(185,125,cs),
(185,328,l),
(495,328,ls),
(519,328,o),
(538,345,o),
(538,370,cs),
(538,393,o),
(519,413,o),
(495,413,cs),
(185,413,l),
(185,615,ls),
(185,623,o),
(188,627,o),
(196,627,cs),
(530,627,ls),
(554,627,o),
(573,644,o),
(573,669,cs),
(573,692,o),
(554,712,o),
(530,712,cs),
(139,712,ls),
(113,712,o),
(94,690,o),
(94,666,cs),
(94,73,ls),
(94,49,o),
(114,28,o),
(139,28,cs)
);
},
{
closed = 1;
nodes = (
(279,758,o),
(303,781,o),
(303,808,cs),
(303,836,o),
(279,859,o),
(252,859,cs),
(225,859,o),
(201,836,o),
(201,808,cs),
(201,781,o),
(225,758,o),
(252,758,cs)
);
},
{
closed = 1;
nodes = (
(443,758,o),
(467,781,o),
(467,808,cs),
(467,836,o),
(443,859,o),
(416,859,cs),
(389,859,o),
(365,836,o),
(365,808,cs),
(365,781,o),
(389,758,o),
(416,758,cs)
);
}
);
userData = {
com.hugojourdan.ColorFlow = {
"0" = 0;
"1" = 0;
"10" = 0;
"11" = 0;
"2" = 0;
"3" = 0;
"4" = 0;
"5" = 0;
"6" = 0;
"7" = 0;
"8" = 0;
"9" = 0;
};
};
width = 623;
}
);
note = Edieresis;
unicode = 203;
}
{
glyphname = Igrave;
kernLeft = B;
kernRight = H;
layers = (
{
anchors = (
{
name = odot;
pos = (275,721);
},
{
name = top;
pos = (140,886);
}
);
layerId = "162F4A02-D1DE-460C-9ADC-EEB0D0B313BF";
shapes = (
{
closed = 1;
nodes = (
(163,23,o),
(185,43,o),
(185,68,cs),
(185,671,ls),
(185,695,o),
(163,717,o),
(139,717,cs),
(113,717,o),
(94,695,o),
(94,671,cs),
(94,68,ls),
(94,44,o),
(114,23,o),
(139,23,cs)
);
},
{
closed = 1;
nodes = (
(156,750,o),
(167,761,o),
(167,777,cs),
(167,784,o),
(164,790,o),
(160,797,cs),
(110,883,l),
(104,897,o),
(92,903,o),
(77,903,cs),
(55,903,o),
(40,889,o),
(40,866,cs),
(40,857,o),
(43,847,o),
(50,841,c),
(117,760,l),
(123,754,o),
(131,750,o),
(140,750,cs)
);
}
);
userData = {
com.hugojourdan.ColorFlow = {
"0" = 0;
"1" = 0;
"10" = 0;
"11" = 0;
"2" = 0;
"3" = 0;
"4" = 0;
"5" = 0;
"6" = 0;
"7" = 0;
"8" = 0;
"9" = 0;
};
};
width = 278;
}
);
note = Igrave;
unicode = 204;
}
{
glyphname = Iacute;
kernLeft = B;
kernRight = H;
layers = (
{
anchors = (
{
name = odot;
pos = (275,721);
},
{
name = top;
pos = (140,886);
}
);
layerId = "162F4A02-D1DE-460C-9ADC-EEB0D0B313BF";
shapes = (
{
closed = 1;
nodes = (
(163,23,o),
(185,43,o),
(185,68,cs),
(185,671,ls),
(185,695,o),
(163,717,o),
(139,717,cs),
(113,717,o),
(94,695,o),
(94,671,cs),
(94,68,ls),
(94,44,o),
(114,23,o),
(139,23,cs)
);
},
{
closed = 1;
nodes = (
(148,750,o),
(156,754,o),
(162,760,c),
(229,841,l),
(236,847,o),
(239,857,o),
(239,866,cs),
(239,888,o),
(223,903,o),
(202,903,cs),
(188,903,o),
(176,897,o),
(169,883,cs),
(119,797,ls),
(115,790,o),
(112,784,o),
(112,777,cs),
(112,760,o),
(124,750,o),
(140,750,cs)
);
}
);
userData = {
com.hugojourdan.ColorFlow = {
"0" = 0;
"1" = 0;
"10" = 0;
"11" = 0;
"2" = 0;
"3" = 0;
"4" = 0;
"5" = 0;
"6" = 0;
"7" = 0;
"8" = 0;
"9" = 0;
};
};
width = 278;
}
);
note = Iacute;
unicode = 205;
}
{
glyphname = Icircumflex;
kernLeft = B;
kernRight = H;
layers = (
{
anchors = (
{
name = odot;
pos = (275,672);
},
{
name = top;
pos = (140,886);
}
);
layerId = "162F4A02-D1DE-460C-9ADC-EEB0D0B313BF";
shapes = (
{
closed = 1;
nodes = (
(163,23,o),
(185,43,o),
(185,68,cs),
(185,671,ls),
(185,695,o),
(163,717,o),
(139,717,cs),
(113,717,o),
(94,695,o),
(94,671,cs),
(94,68,ls),
(94,44,o),
(114,23,o),
(139,23,cs)
);
},
{
closed = 1;
nodes = (
(44,749,o),
(50,751,o),
(56,756,cs),
(132,820,ls),
(137,825,o),
(143,825,o),
(147,820,c),
(224,756,ls),
(229,751,o),
(235,749,o),
(242,749,cs),
(259,749,o),
(273,764,o),
(272,779,cs),
(272,787,o),
(269,794,o),
(265,799,cs),
(198,867,ls),
(186,881,o),
(174,886,o),
(158,886,cs),
(121,886,ls),
(105,886,o),
(94,881,o),
(81,867,cs),
(15,799,ls),
(11,794,o),
(7,787,o),
(7,779,cs),
(6,764,o),
(21,749,o),
(37,749,cs)
);
}
);
userData = {
com.hugojourdan.ColorFlow = {
"0" = 0;
"1" = 0;
"10" = 0;
"11" = 0;
"2" = 0;
"3" = 0;
"4" = 0;
"5" = 0;
"6" = 0;
"7" = 0;
"8" = 0;
"9" = 0;
};
};
width = 278;
}
);
note = Icircumflex;
unicode = 206;
}
{
glyphname = Idieresis;
kernLeft = B;
kernRight = H;
layers = (
{
anchors = (
{
name = odot;
pos = (275,672);
},
{
name = top;
pos = (140,886);
}
);
layerId = "162F4A02-D1DE-460C-9ADC-EEB0D0B313BF";
shapes = (
{
closed = 1;
nodes = (
(163,23,o),
(185,43,o),
(185,68,cs),
(185,671,ls),
(185,695,o),
(163,717,o),
(139,717,cs),
(113,717,o),
(94,695,o),
(94,671,cs),
(94,68,ls),
(94,44,o),
(114,23,o),
(139,23,cs)
);
},
{
closed = 1;
nodes = (
(85,758,o),
(108,781,o),
(108,808,cs),
(108,836,o),
(85,859,o),
(58,859,cs),
(30,859,o),
(7,836,o),
(7,808,cs),
(7,781,o),
(30,758,o),
(58,758,cs)
);
},
{
closed = 1;
nodes = (
(249,758,o),
(272,781,o),
(272,808,cs),
(272,836,o),
(249,859,o),
(222,859,cs),
(194,859,o),
(171,836,o),
(171,808,cs),
(171,781,o),
(194,758,o),
(222,758,cs)
);
}
);
userData = {
com.hugojourdan.ColorFlow = {
"0" = 0;
"1" = 0;
"10" = 0;
"11" = 0;
"2" = 0;
"3" = 0;
"4" = 0;
"5" = 0;
"6" = 0;
"7" = 0;
"8" = 0;
"9" = 0;
};
};
width = 278;
}
);
note = Idieresis;
unicode = 207;
}
{
glyphname = Eth;
kernLeft = B;
kernRight = D;
layers = (
{
anchors = (
{
name = top;
pos = (361,713);
}
);
layerId = "162F4A02-D1DE-460C-9ADC-EEB0D0B313BF";
shapes = (
{
closed = 1;
nodes = (
(340,28,ls),
(488,28,o),
(595,100,o),
(646,206,cs),
(673,258,o),
(686,312,o),
(686,370,cs),
(686,484,o),
(634,596,o),
(530,663,cs),
(478,695,o),
(413,712,o),
(340,712,cs),
(144,712,ls),
(118,712,o),
(99,690,o),
(99,666,cs),
(99,403,l),
(47,403,ls),
(27,403,o),
(14,387,o),
(14,369,cs),
(14,350,o),
(28,336,o),
(47,336,cs),
(99,336,l),
(99,73,ls),
(99,49,o),
(119,28,o),
(144,28,cs)
);
},
{
closed = 1;
nodes = (
(193,113,o),
(189,117,o),
(189,125,cs),
(189,336,l),
(303,336,ls),
(321,336,o),
(337,349,o),
(337,369,cs),
(337,387,o),
(321,403,o),
(303,403,cs),
(189,403,l),
(189,615,ls),
(189,623,o),
(193,627,o),
(201,627,cs),
(329,627,ls),
(435,627,o),
(519,582,o),
(563,505,cs),
(584,467,o),
(596,422,o),
(596,370,cs),
(596,268,o),
(550,189,o),
(470,146,cs),
(431,125,o),
(384,113,o),
(329,113,cs),
(201,113,ls)
);
}
);
userData = {
com.hugojourdan.ColorFlow = {
"0" = 0;
"1" = 0;
"10" = 0;
"11" = 0;
"2" = 0;
"3" = 0;
"4" = 0;
"5" = 0;
"6" = 0;
"7" = 0;
"8" = 0;
"9" = 0;
};
};
width = 738;
}
);
note = Eth;
unicode = 208;
}
{
glyphname = Ntilde;
kernLeft = B;
kernRight = H;
layers = (
{
anchors = (
{
name = top;
pos = (385,887);
}
);
layerId = "162F4A02-D1DE-460C-9ADC-EEB0D0B313BF";
shapes = (
{
closed = 1;
nodes = (
(163,23,o),
(185,43,o),
(185,68,cs),
(185,569,ls),
(185,580,o),
(192,583,o),
(198,573,cs),
(561,50,ls),
(572,34,o),
(593,23,o),
(613,23,cs),
(625,23,ls),
(660,23,o),
(690,51,o),
(690,88,cs),
(690,671,ls),
(690,695,o),
(669,717,o),
(645,717,cs),
(619,717,o),
(600,695,o),
(600,671,cs),
(600,171,ls),
(600,160,o),
(592,157,o),
(586,167,cs),
(226,687,l),
(211,706,o),
(192,717,o),
(171,717,cs),
(158,717,ls),
(122,717,o),
(94,686,o),
(94,651,cs),
(94,68,ls),
(94,44,o),
(114,23,o),
(139,23,cs)
);
},
{
closed = 1;
nodes = (
(270,754,o),
(277,760,o),
(281,772,cs),
(290,793,o),
(303,802,o),
(318,802,cs),
(341,802,o),
(358,795,o),
(389,780,cs),
(423,764,o),
(442,756,o),
(469,756,cs),
(517,756,o),
(552,803,o),
(552,849,cs),
(551,862,o),
(541,872,o),
(528,872,cs),
(517,872,o),
(508,864,o),
(503,850,cs),
(495,832,o),
(484,825,o),
(468,825,cs),
(444,825,o),
(426,833,o),
(396,847,cs),
(363,863,o),
(344,871,o),
(317,871,cs),
(270,871,o),
(234,820,o),
(234,777,cs),
(234,763,o),
(246,754,o),
(258,754,cs)
);
}
);
userData = {
com.hugojourdan.ColorFlow = {
"0" = 0;
"1" = 0;
"10" = 0;
"11" = 0;
"2" = 0;
"3" = 0;
"4" = 0;
"5" = 0;
"6" = 0;
"7" = 0;
"8" = 0;
"9" = 0;
};
};
width = 784;
}
);
note = Ntilde;
unicode = 209;
}
{
glyphname = Oacute;
kernLeft = C;
kernRight = D;
layers = (
{
anchors = (
{
name = odot;
pos = (727,731);
},
{
name = top;
pos = (398,886);
}
);
layerId = "162F4A02-D1DE-460C-9ADC-EEB0D0B313BF";
shapes = (
{
closed = 1;
nodes = (
(533,18,o),
(640,82,o),
(696,189,cs),
(725,242,o),
(739,302,o),
(740,370,cs),
(737,506,o),
(679,617,o),
(577,676,cs),
(524,707,o),
(465,721,o),
(396,721,cs),
(260,721,o),
(152,658,o),
(97,551,cs),
(68,499,o),
(54,437,o),
(53,370,cs),
(56,233,o),
(113,123,o),
(216,63,cs),
(269,33,o),
(328,18,o),
(396,18,cs)
);
},
{
closed = 1;
nodes = (
(294,103,o),
(215,150,o),
(174,233,cs),
(154,272,o),
(144,318,o),
(144,370,cs),
(144,472,o),
(187,555,o),
(262,601,cs),
(299,625,o),
(344,636,o),
(396,636,cs),
(498,636,o),
(578,589,o),
(619,507,cs),
(639,467,o),
(649,422,o),
(649,370,cs),
(649,266,o),
(606,184,o),
(531,138,cs),
(494,115,o),
(449,103,o),
(396,103,cs)
);
},
{
closed = 1;
nodes = (
(405,750,o),
(413,754,o),
(419,760,c),
(486,841,l),
(493,847,o),
(496,857,o),
(496,866,cs),
(496,888,o),
(479,903,o),
(459,903,cs),
(444,903,o),
(433,897,o),
(426,883,cs),
(376,797,ls),
(372,790,o),
(369,784,o),
(369,777,cs),
(369,760,o),
(381,750,o),
(396,750,cs)
);
}
);
userData = {
com.hugojourdan.ColorFlow = {
"0" = 0;
"1" = 0;
"10" = 0;
"11" = 0;
"2" = 0;
"3" = 0;
"4" = 0;
"5" = 0;
"6" = 0;
"7" = 0;
"8" = 0;
"9" = 0;
};
};
width = 793;
}
);
note = Oacute;
unicode = 211;
}
{
glyphname = Odieresis;
kernLeft = C;
kernRight = D;
layers = (
{
anchors = (
{
name = odot;
pos = (727,731);
},
{
name = top;
pos = (398,886);
}
);
layerId = "162F4A02-D1DE-460C-9ADC-EEB0D0B313BF";
shapes = (
{
closed = 1;
nodes = (
(533,18,o),
(640,82,o),
(696,189,cs),
(725,242,o),
(739,302,o),
(740,370,cs),
(737,506,o),
(679,617,o),
(577,676,cs),
(524,707,o),
(465,721,o),
(396,721,cs),
(260,721,o),
(152,658,o),
(97,551,cs),
(68,499,o),
(54,437,o),
(53,370,cs),
(56,233,o),
(113,123,o),
(216,63,cs),
(269,33,o),
(328,18,o),
(396,18,cs)
);
},
{
closed = 1;
nodes = (
(294,103,o),
(215,150,o),
(174,233,cs),
(154,272,o),
(144,318,o),
(144,370,cs),
(144,472,o),
(187,555,o),
(262,601,cs),
(299,625,o),
(344,636,o),
(396,636,cs),
(498,636,o),
(578,589,o),
(619,507,cs),
(639,467,o),
(649,422,o),
(649,370,cs),
(649,266,o),
(606,184,o),
(531,138,cs),
(494,115,o),
(449,103,o),
(396,103,cs)
);
},
{
closed = 1;
nodes = (
(342,758,o),
(365,781,o),
(365,808,cs),
(365,836,o),
(342,859,o),
(314,859,cs),
(287,859,o),
(264,836,o),
(264,808,cs),
(264,781,o),
(287,758,o),
(314,758,cs)
);
},
{
closed = 1;
nodes = (
(506,758,o),
(529,781,o),
(529,808,cs),
(529,836,o),
(506,859,o),
(479,859,cs),
(451,859,o),
(428,836,o),
(428,808,cs),
(428,781,o),
(451,758,o),
(479,758,cs)
);
}
);
userData = {
com.hugojourdan.ColorFlow = {
"0" = 0;
"1" = 0;
"10" = 0;
"11" = 0;
"2" = 0;
"3" = 0;
"4" = 0;
"5" = 0;
"6" = 0;
"7" = 0;
"8" = 0;
"9" = 0;
};
};
width = 793;
}
);
note = Odieresis;
unicode = 214;
}
{
glyphname = multiply;
layers = (
{
layerId = "162F4A02-D1DE-460C-9ADC-EEB0D0B313BF";
shapes = (
{
closed = 1;
nodes = (
(105,63,o),
(114,68,o),
(122,75,cs),
(274,228,l),
(427,75,ls),
(435,68,o),
(443,63,o),
(454,63,cs),
(476,63,o),
(492,82,o),
(492,101,cs),
(492,112,o),
(487,121,o),
(480,129,cs),
(327,281,l),
(480,433,ls),
(487,441,o),
(492,450,o),
(492,461,cs),
(492,480,o),
(476,499,o),
(454,499,cs),
(443,499,o),
(435,494,o),
(427,487,cs),
(274,334,l),
(122,487,ls),
(114,494,o),
(105,499,o),
(95,499,cs),
(73,499,o),
(57,480,o),
(57,461,cs),
(57,450,o),
(62,441,o),
(68,433,c),
(222,281,l),
(68,129,l),
(62,121,o),
(57,112,o),
(57,101,cs),
(57,82,o),
(73,63,o),
(95,63,cs)
);
}
);
userData = {
com.hugojourdan.ColorFlow = {
"0" = 0;
"1" = 0;
"10" = 0;
"11" = 0;
"2" = 0;
"3" = 0;
"4" = 0;
"5" = 0;
"6" = 0;
"7" = 0;
"8" = 0;
"9" = 0;
};
};
width = 550;
}
);
note = multiply;
unicode = 215;
}
{
glyphname = Oslash;
kernLeft = C;
kernRight = D;
layers = (
{
anchors = (
{
name = odot;
pos = (727,731);
},
{
name = top;
pos = (398,720);
}
);
layerId = "162F4A02-D1DE-460C-9ADC-EEB0D0B313BF";
shapes = (
{
closed = 1;
nodes = (
(163,-1,o),
(170,2,o),
(176,8,c),
(214,64,l),
(268,33,o),
(329,18,o),
(396,18,cs),
(533,18,o),
(640,82,o),
(696,189,cs),
(725,242,o),
(739,302,o),
(740,370,cs),
(737,484,o),
(695,582,o),
(621,644,c),
(659,698,ls),
(663,705,o),
(665,711,o),
(665,716,cs),
(665,728,o),
(654,740,o),
(640,740,cs),
(631,740,o),
(624,737,o),
(618,730,c),
(580,674,l),
(525,706,o),
(465,721,o),
(396,721,cs),
(260,721,o),
(152,658,o),
(97,551,cs),
(68,499,o),
(54,437,o),
(53,370,cs),
(54,257,o),
(96,157,o),
(173,93,c),
(135,41,l),
(131,34,o),
(129,28,o),
(129,23,cs),
(129,10,o),
(140,-1,o),
(154,-1,cs)
);
},
{
closed = 1;
nodes = (
(172,214,o),
(144,286,o),
(144,370,cs),
(144,472,o),
(187,555,o),
(262,601,cs),
(299,625,o),
(344,636,o),
(396,636,cs),
(446,636,o),
(490,625,o),
(529,603,c),
(224,167,l)
);
},
{
closed = 1;
nodes = (
(345,103,o),
(301,114,o),
(264,135,c),
(570,572,l),
(620,526,o),
(649,453,o),
(649,370,cs),
(649,266,o),
(606,184,o),
(531,138,cs),
(494,115,o),
(449,103,o),
(396,103,cs)
);
}
);
userData = {
com.hugojourdan.ColorFlow = {
"0" = 0;
"1" = 0;
"10" = 0;
"11" = 0;
"2" = 0;
"3" = 0;
"4" = 0;
"5" = 0;
"6" = 0;
"7" = 0;
"8" = 0;
"9" = 0;
};
};
width = 793;
}
);
note = Oslash;
unicode = 216;
}
{
glyphname = Uacute;
kernLeft = U;
kernRight = U;
layers = (
{
anchors = (
{
name = odot;
pos = (724,769);
},
{
name = top;
pos = (370,886);
}
);
layerId = "162F4A02-D1DE-460C-9ADC-EEB0D0B313BF";
shapes = (
{
closed = 1;
nodes = (
(463,18,o),
(556,57,o),
(610,137,cs),
(638,178,o),
(651,228,o),
(651,285,cs),
(651,671,ls),
(651,695,o),
(630,717,o),
(605,717,cs),
(580,717,o),
(561,695,o),
(561,671,cs),
(561,282,ls),
(561,208,o),
(525,150,o),
(464,122,cs),
(435,108,o),
(404,101,o),
(370,101,cs),
(304,101,o),
(242,129,o),
(207,183,cs),
(189,209,o),
(180,242,o),
(180,282,cs),
(180,671,ls),
(180,695,o),
(158,717,o),
(134,717,cs),
(108,717,o),
(89,695,o),
(89,671,cs),
(89,285,ls),
(89,169,o),
(149,87,o),
(236,48,cs),
(278,28,o),
(323,18,o),
(370,18,cs)
);
},
{
closed = 1;
nodes = (
(379,750,o),
(387,754,o),
(393,760,c),
(460,841,l),
(467,847,o),
(470,857,o),
(470,866,cs),
(470,888,o),
(453,903,o),
(433,903,cs),
(418,903,o),
(406,897,o),
(399,883,cs),
(350,797,ls),
(346,790,o),
(343,784,o),
(343,777,cs),
(343,760,o),
(354,750,o),
(370,750,cs)
);
}
);
userData = {
com.hugojourdan.ColorFlow = {
"0" = 0;
"1" = 0;
"10" = 0;
"11" = 0;
"2" = 0;
"3" = 0;
"4" = 0;
"5" = 0;
"6" = 0;
"7" = 0;
"8" = 0;
"9" = 0;
};
};
width = 740;
}
);
note = Uacute;
unicode = 218;
}
{
glyphname = Ucircumflex;
kernLeft = U;
kernRight = U;
layers = (
{
anchors = (
{
name = odot;
pos = (724,769);
},
{
name = top;
pos = (370,886);
}
);
layerId = "162F4A02-D1DE-460C-9ADC-EEB0D0B313BF";
shapes = (
{
closed = 1;
nodes = (
(463,18,o),
(556,57,o),
(610,137,cs),
(638,178,o),
(651,228,o),
(651,285,cs),
(651,671,ls),
(651,695,o),
(630,717,o),
(605,717,cs),
(580,717,o),
(561,695,o),
(561,671,cs),
(561,282,ls),
(561,208,o),
(525,150,o),
(464,122,cs),
(435,108,o),
(404,101,o),
(370,101,cs),
(304,101,o),
(242,129,o),
(207,183,cs),
(189,209,o),
(180,242,o),
(180,282,cs),
(180,671,ls),
(180,695,o),
(158,717,o),
(134,717,cs),
(108,717,o),
(89,695,o),
(89,671,cs),
(89,285,ls),
(89,169,o),
(149,87,o),
(236,48,cs),
(278,28,o),
(323,18,o),
(370,18,cs)
);
},
{
closed = 1;
nodes = (
(274,749,o),
(280,751,o),
(286,756,cs),
(362,820,ls),
(367,825,o),
(373,825,o),
(378,820,cs),
(454,756,ls),
(460,751,o),
(466,749,o),
(473,749,cs),
(489,749,o),
(504,764,o),
(503,779,cs),
(503,787,o),
(499,794,o),
(495,799,cs),
(429,867,ls),
(416,881,o),
(404,886,o),
(389,886,cs),
(352,886,ls),
(336,886,o),
(324,881,o),
(312,867,cs),
(245,799,ls),
(241,794,o),
(237,787,o),
(237,779,cs),
(236,764,o),
(251,749,o),
(268,749,cs)
);
}
);
userData = {
com.hugojourdan.ColorFlow = {
"0" = 0;
"1" = 0;
"10" = 0;
"11" = 0;
"2" = 0;
"3" = 0;
"4" = 0;
"5" = 0;
"6" = 0;
"7" = 0;
"8" = 0;
"9" = 0;
};
};
width = 740;
}
);
note = Ucircumflex;
unicode = 219;
}
{
glyphname = Udieresis;
kernLeft = U;
kernRight = U;
layers = (
{
anchors = (
{
name = odot;
pos = (724,769);
},
{
name = top;
pos = (370,886);
}
);
layerId = "162F4A02-D1DE-460C-9ADC-EEB0D0B313BF";
shapes = (
{
closed = 1;
nodes = (
(463,18,o),
(556,57,o),
(610,137,cs),
(638,178,o),
(651,228,o),
(651,285,cs),
(651,671,ls),
(651,695,o),
(630,717,o),
(605,717,cs),
(580,717,o),
(561,695,o),
(561,671,cs),
(561,282,ls),
(561,208,o),
(525,150,o),
(464,122,cs),
(435,108,o),
(404,101,o),
(370,101,cs),
(304,101,o),
(242,129,o),
(207,183,cs),
(189,209,o),
(180,242,o),
(180,282,cs),
(180,671,ls),
(180,695,o),
(158,717,o),
(134,717,cs),
(108,717,o),
(89,695,o),
(89,671,cs),
(89,285,ls),
(89,169,o),
(149,87,o),
(236,48,cs),
(278,28,o),
(323,18,o),
(370,18,cs)
);
},
{
closed = 1;
nodes = (
(315,758,o),
(339,781,o),
(339,808,cs),
(339,836,o),
(315,859,o),
(288,859,cs),
(261,859,o),
(237,836,o),
(237,808,cs),
(237,781,o),
(261,758,o),
(288,758,cs)
);
},
{
closed = 1;
nodes = (
(479,758,o),
(503,781,o),
(503,808,cs),
(503,836,o),
(479,859,o),
(452,859,cs),
(425,859,o),
(401,836,o),
(401,808,cs),
(401,781,o),
(425,758,o),
(452,758,cs)
);
}
);
userData = {
com.hugojourdan.ColorFlow = {
"0" = 0;
"1" = 0;
"10" = 0;
"11" = 0;
"2" = 0;
"3" = 0;
"4" = 0;
"5" = 0;
"6" = 0;
"7" = 0;
"8" = 0;
"9" = 0;
};
};
width = 740;
}
);
note = Udieresis;
unicode = 220;
}
{
glyphname = Yacute;
kernLeft = Y;
kernRight = Y;
layers = (
{
anchors = (
{
name = top;
pos = (312,886);
}
);
layerId = "162F4A02-D1DE-460C-9ADC-EEB0D0B313BF";
shapes = (
{
closed = 1;
nodes = (
(337,23,o),
(357,44,o),
(357,68,cs),
(357,317,l),
(592,643,l),
(597,653,o),
(600,662,o),
(600,671,cs),
(601,695,o),
(580,717,o),
(556,717,cs),
(539,717,o),
(525,709,o),
(516,694,cs),
(313,398,l),
(109,694,l),
(100,709,o),
(86,717,o),
(69,717,cs),
(44,717,o),
(25,695,o),
(25,671,cs),
(25,662,o),
(28,653,o),
(33,643,c),
(267,317,l),
(267,68,ls),
(267,43,o),
(288,23,o),
(313,23,cs)
);
},
{
closed = 1;
nodes = (
(321,750,o),
(329,754,o),
(335,760,c),
(402,841,l),
(409,847,o),
(412,857,o),
(412,866,cs),
(412,888,o),
(396,903,o),
(375,903,cs),
(360,903,o),
(349,897,o),
(342,883,cs),
(292,797,ls),
(288,790,o),
(285,784,o),
(285,777,cs),
(285,760,o),
(297,750,o),
(313,750,cs)
);
}
);
userData = {
com.hugojourdan.ColorFlow = {
"0" = 0;
"1" = 0;
"10" = 0;
"11" = 0;
"2" = 0;
"3" = 0;
"4" = 0;
"5" = 0;
"6" = 0;
"7" = 0;
"8" = 0;
"9" = 0;
};
};
width = 624;
}
);
note = Yacute;
unicode = 221;
}
{
glyphname = Thorn;
kernLeft = B;
kernRight = Thorn;
layers = (
{
layerId = "162F4A02-D1DE-460C-9ADC-EEB0D0B313BF";
shapes = (
{
closed = 1;
nodes = (
(163,23,o),
(185,43,o),
(185,68,cs),
(185,167,l),
(361,167,ls),
(485,167,o),
(563,213,o),
(598,279,cs),
(615,312,o),
(623,347,o),
(623,384,cs),
(623,468,o),
(585,532,o),
(513,571,cs),
(474,592,o),
(423,602,o),
(361,602,cs),
(185,602,l),
(185,671,ls),
(185,695,o),
(163,717,o),
(139,717,cs),
(113,717,o),
(94,695,o),
(94,671,cs),
(94,68,ls),
(94,44,o),
(114,23,o),
(139,23,cs)
);
},
{
closed = 1;
nodes = (
(185,516,l),
(353,516,ls),
(471,516,o),
(532,470,o),
(532,384,cs),
(532,299,o),
(471,253,o),
(353,253,cs),
(185,253,l)
);
}
);
userData = {
com.hugojourdan.ColorFlow = {
"0" = 0;
"1" = 0;
"10" = 0;
"11" = 0;
"2" = 0;
"3" = 0;
"4" = 0;
"5" = 0;
"6" = 0;
"7" = 0;
"8" = 0;
"9" = 0;
};
};
width = 656;
}
);
note = Thorn;
unicode = 222;
}
{
glyphname = germandbls;
kernRight = germandbls;
layers = (
{
layerId = "162F4A02-D1DE-460C-9ADC-EEB0D0B313BF";
shapes = (
{
closed = 1;
nodes = (
(430,18,o),
(489,45,o),
(524,99,cs),
(542,127,o),
(551,160,o),
(551,199,cs),
(551,299,o),
(484,353,o),
(408,373,c),
(478,396,o),
(513,449,o),
(513,529,cs),
(513,612,o),
(467,673,o),
(400,701,cs),
(368,715,o),
(334,721,o),
(298,721,cs),
(165,721,o),
(76,640,o),
(76,504,cs),
(76,69,ls),
(76,45,o),
(97,24,o),
(121,24,cs),
(146,24,o),
(167,44,o),
(167,69,cs),
(167,493,ls),
(167,597,o),
(222,636,o),
(297,636,cs),
(375,636,o),
(422,592,o),
(422,519,cs),
(422,458,o),
(373,413,o),
(293,404,cs),
(271,401,o),
(255,387,o),
(255,367,cs),
(255,343,o),
(270,330,o),
(293,330,cs),
(394,330,o),
(460,281,o),
(460,210,cs),
(460,130,o),
(401,99,o),
(350,99,cs),
(321,99,o),
(297,102,o),
(277,109,cs),
(273,111,o),
(269,112,o),
(263,112,cs),
(240,112,o),
(224,95,o),
(224,73,cs),
(224,54,o),
(235,42,o),
(256,35,cs),
(289,24,o),
(326,18,o),
(364,18,cs)
);
}
);
userData = {
com.hugojourdan.ColorFlow = {
"0" = 0;
"1" = 0;
"10" = 0;
"11" = 0;
"2" = 0;
"3" = 0;
"4" = 0;
"5" = 0;
"6" = 0;
"7" = 0;
"8" = 0;
"9" = 0;
};
};
width = 594;
}
);
note = germandbls;
unicode = 223;
}
{
glyphname = acircumflex;
kernLeft = a;
kernRight = a;
layers = (
{
anchors = (
{
name = bottom;
pos = (272,29);
},
{
name = odot;
pos = (538,551);
},
{
name = ogonek;
pos = (432,49);
},
{
name = top;
pos = (273,713);
}
);
layerId = "162F4A02-D1DE-460C-9ADC-EEB0D0B313BF";
shapes = (
{
closed = 1;
nodes = (
(277,18,o),
(339,42,o),
(387,92,c),
(387,68,ls),
(387,44,o),
(407,23,o),
(432,23,cs),
(456,23,o),
(478,43,o),
(478,68,cs),
(478,344,ls),
(478,412,o),
(449,474,o),
(388,510,cs),
(355,529,o),
(317,538,o),
(272,538,cs),
(215,538,o),
(158,526,o),
(104,503,cs),
(87,496,o),
(77,483,o),
(77,465,cs),
(77,444,o),
(95,426,o),
(114,426,cs),
(117,426,o),
(122,427,o),
(127,428,c),
(174,444,o),
(207,452,o),
(257,452,cs),
(349,452,o),
(387,415,o),
(387,332,cs),
(387,325,l),
(270,325,ls),
(127,325,o),
(44,267,o),
(44,166,cs),
(44,107,o),
(75,59,o),
(125,36,cs),
(149,24,o),
(177,18,o),
(204,18,cs)
);
},
{
closed = 1;
nodes = (
(163,98,o),
(135,129,o),
(135,175,cs),
(135,226,o),
(183,252,o),
(281,252,cs),
(387,252,l),
(387,171,l),
(351,130,o),
(295,98,o),
(237,98,cs)
);
},
{
closed = 1;
nodes = (
(177,581,o),
(183,583,o),
(188,588,cs),
(272,660,l),
(356,588,ls),
(362,583,o),
(368,581,o),
(375,581,cs),
(392,581,o),
(406,596,o),
(405,611,cs),
(405,619,o),
(401,626,o),
(397,631,cs),
(331,699,ls),
(318,713,o),
(307,718,o),
(291,718,cs),
(254,718,ls),
(238,718,o),
(227,713,o),
(214,699,cs),
(147,631,l),
(144,626,o),
(140,619,o),
(140,611,cs),
(139,596,o),
(153,581,o),
(170,581,cs)
);
}
);
userData = {
com.hugojourdan.ColorFlow = {
"0" = 0;
"1" = 0;
"10" = 0;
"11" = 0;
"2" = 0;
"3" = 0;
"4" = 0;
"5" = 0;
"6" = 0;
"7" = 0;
"8" = 0;
"9" = 0;
};
};
width = 549;
}
);
note = acircumflex;
unicode = 226;
}
{
glyphname = egrave;
kernLeft = c;
kernRight = ae;
layers = (
{
anchors = (
{
name = cedilla;
pos = (278,29);
},
{
name = odot;
pos = (538,551);
}
);
layerId = "162F4A02-D1DE-460C-9ADC-EEB0D0B313BF";
shapes = (
{
closed = 1;
nodes = (
(378,18,o),
(420,33,o),
(471,61,cs),
(488,71,o),
(497,83,o),
(497,98,cs),
(497,121,o),
(478,137,o),
(457,137,cs),
(450,137,o),
(444,136,o),
(439,133,cs),
(400,114,o),
(362,103,o),
(308,103,cs),
(208,103,o),
(149,154,o),
(138,246,c),
(468,246,ls),
(495,246,o),
(514,266,o),
(514,291,cs),
(514,382,o),
(475,461,o),
(406,505,cs),
(370,527,o),
(328,538,o),
(280,538,cs),
(178,538,o),
(105,485,o),
(71,406,cs),
(55,366,o),
(46,323,o),
(46,278,cs),
(46,115,o),
(139,18,o),
(300,18,cs)
);
},
{
closed = 1;
nodes = (
(142,380,o),
(170,425,o),
(215,446,cs),
(237,456,o),
(259,461,o),
(280,461,cs),
(324,461,o),
(370,441,o),
(399,398,cs),
(412,381,o),
(420,359,o),
(423,333,cs),
(424,324,o),
(419,320,o),
(411,320,cs),
(138,320,l)
);
},
{
closed = 1;
nodes = (
(295,582,o),
(306,593,o),
(306,609,cs),
(306,616,o),
(303,622,o),
(299,629,cs),
(249,716,ls),
(242,729,o),
(230,735,o),
(216,735,cs),
(193,735,o),
(179,721,o),
(179,698,cs),
(179,689,o),
(182,679,o),
(188,673,cs),
(256,592,ls),
(262,586,o),
(270,582,o),
(278,582,cs)
);
}
);
userData = {
com.hugojourdan.ColorFlow = {
"0" = 0;
"1" = 0;
"10" = 0;
"11" = 0;
"2" = 0;
"3" = 0;
"4" = 0;
"5" = 0;
"6" = 0;
"7" = 0;
"8" = 0;
"9" = 0;
};
};
width = 553;
}
);
note = egrave;
unicode = 232;
}
{
glyphname = eacute;
kernLeft = c;
kernRight = ae;
layers = (
{
anchors = (
{
name = cedilla;
pos = (278,29);
},
{
name = odot;
pos = (538,551);
}
);
layerId = "162F4A02-D1DE-460C-9ADC-EEB0D0B313BF";
shapes = (
{
closed = 1;
nodes = (
(378,18,o),
(420,33,o),
(471,61,cs),
(488,71,o),
(497,83,o),
(497,98,cs),
(497,121,o),
(478,137,o),
(457,137,cs),
(450,137,o),
(444,136,o),
(439,133,cs),
(400,114,o),
(362,103,o),
(308,103,cs),
(208,103,o),
(149,154,o),
(138,246,c),
(468,246,ls),
(495,246,o),
(514,266,o),
(514,291,cs),
(514,382,o),
(475,461,o),
(406,505,cs),
(370,527,o),
(328,538,o),
(280,538,cs),
(178,538,o),
(105,485,o),
(71,406,cs),
(55,366,o),
(46,323,o),
(46,278,cs),
(46,115,o),
(139,18,o),
(300,18,cs)
);
},
{
closed = 1;
nodes = (
(142,380,o),
(170,425,o),
(215,446,cs),
(237,456,o),
(259,461,o),
(280,461,cs),
(324,461,o),
(370,441,o),
(399,398,cs),
(412,381,o),
(420,359,o),
(423,333,cs),
(424,324,o),
(419,320,o),
(411,320,cs),
(138,320,l)
);
},
{
closed = 1;
nodes = (
(287,582,o),
(295,586,o),
(301,592,c),
(368,673,l),
(375,679,o),
(378,689,o),
(378,698,cs),
(378,720,o),
(361,735,o),
(341,735,cs),
(326,735,o),
(314,729,o),
(308,716,c),
(258,629,ls),
(254,622,o),
(251,616,o),
(251,609,cs),
(251,592,o),
(263,582,o),
(278,582,cs)
);
}
);
userData = {
com.hugojourdan.ColorFlow = {
"0" = 0;
"1" = 0;
"10" = 0;
"11" = 0;
"2" = 0;
"3" = 0;
"4" = 0;
"5" = 0;
"6" = 0;
"7" = 0;
"8" = 0;
"9" = 0;
};
};
width = 553;
}
);
note = eacute;
unicode = 233;
}
{
glyphname = ecircumflex;
kernLeft = c;
kernRight = ae;
layers = (
{
anchors = (
{
name = cedilla;
pos = (278,29);
},
{
name = odot;
pos = (538,551);
},
{
name = top;
pos = (278,717);
}
);
layerId = "162F4A02-D1DE-460C-9ADC-EEB0D0B313BF";
shapes = (
{
closed = 1;
nodes = (
(378,18,o),
(420,33,o),
(471,61,cs),
(488,71,o),
(497,83,o),
(497,98,cs),
(497,121,o),
(478,137,o),
(457,137,cs),
(450,137,o),
(444,136,o),
(439,133,cs),
(400,114,o),
(362,103,o),
(308,103,cs),
(208,103,o),
(149,154,o),
(138,246,c),
(468,246,ls),
(495,246,o),
(514,266,o),
(514,291,cs),
(514,382,o),
(475,461,o),
(406,505,cs),
(370,527,o),
(328,538,o),
(280,538,cs),
(178,538,o),
(105,485,o),
(71,406,cs),
(55,366,o),
(46,323,o),
(46,278,cs),
(46,115,o),
(139,18,o),
(300,18,cs)
);
},
{
closed = 1;
nodes = (
(142,380,o),
(170,425,o),
(215,446,cs),
(237,456,o),
(259,461,o),
(280,461,cs),
(324,461,o),
(370,441,o),
(399,398,cs),
(412,381,o),
(420,359,o),
(423,333,cs),
(424,324,o),
(419,320,o),
(411,320,cs),
(138,320,l)
);
},
{
closed = 1;
nodes = (
(183,581,o),
(188,583,o),
(194,588,cs),
(271,652,l),
(275,657,o),
(281,657,o),
(286,652,cs),
(362,588,ls),
(368,583,o),
(374,581,o),
(381,581,cs),
(397,581,o),
(412,596,o),
(411,611,cs),
(411,619,o),
(407,626,o),
(403,631,cs),
(337,699,ls),
(324,713,o),
(313,718,o),
(297,718,cs),
(260,718,ls),
(244,718,o),
(232,713,o),
(220,699,cs),
(153,631,ls),
(149,626,o),
(146,619,o),
(146,611,cs),
(145,596,o),
(159,581,o),
(176,581,cs)
);
}
);
userData = {
com.hugojourdan.ColorFlow = {
"0" = 0;
"1" = 0;
"10" = 0;
"11" = 0;
"2" = 0;
"3" = 0;
"4" = 0;
"5" = 0;
"6" = 0;
"7" = 0;
"8" = 0;
"9" = 0;
};
};
width = 553;
}
);
note = ecircumflex;
unicode = 234;
}
{
glyphname = edieresis;
kernLeft = c;
kernRight = ae;
layers = (
{
anchors = (
{
name = cedilla;
pos = (278,29);
},
{
name = odot;
pos = (538,551);
}
);
layerId = "162F4A02-D1DE-460C-9ADC-EEB0D0B313BF";
shapes = (
{
closed = 1;
nodes = (
(378,18,o),
(420,33,o),
(471,61,cs),
(488,71,o),
(497,83,o),
(497,98,cs),
(497,121,o),
(478,137,o),
(457,137,cs),
(450,137,o),
(444,136,o),
(439,133,cs),
(400,114,o),
(362,103,o),
(308,103,cs),
(208,103,o),
(149,154,o),
(138,246,c),
(468,246,ls),
(495,246,o),
(514,266,o),
(514,291,cs),
(514,382,o),
(475,461,o),
(406,505,cs),
(370,527,o),
(328,538,o),
(280,538,cs),
(178,538,o),
(105,485,o),
(71,406,cs),
(55,366,o),
(46,323,o),
(46,278,cs),
(46,115,o),
(139,18,o),
(300,18,cs)
);
},
{
closed = 1;
nodes = (
(142,380,o),
(170,425,o),
(215,446,cs),
(237,456,o),
(259,461,o),
(280,461,cs),
(324,461,o),
(370,441,o),
(399,398,cs),
(412,381,o),
(420,359,o),
(423,333,cs),
(424,324,o),
(419,320,o),
(411,320,cs),
(138,320,l)
);
},
{
closed = 1;
nodes = (
(224,590,o),
(247,613,o),
(247,640,cs),
(247,668,o),
(224,691,o),
(196,691,cs),
(169,691,o),
(146,668,o),
(146,640,cs),
(146,613,o),
(169,590,o),
(196,590,cs)
);
},
{
closed = 1;
nodes = (
(388,590,o),
(411,613,o),
(411,640,cs),
(411,668,o),
(388,691,o),
(360,691,cs),
(333,691,o),
(310,668,o),
(310,640,cs),
(310,613,o),
(333,590,o),
(360,590,cs)
);
}
);
userData = {
com.hugojourdan.ColorFlow = {
"0" = 0;
"1" = 0;
"10" = 0;
"11" = 0;
"2" = 0;
"3" = 0;
"4" = 0;
"5" = 0;
"6" = 0;
"7" = 0;
"8" = 0;
"9" = 0;
};
};
width = 553;
}
);
note = edieresis;
unicode = 235;
}
{
glyphname = igrave;
kernLeft = i;
kernRight = uni01C8;
layers = (
{
anchors = (
{
name = odot;
pos = (255,493);
}
);
layerId = "162F4A02-D1DE-460C-9ADC-EEB0D0B313BF";
shapes = (
{
closed = 1;
nodes = (
(146,23,o),
(167,43,o),
(167,68,cs),
(167,487,ls),
(167,513,o),
(147,533,o),
(121,533,cs),
(96,533,o),
(76,511,o),
(76,487,cs),
(76,68,ls),
(76,44,o),
(97,23,o),
(121,23,cs)
);
},
{
closed = 1;
nodes = (
(139,582,o),
(149,593,o),
(149,609,cs),
(149,616,o),
(146,622,o),
(143,629,c),
(93,716,ls),
(86,729,o),
(74,735,o),
(60,735,cs),
(37,735,o),
(22,721,o),
(22,698,cs),
(22,689,o),
(25,679,o),
(32,673,c),
(100,592,ls),
(105,586,o),
(113,582,o),
(122,582,cs)
);
}
);
userData = {
com.hugojourdan.ColorFlow = {
"0" = 0;
"1" = 0;
"10" = 0;
"11" = 0;
"2" = 0;
"3" = 0;
"4" = 0;
"5" = 0;
"6" = 0;
"7" = 0;
"8" = 0;
"9" = 0;
};
};
width = 243;
}
);
note = igrave;
unicode = 236;
}
{
glyphname = icircumflex;
kernLeft = ilong;
kernRight = uni01C8;
layers = (
{
anchors = (
{
name = odot;
pos = (255,493);
}
);
layerId = "162F4A02-D1DE-460C-9ADC-EEB0D0B313BF";
shapes = (
{
closed = 1;
nodes = (
(146,23,o),
(167,43,o),
(167,68,cs),
(167,487,ls),
(167,513,o),
(147,533,o),
(121,533,cs),
(96,533,o),
(76,511,o),
(76,487,cs),
(76,68,ls),
(76,44,o),
(97,23,o),
(121,23,cs)
);
},
{
closed = 1;
nodes = (
(26,581,o),
(32,583,o),
(38,588,cs),
(114,652,ls),
(119,657,o),
(125,657,o),
(130,652,cs),
(206,588,ls),
(212,583,o),
(218,581,o),
(225,581,cs),
(241,581,o),
(256,596,o),
(255,611,cs),
(255,619,o),
(251,626,o),
(247,631,cs),
(181,699,ls),
(168,713,o),
(156,718,o),
(141,718,cs),
(104,718,ls),
(88,718,o),
(76,713,o),
(63,699,cs),
(-3,631,ls),
(-7,626,o),
(-11,619,o),
(-11,611,cs),
(-12,596,o),
(3,581,o),
(20,581,cs)
);
}
);
userData = {
com.hugojourdan.ColorFlow = {
"0" = 0;
"1" = 0;
"10" = 0;
"11" = 0;
"2" = 0;
"3" = 0;
"4" = 0;
"5" = 0;
"6" = 0;
"7" = 0;
"8" = 0;
"9" = 0;
};
};
width = 243;
}
);
note = icircumflex;
unicode = 238;
}
{
glyphname = eth;
kernLeft = c;
kernRight = b;
layers = (
{
layerId = "162F4A02-D1DE-460C-9ADC-EEB0D0B313BF";
shapes = (
{
closed = 1;
nodes = (
(455,18,o),
(533,133,o),
(533,297,cs),
(533,437,o),
(459,556,o),
(354,651,c),
(408,682,ls),
(416,687,o),
(420,696,o),
(420,705,cs),
(420,719,o),
(410,730,o),
(395,730,cs),
(390,730,o),
(385,728,o),
(379,725,cs),
(313,685,l),
(282,710,o),
(247,734,o),
(209,758,c),
(202,761,o),
(194,764,o),
(187,764,cs),
(164,764,o),
(145,747,o),
(145,722,cs),
(145,708,o),
(152,692,o),
(165,687,c),
(181,678,o),
(206,664,o),
(237,641,c),
(173,603,ls),
(163,598,o),
(157,591,o),
(157,580,cs),
(157,567,o),
(170,554,o),
(183,554,cs),
(188,554,o),
(192,556,o),
(200,560,cs),
(281,608,l),
(323,573,o),
(356,536,o),
(382,498,c),
(348,515,o),
(312,523,o),
(275,523,cs),
(182,523,o),
(109,473,o),
(73,395,cs),
(55,358,o),
(46,316,o),
(46,271,cs),
(46,173,o),
(87,92,o),
(161,50,cs),
(198,29,o),
(241,18,o),
(289,18,cs)
);
},
{
closed = 1;
nodes = (
(233,98,o),
(185,126,o),
(157,175,cs),
(142,201,o),
(134,235,o),
(134,275,cs),
(134,354,o),
(168,407,o),
(215,431,cs),
(238,443,o),
(263,449,o),
(289,449,cs),
(341,449,o),
(392,426,o),
(423,375,cs),
(438,348,o),
(445,315,o),
(445,275,cs),
(445,194,o),
(411,141,o),
(364,117,cs),
(339,104,o),
(315,98,o),
(289,98,cs)
);
}
);
userData = {
com.hugojourdan.ColorFlow = {
"0" = 0;
"1" = 0;
"10" = 0;
"11" = 0;
"2" = 0;
"3" = 0;
"4" = 0;
"5" = 0;
"6" = 0;
"7" = 0;
"8" = 0;
"9" = 0;
};
};
width = 579;
}
);
note = eth;
unicode = 240;
}
{
glyphname = ntilde;
kernLeft = idotless;
kernRight = a;
layers = (
{
layerId = "162F4A02-D1DE-460C-9ADC-EEB0D0B313BF";
shapes = (
{
closed = 1;
nodes = (
(146,23,o),
(167,43,o),
(167,68,cs),
(167,361,l),
(213,418,o),
(261,454,o),
(326,454,cs),
(396,454,o),
(433,415,o),
(433,336,cs),
(433,68,ls),
(433,44,o),
(453,23,o),
(478,23,cs),
(502,23,o),
(523,43,o),
(523,68,cs),
(523,345,ls),
(523,417,o),
(494,478,o),
(442,512,cs),
(414,530,o),
(383,538,o),
(348,538,cs),
(271,538,o),
(217,504,o),
(167,450,c),
(167,487,ls),
(167,511,o),
(146,533,o),
(121,533,cs),
(96,533,o),
(76,511,o),
(76,487,cs),
(76,68,ls),
(76,44,o),
(97,23,o),
(121,23,cs)
);
},
{
closed = 1;
nodes = (
(175,586,o),
(183,592,o),
(187,604,cs),
(195,625,o),
(208,634,o),
(224,634,cs),
(246,634,o),
(264,627,o),
(294,612,cs),
(328,596,o),
(348,588,o),
(374,588,cs),
(422,588,o),
(457,635,o),
(457,681,cs),
(456,694,o),
(446,704,o),
(434,704,cs),
(422,704,o),
(413,696,o),
(408,682,cs),
(400,664,o),
(390,657,o),
(373,657,cs),
(350,657,o),
(331,665,o),
(301,679,cs),
(269,695,o),
(249,703,o),
(223,703,cs),
(175,703,o),
(140,652,o),
(140,609,cs),
(140,595,o),
(151,586,o),
(163,586,cs)
);
}
);
userData = {
com.hugojourdan.ColorFlow = {
"0" = 0;
"1" = 0;
"10" = 0;
"11" = 0;
"2" = 0;
"3" = 0;
"4" = 0;
"5" = 0;
"6" = 0;
"7" = 0;
"8" = 0;
"9" = 0;
};
};
width = 595;
}
);
note = ntilde;
unicode = 241;
}
{
glyphname = ograve;
kernLeft = c;
kernRight = b;
layers = (
{
anchors = (
{
name = odot;
pos = (548,551);
}
);
layerId = "162F4A02-D1DE-460C-9ADC-EEB0D0B313BF";
shapes = (
{
closed = 1;
nodes = (
(395,18,o),
(474,62,o),
(517,143,cs),
(538,183,o),
(548,228,o),
(548,278,cs),
(548,379,o),
(505,462,o),
(428,506,cs),
(390,527,o),
(346,538,o),
(297,538,cs),
(198,538,o),
(119,494,o),
(77,414,cs),
(56,373,o),
(46,328,o),
(46,278,cs),
(46,177,o),
(89,94,o),
(165,50,cs),
(203,29,o),
(248,18,o),
(297,18,cs)
);
},
{
closed = 1;
nodes = (
(238,101,o),
(189,128,o),
(160,178,cs),
(145,204,o),
(137,238,o),
(137,279,cs),
(137,360,o),
(172,413,o),
(220,437,cs),
(244,449,o),
(270,455,o),
(297,455,cs),
(355,455,o),
(404,428,o),
(434,379,cs),
(449,353,o),
(457,319,o),
(457,279,cs),
(457,197,o),
(422,144,o),
(374,120,cs),
(351,108,o),
(325,101,o),
(297,101,cs)
);
},
{
closed = 1;
nodes = (
(313,582,o),
(324,593,o),
(324,609,cs),
(324,616,o),
(321,622,o),
(317,629,cs),
(268,716,ls),
(261,729,o),
(249,735,o),
(234,735,cs),
(212,735,o),
(197,721,o),
(197,698,cs),
(197,689,o),
(200,679,o),
(207,673,c),
(274,592,l),
(280,586,o),
(288,582,o),
(297,582,cs)
);
}
);
userData = {
com.hugojourdan.ColorFlow = {
"0" = 0;
"1" = 0;
"10" = 0;
"11" = 0;
"2" = 0;
"3" = 0;
"4" = 0;
"5" = 0;
"6" = 0;
"7" = 0;
"8" = 0;
"9" = 0;
};
};
width = 594;
}
);
note = ograve;
unicode = 242;
}
{
glyphname = divide;
layers = (
{
layerId = "162F4A02-D1DE-460C-9ADC-EEB0D0B313BF";
shapes = (
{
closed = 1;
nodes = (
(584,312,ls),
(606,312,o),
(625,329,o),
(625,352,cs),
(625,375,o),
(606,393,o),
(584,393,cs),
(110,393,ls),
(87,393,o),
(70,375,o),
(70,352,cs),
(70,330,o),
(88,312,o),
(110,312,cs)
);
},
{
closed = 1;
nodes = (
(375,121,o),
(398,144,o),
(398,172,cs),
(398,199,o),
(375,222,o),
(348,222,cs),
(320,222,o),
(297,199,o),
(297,172,cs),
(297,144,o),
(320,121,o),
(348,121,cs)
);
},
{
closed = 1;
nodes = (
(375,482,o),
(398,506,o),
(398,533,cs),
(398,560,o),
(375,584,o),
(348,584,cs),
(320,584,o),
(297,560,o),
(297,533,cs),
(297,506,o),
(320,482,o),
(348,482,cs)
);
}
);
userData = {
com.hugojourdan.ColorFlow = {
"0" = 0;
"1" = 0;
"10" = 0;
"11" = 0;
"2" = 0;
"3" = 0;
"4" = 0;
"5" = 0;
"6" = 0;
"7" = 0;
"8" = 0;
"9" = 0;
};
};
width = 695;
}
);
note = divide;
unicode = 247;
}
{
glyphname = ugrave;
kernLeft = u;
kernRight = g;
layers = (
{
anchors = (
{
name = odot;
pos = (577,581);
}
);
layerId = "162F4A02-D1DE-460C-9ADC-EEB0D0B313BF";
shapes = (
{
closed = 1;
nodes = (
(324,18,o),
(378,52,o),
(428,106,c),
(428,69,ls),
(428,45,o),
(449,23,o),
(474,23,cs),
(499,23,o),
(519,45,o),
(519,69,cs),
(519,488,ls),
(519,512,o),
(498,533,o),
(474,533,cs),
(449,533,o),
(428,513,o),
(428,488,cs),
(428,195,l),
(382,138,o),
(334,102,o),
(269,102,cs),
(198,102,o),
(162,141,o),
(162,220,cs),
(162,488,ls),
(162,512,o),
(142,533,o),
(117,533,cs),
(93,533,o),
(71,513,o),
(71,488,cs),
(71,211,ls),
(71,139,o),
(102,78,o),
(153,44,cs),
(182,26,o),
(212,18,o),
(247,18,cs)
);
},
{
closed = 1;
nodes = (
(314,582,o),
(325,593,o),
(325,609,cs),
(325,616,o),
(322,622,o),
(318,629,cs),
(269,716,ls),
(262,729,o),
(250,735,o),
(235,735,cs),
(213,735,o),
(198,721,o),
(198,698,cs),
(198,689,o),
(201,679,o),
(208,673,c),
(275,592,l),
(281,586,o),
(289,582,o),
(298,582,cs)
);
}
);
userData = {
com.hugojourdan.ColorFlow = {
"0" = 0;
"1" = 0;
"10" = 0;
"11" = 0;
"2" = 0;
"3" = 0;
"4" = 0;
"5" = 0;
"6" = 0;
"7" = 0;
"8" = 0;
"9" = 0;
};
};
width = 595;
}
);
note = ugrave;
unicode = 249;
}
{
glyphname = uacute;
kernLeft = u;
kernRight = g;
layers = (
{
anchors = (
{
name = odot;
pos = (577,581);
}
);
layerId = "162F4A02-D1DE-460C-9ADC-EEB0D0B313BF";
shapes = (
{
closed = 1;
nodes = (
(324,18,o),
(378,52,o),
(428,106,c),
(428,69,ls),
(428,45,o),
(449,23,o),
(474,23,cs),
(499,23,o),
(519,45,o),
(519,69,cs),
(519,488,ls),
(519,512,o),
(498,533,o),
(474,533,cs),
(449,533,o),
(428,513,o),
(428,488,cs),
(428,195,l),
(382,138,o),
(334,102,o),
(269,102,cs),
(198,102,o),
(162,141,o),
(162,220,cs),
(162,488,ls),
(162,512,o),
(142,533,o),
(117,533,cs),
(93,533,o),
(71,513,o),
(71,488,cs),
(71,211,ls),
(71,139,o),
(102,78,o),
(153,44,cs),
(182,26,o),
(212,18,o),
(247,18,cs)
);
},
{
closed = 1;
nodes = (
(307,582,o),
(314,586,o),
(320,592,cs),
(388,673,l),
(395,679,o),
(397,689,o),
(397,698,cs),
(397,720,o),
(381,735,o),
(360,735,cs),
(346,735,o),
(334,729,o),
(327,716,cs),
(277,629,ls),
(273,622,o),
(271,616,o),
(271,609,cs),
(271,592,o),
(282,582,o),
(298,582,cs)
);
}
);
userData = {
com.hugojourdan.ColorFlow = {
"0" = 0;
"1" = 0;
"10" = 0;
"11" = 0;
"2" = 0;
"3" = 0;
"4" = 0;
"5" = 0;
"6" = 0;
"7" = 0;
"8" = 0;
"9" = 0;
};
};
width = 595;
}
);
note = uacute;
unicode = 250;
}
{
glyphname = ucircumflex;
kernLeft = u;
kernRight = g;
layers = (
{
anchors = (
{
name = odot;
pos = (577,581);
}
);
layerId = "162F4A02-D1DE-460C-9ADC-EEB0D0B313BF";
shapes = (
{
closed = 1;
nodes = (
(324,18,o),
(378,52,o),
(428,106,c),
(428,69,ls),
(428,45,o),
(449,23,o),
(474,23,cs),
(499,23,o),
(519,45,o),
(519,69,cs),
(519,488,ls),
(519,512,o),
(498,533,o),
(474,533,cs),
(449,533,o),
(428,513,o),
(428,488,cs),
(428,195,l),
(382,138,o),
(334,102,o),
(269,102,cs),
(198,102,o),
(162,141,o),
(162,220,cs),
(162,488,ls),
(162,512,o),
(142,533,o),
(117,533,cs),
(93,533,o),
(71,513,o),
(71,488,cs),
(71,211,ls),
(71,139,o),
(102,78,o),
(153,44,cs),
(182,26,o),
(212,18,o),
(247,18,cs)
);
},
{
closed = 1;
nodes = (
(202,581,o),
(208,583,o),
(214,588,cs),
(290,652,ls),
(295,657,o),
(301,657,o),
(306,652,cs),
(382,588,ls),
(388,583,o),
(394,581,o),
(400,581,cs),
(417,581,o),
(432,596,o),
(431,611,cs),
(431,619,o),
(427,626,o),
(423,631,cs),
(356,699,ls),
(344,713,o),
(332,718,o),
(316,718,cs),
(279,718,ls),
(264,718,o),
(252,713,o),
(239,699,cs),
(173,631,ls),
(169,626,o),
(165,619,o),
(165,611,cs),
(164,596,o),
(179,581,o),
(195,581,cs)
);
}
);
userData = {
com.hugojourdan.ColorFlow = {
"0" = 0;
"1" = 0;
"10" = 0;
"11" = 0;
"2" = 0;
"3" = 0;
"4" = 0;
"5" = 0;
"6" = 0;
"7" = 0;
"8" = 0;
"9" = 0;
};
};
width = 595;
}
);
note = ucircumflex;
unicode = 251;
}
{
glyphname = udieresis;
kernLeft = u;
kernRight = g;
layers = (
{
anchors = (
{
name = odot;
pos = (577,581);
},
{
name = top;
pos = (298,663);
}
);
layerId = "162F4A02-D1DE-460C-9ADC-EEB0D0B313BF";
shapes = (
{
closed = 1;
nodes = (
(324,18,o),
(378,52,o),
(428,106,c),
(428,69,ls),
(428,45,o),
(449,23,o),
(474,23,cs),
(499,23,o),
(519,45,o),
(519,69,cs),
(519,488,ls),
(519,512,o),
(498,533,o),
(474,533,cs),
(449,533,o),
(428,513,o),
(428,488,cs),
(428,195,l),
(382,138,o),
(334,102,o),
(269,102,cs),
(198,102,o),
(162,141,o),
(162,220,cs),
(162,488,ls),
(162,512,o),
(142,533,o),
(117,533,cs),
(93,533,o),
(71,513,o),
(71,488,cs),
(71,211,ls),
(71,139,o),
(102,78,o),
(153,44,cs),
(182,26,o),
(212,18,o),
(247,18,cs)
);
},
{
closed = 1;
nodes = (
(243,590,o),
(267,613,o),
(267,640,cs),
(267,668,o),
(243,691,o),
(216,691,cs),
(188,691,o),
(165,668,o),
(165,640,cs),
(165,613,o),
(188,590,o),
(216,590,cs)
);
},
{
closed = 1;
nodes = (
(407,590,o),
(431,613,o),
(431,640,cs),
(431,668,o),
(407,691,o),
(380,691,cs),
(353,691,o),
(329,668,o),
(329,640,cs),
(329,613,o),
(353,590,o),
(380,590,cs)
);
}
);
userData = {
com.hugojourdan.ColorFlow = {
"0" = 0;
"1" = 0;
"10" = 0;
"11" = 0;
"2" = 0;
"3" = 0;
"4" = 0;
"5" = 0;
"6" = 0;
"7" = 0;
"8" = 0;
"9" = 0;
};
};
width = 595;
}
);
note = udieresis;
unicode = 252;
}
{
glyphname = yacute;
kernLeft = uni0233;
kernRight = uni0233;
layers = (
{
layerId = "162F4A02-D1DE-460C-9ADC-EEB0D0B313BF";
shapes = (
{
closed = 1;
nodes = (
(208,-201,o),
(222,-191,o),
(230,-170,cs),
(497,470,ls),
(499,475,o),
(500,481,o),
(500,487,cs),
(500,511,o),
(480,533,o),
(455,533,cs),
(436,533,o),
(422,522,o),
(413,503,cs),
(261,134,l),
(111,505,ls),
(104,521,o),
(88,533,o),
(69,533,cs),
(44,533,o),
(24,511,o),
(24,487,cs),
(24,480,o),
(26,473,o),
(28,468,cs),
(212,21,l),
(148,-142,ls),
(146,-147,o),
(146,-153,o),
(146,-158,cs),
(146,-181,o),
(164,-201,o),
(188,-201,cs)
);
},
{
closed = 1;
nodes = (
(271,582,o),
(279,586,o),
(285,592,cs),
(353,673,ls),
(359,679,o),
(362,689,o),
(362,698,cs),
(362,720,o),
(346,735,o),
(325,735,cs),
(311,735,o),
(299,729,o),
(292,716,cs),
(242,629,ls),
(238,622,o),
(235,616,o),
(235,609,cs),
(235,592,o),
(247,582,o),
(263,582,cs)
);
}
);
userData = {
com.hugojourdan.ColorFlow = {
"0" = 0;
"1" = 0;
"10" = 0;
"11" = 0;
"2" = 0;
"3" = 0;
"4" = 0;
"5" = 0;
"6" = 0;
"7" = 0;
"8" = 0;
"9" = 0;
};
};
width = 524;
}
);
note = yacute;
unicode = 253;
}
{
glyphname = thorn;
kernLeft = b;
kernRight = b;
layers = (
{
layerId = "162F4A02-D1DE-460C-9ADC-EEB0D0B313BF";
shapes = (
{
closed = 1;
nodes = (
(147,-201,o),
(167,-182,o),
(167,-156,cs),
(167,92,l),
(214,43,o),
(270,18,o),
(333,18,cs),
(414,18,o),
(492,60,o),
(537,140,cs),
(560,179,o),
(570,225,o),
(570,278,cs),
(570,383,o),
(521,467,o),
(448,508,cs),
(413,528,o),
(373,538,o),
(333,538,cs),
(270,538,o),
(214,513,o),
(167,465,c),
(167,702,ls),
(167,728,o),
(147,748,o),
(121,748,cs),
(96,748,o),
(76,726,o),
(76,702,cs),
(76,-156,ls),
(76,-180,o),
(96,-201,o),
(121,-201,cs)
);
},
{
closed = 1;
nodes = (
(261,103,o),
(207,133,o),
(167,175,c),
(167,381,l),
(207,424,o),
(261,453,o),
(320,453,cs),
(419,453,o),
(479,387,o),
(479,278,cs),
(479,169,o),
(419,103,o),
(320,103,cs)
);
}
);
userData = {
com.hugojourdan.ColorFlow = {
"0" = 0;
"1" = 0;
"10" = 0;
"11" = 0;
"2" = 0;
"3" = 0;
"4" = 0;
"5" = 0;
"6" = 0;
"7" = 0;
"8" = 0;
"9" = 0;
};
};
width = 616;
}
);
note = thorn;
unicode = 254;
}
{
glyphname = Aogonek;
kernLeft = A;
kernRight = A;
layers = (
{
anchors = (
{
name = bottom;
pos = (362,29);
},
{
name = odot;
pos = (566,724);
},
{
name = top;
pos = (363,886);
}
);
layerId = "162F4A02-D1DE-460C-9ADC-EEB0D0B313BF";
shapes = (
{
closed = 1;
nodes = (
(612,-170,o),
(641,-162,o),
(664,-147,cs),
(671,-142,o),
(675,-136,o),
(675,-128,cs),
(675,-115,o),
(665,-106,o),
(652,-106,cs),
(650,-106,o),
(648,-107,o),
(646,-107,c),
(646,-107,o),
(645,-108,o),
(644,-108,c),
(631,-112,o),
(619,-114,o),
(609,-114,cs),
(576,-114,o),
(561,-98,o),
(561,-68,cs),
(561,-27,o),
(604,5,o),
(655,27,cs),
(672,35,o),
(681,50,o),
(681,68,cs),
(681,73,o),
(679,80,o),
(676,88,cs),
(427,675,ls),
(416,700,o),
(396,717,o),
(369,717,cs),
(359,717,ls),
(332,717,o),
(313,700,o),
(302,675,cs),
(53,88,ls),
(50,80,o),
(48,73,o),
(48,68,cs),
(48,44,o),
(66,23,o),
(93,23,cs),
(112,23,o),
(128,34,o),
(136,51,cs),
(199,203,l),
(529,203,l),
(596,46,l),
(526,13,o),
(487,-33,o),
(487,-87,cs),
(487,-137,o),
(529,-170,o),
(579,-170,cs)
);
},
{
closed = 1;
nodes = (
(356,582,ls),
(359,591,o),
(368,592,o),
(372,582,cs),
(495,286,l),
(233,286,l)
);
}
);
userData = {
com.hugojourdan.ColorFlow = {
"0" = 0;
"1" = 0;
"10" = 0;
"11" = 0;
"2" = 0;
"3" = 0;
"4" = 0;
"5" = 0;
"6" = 0;
"7" = 0;
"8" = 0;
"9" = 0;
};
};
width = 729;
}
);
note = Aogonek;
unicode = 260;
}
{
glyphname = aogonek;
kernLeft = a;
kernRight = a;
layers = (
{
anchors = (
{
name = bottom;
pos = (272,29);
},
{
name = odot;
pos = (538,551);
},
{
name = top;
pos = (273,713);
}
);
layerId = "162F4A02-D1DE-460C-9ADC-EEB0D0B313BF";
shapes = (
{
closed = 1;
nodes = (
(399,-170,o),
(428,-162,o),
(451,-147,cs),
(458,-142,o),
(462,-136,o),
(462,-128,cs),
(462,-115,o),
(452,-106,o),
(439,-106,cs),
(438,-106,o),
(436,-107,o),
(434,-107,cs),
(433,-107,o),
(432,-108,o),
(431,-108,c),
(418,-112,o),
(406,-114,o),
(396,-114,cs),
(363,-114,o),
(348,-98,o),
(348,-69,cs),
(348,-34,o),
(382,3,o),
(436,24,cs),
(456,32,o),
(470,48,o),
(470,68,cs),
(470,344,ls),
(470,412,o),
(441,474,o),
(380,510,cs),
(348,529,o),
(310,538,o),
(265,538,cs),
(207,538,o),
(150,526,o),
(96,503,cs),
(79,496,o),
(69,483,o),
(69,465,cs),
(69,444,o),
(87,426,o),
(106,426,cs),
(109,426,o),
(114,427,o),
(119,428,c),
(166,444,o),
(199,452,o),
(249,452,cs),
(341,452,o),
(379,415,o),
(379,332,cs),
(379,325,l),
(262,325,ls),
(119,325,o),
(36,267,o),
(36,166,cs),
(36,107,o),
(67,59,o),
(117,36,cs),
(142,24,o),
(169,18,o),
(196,18,cs),
(270,18,o),
(331,42,o),
(379,92,c),
(379,45,l),
(311,8,o),
(274,-35,o),
(274,-87,cs),
(274,-137,o),
(316,-170,o),
(366,-170,cs)
);
},
{
closed = 1;
nodes = (
(155,98,o),
(127,129,o),
(127,175,cs),
(127,226,o),
(175,252,o),
(273,252,cs),
(379,252,l),
(379,171,l),
(343,130,o),
(287,98,o),
(229,98,cs)
);
}
);
userData = {
com.hugojourdan.ColorFlow = {
"0" = 0;
"1" = 0;
"10" = 0;
"11" = 0;
"2" = 0;
"3" = 0;
"4" = 0;
"5" = 0;
"6" = 0;
"7" = 0;
"8" = 0;
"9" = 0;
};
};
width = 541;
}
);
note = aogonek;
unicode = 261;
}
{
glyphname = cacute;
kernLeft = c;
kernRight = c;
layers = (
{
anchors = (
{
name = cedilla;
pos = (308,29);
},
{
name = top;
pos = (292,714);
}
);
layerId = "162F4A02-D1DE-460C-9ADC-EEB0D0B313BF";
shapes = (
{
closed = 1;
nodes = (
(377,18,o),
(424,38,o),
(468,65,c),
(480,74,o),
(487,86,o),
(487,100,cs),
(487,120,o),
(470,140,o),
(449,140,cs),
(441,140,o),
(434,137,o),
(428,134,cs),
(385,112,o),
(361,103,o),
(315,103,cs),
(205,103,o),
(137,172,o),
(137,278,cs),
(137,384,o),
(205,453,o),
(315,453,cs),
(361,453,o),
(385,444,o),
(428,422,cs),
(434,419,o),
(441,416,o),
(449,416,cs),
(470,416,o),
(487,436,o),
(487,456,cs),
(487,470,o),
(480,482,o),
(468,491,c),
(424,518,o),
(377,538,o),
(308,538,cs),
(212,538,o),
(129,494,o),
(82,417,cs),
(58,377,o),
(46,331,o),
(46,278,cs),
(46,173,o),
(98,92,o),
(178,50,cs),
(218,29,o),
(261,18,o),
(308,18,cs)
);
},
{
closed = 1;
nodes = (
(300,582,o),
(308,586,o),
(313,592,cs),
(381,673,l),
(388,679,o),
(391,689,o),
(391,698,cs),
(391,720,o),
(374,735,o),
(354,735,cs),
(339,735,o),
(327,729,o),
(320,716,cs),
(271,629,ls),
(267,622,o),
(264,616,o),
(264,609,cs),
(264,592,o),
(275,582,o),
(291,582,cs)
);
}
);
userData = {
com.hugojourdan.ColorFlow = {
"0" = 0;
"1" = 0;
"10" = 0;
"11" = 0;
"2" = 0;
"3" = 0;
"4" = 0;
"5" = 0;
"6" = 0;
"7" = 0;
"8" = 0;
"9" = 0;
};
};
width = 521;
}
);
note = cacute;
unicode = 263;
}
{
glyphname = Ccircumflex;
kernLeft = C;
kernRight = C;
layers = (
{
anchors = (
{
name = cedilla;
pos = (396,22);
},
{
name = top;
pos = (385,886);
}
);
layerId = "162F4A02-D1DE-460C-9ADC-EEB0D0B313BF";
shapes = (
{
closed = 1;
nodes = (
(484,18,o),
(549,40,o),
(618,79,cs),
(634,87,o),
(641,100,o),
(641,117,cs),
(641,137,o),
(624,155,o),
(601,155,cs),
(594,155,o),
(588,154,o),
(583,151,cs),
(525,121,o),
(476,105,o),
(404,105,cs),
(296,105,o),
(214,152,o),
(174,234,cs),
(153,273,o),
(144,318,o),
(144,370,cs),
(144,474,o),
(186,555,o),
(263,600,cs),
(301,623,o),
(349,634,o),
(404,634,cs),
(476,634,o),
(525,619,o),
(583,589,cs),
(588,586,o),
(594,585,o),
(601,585,cs),
(624,585,o),
(641,603,o),
(641,623,cs),
(641,639,o),
(634,653,o),
(618,661,cs),
(549,700,o),
(484,721,o),
(396,721,cs),
(265,721,o),
(156,662,o),
(98,556,cs),
(67,503,o),
(53,441,o),
(53,370,cs),
(53,228,o),
(116,118,o),
(221,61,cs),
(273,32,o),
(332,18,o),
(396,18,cs)
);
},
{
closed = 1;
nodes = (
(290,749,o),
(296,751,o),
(302,756,cs),
(378,820,ls),
(383,825,o),
(389,825,o),
(394,820,cs),
(470,756,ls),
(476,751,o),
(481,749,o),
(488,749,cs),
(505,749,o),
(520,764,o),
(519,779,cs),
(519,787,o),
(515,794,o),
(511,799,cs),
(444,867,ls),
(432,881,o),
(420,886,o),
(404,886,cs),
(367,886,ls),
(352,886,o),
(340,881,o),
(327,867,cs),
(261,799,ls),
(257,794,o),
(253,787,o),
(253,779,cs),
(252,764,o),
(267,749,o),
(283,749,cs)
);
}
);
userData = {
com.hugojourdan.ColorFlow = {
"0" = 0;
"1" = 0;
"10" = 0;
"11" = 0;
"2" = 0;
"3" = 0;
"4" = 0;
"5" = 0;
"6" = 0;
"7" = 0;
"8" = 0;
"9" = 0;
};
};
width = 679;
}
);
note = Ccircumflex;
unicode = 264;
}
{
glyphname = ccircumflex;
kernLeft = c;
kernRight = c;
layers = (
{
anchors = (
{
name = cedilla;
pos = (308,29);
},
{
name = top;
pos = (292,713);
}
);
layerId = "162F4A02-D1DE-460C-9ADC-EEB0D0B313BF";
shapes = (
{
closed = 1;
nodes = (
(377,18,o),
(424,38,o),
(468,65,c),
(480,74,o),
(487,86,o),
(487,100,cs),
(487,120,o),
(470,140,o),
(449,140,cs),
(441,140,o),
(434,137,o),
(428,134,cs),
(385,112,o),
(361,103,o),
(315,103,cs),
(205,103,o),
(137,172,o),
(137,278,cs),
(137,384,o),
(205,453,o),
(315,453,cs),
(361,453,o),
(385,444,o),
(428,422,cs),
(434,419,o),
(441,416,o),
(449,416,cs),
(470,416,o),
(487,436,o),
(487,456,cs),
(487,470,o),
(480,482,o),
(468,491,c),
(424,518,o),
(377,538,o),
(308,538,cs),
(212,538,o),
(129,494,o),
(82,417,cs),
(58,377,o),
(46,331,o),
(46,278,cs),
(46,173,o),
(98,92,o),
(178,50,cs),
(218,29,o),
(261,18,o),
(308,18,cs)
);
},
{
closed = 1;
nodes = (
(195,581,o),
(201,583,o),
(207,588,cs),
(283,652,ls),
(288,657,o),
(294,657,o),
(299,652,cs),
(375,588,ls),
(381,583,o),
(387,581,o),
(394,581,cs),
(410,581,o),
(425,596,o),
(424,611,cs),
(424,619,o),
(420,626,o),
(416,631,cs),
(350,699,ls),
(337,713,o),
(325,718,o),
(310,718,cs),
(272,718,ls),
(257,718,o),
(245,713,o),
(232,699,cs),
(166,631,ls),
(162,626,o),
(158,619,o),
(158,611,cs),
(157,596,o),
(172,581,o),
(188,581,cs)
);
}
);
userData = {
com.hugojourdan.ColorFlow = {
"0" = 0;
"1" = 0;
"10" = 0;
"11" = 0;
"2" = 0;
"3" = 0;
"4" = 0;
"5" = 0;
"6" = 0;
"7" = 0;
"8" = 0;
"9" = 0;
};
};
width = 521;
}
);
note = ccircumflex;
unicode = 265;
}
{
glyphname = Cdotaccent;
kernLeft = C;
kernRight = C;
layers = (
{
anchors = (
{
name = cedilla;
pos = (396,22);
},
{
name = top;
pos = (385,886);
}
);
layerId = "162F4A02-D1DE-460C-9ADC-EEB0D0B313BF";
shapes = (
{
closed = 1;
nodes = (
(484,18,o),
(549,40,o),
(618,79,cs),
(634,87,o),
(641,100,o),
(641,117,cs),
(641,137,o),
(624,155,o),
(601,155,cs),
(594,155,o),
(588,154,o),
(583,151,cs),
(525,121,o),
(476,105,o),
(404,105,cs),
(296,105,o),
(214,152,o),
(174,234,cs),
(153,273,o),
(144,318,o),
(144,370,cs),
(144,474,o),
(186,555,o),
(263,600,cs),
(301,623,o),
(349,634,o),
(404,634,cs),
(476,634,o),
(525,619,o),
(583,589,cs),
(588,586,o),
(594,585,o),
(601,585,cs),
(624,585,o),
(641,603,o),
(641,623,cs),
(641,639,o),
(634,653,o),
(618,661,cs),
(549,700,o),
(484,721,o),
(396,721,cs),
(265,721,o),
(156,662,o),
(98,556,cs),
(67,503,o),
(53,441,o),
(53,370,cs),
(53,228,o),
(116,118,o),
(221,61,cs),
(273,32,o),
(332,18,o),
(396,18,cs)
);
},
{
closed = 1;
nodes = (
(413,758,o),
(437,781,o),
(437,808,cs),
(437,836,o),
(413,859,o),
(386,859,cs),
(358,859,o),
(335,836,o),
(335,808,cs),
(335,781,o),
(358,758,o),
(386,758,cs)
);
}
);
userData = {
com.hugojourdan.ColorFlow = {
"0" = 0;
"1" = 0;
"10" = 0;
"11" = 0;
"2" = 0;
"3" = 0;
"4" = 0;
"5" = 0;
"6" = 0;
"7" = 0;
"8" = 0;
"9" = 0;
};
};
width = 679;
}
);
note = Cdotaccent;
unicode = 266;
}
{
glyphname = Ccaron;
kernLeft = C;
kernRight = C;
layers = (
{
anchors = (
{
name = cedilla;
pos = (396,22);
},
{
name = top;
pos = (385,886);
}
);
layerId = "162F4A02-D1DE-460C-9ADC-EEB0D0B313BF";
shapes = (
{
closed = 1;
nodes = (
(484,18,o),
(549,40,o),
(618,79,cs),
(634,87,o),
(641,100,o),
(641,117,cs),
(641,137,o),
(624,155,o),
(601,155,cs),
(594,155,o),
(588,154,o),
(583,151,cs),
(525,121,o),
(476,105,o),
(404,105,cs),
(296,105,o),
(214,152,o),
(174,234,cs),
(153,273,o),
(144,318,o),
(144,370,cs),
(144,474,o),
(186,555,o),
(263,600,cs),
(301,623,o),
(349,634,o),
(404,634,cs),
(476,634,o),
(525,619,o),
(583,589,cs),
(588,586,o),
(594,585,o),
(601,585,cs),
(624,585,o),
(641,603,o),
(641,623,cs),
(641,639,o),
(634,653,o),
(618,661,cs),
(549,700,o),
(484,721,o),
(396,721,cs),
(265,721,o),
(156,662,o),
(98,556,cs),
(67,503,o),
(53,441,o),
(53,370,cs),
(53,228,o),
(116,118,o),
(221,61,cs),
(273,32,o),
(332,18,o),
(396,18,cs)
);
},
{
closed = 1;
nodes = (
(404,750,ls),
(420,750,o),
(432,756,o),
(444,769,cs),
(511,838,ls),
(515,842,o),
(519,849,o),
(519,857,cs),
(520,872,o),
(505,887,o),
(488,887,cs),
(481,887,o),
(476,885,o),
(470,881,c),
(394,816,ls),
(389,811,o),
(383,811,o),
(378,816,cs),
(302,881,l),
(296,885,o),
(290,887,o),
(283,887,cs),
(267,887,o),
(252,872,o),
(253,857,cs),
(253,849,o),
(257,842,o),
(261,838,cs),
(327,769,ls),
(340,756,o),
(352,750,o),
(367,750,cs)
);
}
);
userData = {
com.hugojourdan.ColorFlow = {
"0" = 0;
"1" = 0;
"10" = 0;
"11" = 0;
"2" = 0;
"3" = 0;
"4" = 0;
"5" = 0;
"6" = 0;
"7" = 0;
"8" = 0;
"9" = 0;
};
};
width = 679;
}
);
note = Ccaron;
unicode = 268;
}
{
glyphname = ccaron;
kernLeft = c;
kernRight = c;
layers = (
{
anchors = (
{
name = cedilla;
pos = (308,29);
},
{
name = top;
pos = (292,713);
}
);
layerId = "162F4A02-D1DE-460C-9ADC-EEB0D0B313BF";
shapes = (
{
closed = 1;
nodes = (
(377,18,o),
(424,38,o),
(468,65,c),
(480,74,o),
(487,86,o),
(487,100,cs),
(487,120,o),
(470,140,o),
(449,140,cs),
(441,140,o),
(434,137,o),
(428,134,cs),
(385,112,o),
(361,103,o),
(315,103,cs),
(205,103,o),
(137,172,o),
(137,278,cs),
(137,384,o),
(205,453,o),
(315,453,cs),
(361,453,o),
(385,444,o),
(428,422,cs),
(434,419,o),
(441,416,o),
(449,416,cs),
(470,416,o),
(487,436,o),
(487,456,cs),
(487,470,o),
(480,482,o),
(468,491,c),
(424,518,o),
(377,538,o),
(308,538,cs),
(212,538,o),
(129,494,o),
(82,417,cs),
(58,377,o),
(46,331,o),
(46,278,cs),
(46,173,o),
(98,92,o),
(178,50,cs),
(218,29,o),
(261,18,o),
(308,18,cs)
);
},
{
closed = 1;
nodes = (
(310,582,ls),
(325,582,o),
(337,588,o),
(350,601,cs),
(416,670,ls),
(420,675,o),
(424,681,o),
(424,689,cs),
(425,704,o),
(410,719,o),
(394,719,cs),
(387,719,o),
(381,717,o),
(375,713,c),
(299,648,ls),
(294,643,o),
(288,643,o),
(283,648,cs),
(207,713,l),
(201,717,o),
(195,719,o),
(188,719,cs),
(172,719,o),
(157,704,o),
(158,689,cs),
(158,681,o),
(162,675,o),
(166,670,cs),
(232,601,ls),
(245,588,o),
(257,582,o),
(272,582,cs)
);
}
);
userData = {
com.hugojourdan.ColorFlow = {
"0" = 0;
"1" = 0;
"10" = 0;
"11" = 0;
"2" = 0;
"3" = 0;
"4" = 0;
"5" = 0;
"6" = 0;
"7" = 0;
"8" = 0;
"9" = 0;
};
};
width = 521;
}
);
note = ccaron;
unicode = 269;
}
{
glyphname = Dcaron;
kernLeft = B;
kernRight = D;
layers = (
{
anchors = (
{
name = top;
pos = (367,886);
}
);
layerId = "162F4A02-D1DE-460C-9ADC-EEB0D0B313BF";
shapes = (
{
closed = 1;
nodes = (
(335,28,ls),
(483,28,o),
(590,100,o),
(642,206,cs),
(668,258,o),
(681,312,o),
(681,370,cs),
(681,484,o),
(629,596,o),
(525,663,cs),
(473,695,o),
(408,712,o),
(335,712,cs),
(139,712,ls),
(113,712,o),
(94,690,o),
(94,666,cs),
(94,73,ls),
(94,49,o),
(114,28,o),
(139,28,cs)
);
},
{
closed = 1;
nodes = (
(188,113,o),
(185,117,o),
(185,125,cs),
(185,615,ls),
(185,623,o),
(188,627,o),
(196,627,cs),
(324,627,ls),
(430,627,o),
(514,582,o),
(558,505,cs),
(579,467,o),
(591,422,o),
(591,370,cs),
(591,268,o),
(545,189,o),
(465,146,cs),
(426,125,o),
(379,113,o),
(324,113,cs),
(196,113,ls)
);
},
{
closed = 1;
nodes = (
(385,750,ls),
(400,750,o),
(412,756,o),
(425,769,cs),
(491,838,ls),
(495,842,o),
(499,849,o),
(499,857,cs),
(500,872,o),
(485,887,o),
(469,887,cs),
(462,887,o),
(456,885,o),
(450,881,c),
(374,816,ls),
(369,811,o),
(363,811,o),
(358,816,cs),
(282,881,l),
(276,885,o),
(271,887,o),
(264,887,cs),
(247,887,o),
(232,872,o),
(233,857,cs),
(233,849,o),
(237,842,o),
(241,838,cs),
(308,769,ls),
(320,756,o),
(332,750,o),
(348,750,cs)
);
}
);
userData = {
com.hugojourdan.ColorFlow = {
"0" = 0;
"1" = 0;
"10" = 0;
"11" = 0;
"2" = 0;
"3" = 0;
"4" = 0;
"5" = 0;
"6" = 0;
"7" = 0;
"8" = 0;
"9" = 0;
};
};
width = 733;
}
);
note = Dcaron;
unicode = 270;
}
{
glyphname = dcaron;
kernLeft = c;
kernRight = d;
layers = (
{
anchors = (
{
name = odot;
pos = (288,29);
}
);
layerId = "162F4A02-D1DE-460C-9ADC-EEB0D0B313BF";
shapes = (
{
closed = 1;
nodes = (
(347,18,o),
(402,43,o),
(449,92,c),
(449,68,ls),
(449,43,o),
(471,23,o),
(495,23,cs),
(520,23,o),
(540,44,o),
(540,68,cs),
(540,702,ls),
(540,726,o),
(521,748,o),
(495,748,cs),
(471,748,o),
(449,728,o),
(449,702,cs),
(449,465,l),
(402,513,o),
(347,538,o),
(283,538,cs),
(202,538,o),
(125,496,o),
(80,417,cs),
(57,376,o),
(46,330,o),
(46,278,cs),
(46,173,o),
(96,91,o),
(169,50,cs),
(205,29,o),
(243,18,o),
(283,18,cs)
);
},
{
closed = 1;
nodes = (
(197,103,o),
(137,169,o),
(137,278,cs),
(137,387,o),
(197,453,o),
(296,453,cs),
(355,453,o),
(409,424,o),
(449,381,c),
(449,175,l),
(409,133,o),
(355,103,o),
(296,103,cs)
);
},
{
closed = 1;
nodes = (
(593,569,o),
(599,571,o),
(604,575,cs),
(643,603,o),
(660,629,o),
(660,669,cs),
(660,699,ls),
(660,727,o),
(642,748,o),
(614,748,cs),
(587,748,o),
(567,726,o),
(567,700,cs),
(567,675,o),
(587,656,o),
(612,656,c),
(612,636,o),
(601,627,o),
(580,611,cs),
(572,605,o),
(567,599,o),
(567,592,cs),
(567,579,o),
(578,569,o),
(587,569,cs)
);
}
);
userData = {
com.hugojourdan.ColorFlow = {
"0" = 0;
"1" = 0;
"10" = 0;
"11" = 0;
"2" = 0;
"3" = 0;
"4" = 0;
"5" = 0;
"6" = 0;
"7" = 0;
"8" = 0;
"9" = 0;
};
};
width = 616;
}
);
note = dcaron;
unicode = 271;
}
{
glyphname = Ebreve;
kernLeft = B;
kernRight = AE;
layers = (
{
anchors = (
{
name = odot;
pos = (586,804);
},
{
name = top;
pos = (335,886);
}
);
layerId = "162F4A02-D1DE-460C-9ADC-EEB0D0B313BF";
shapes = (
{
closed = 1;
nodes = (
(530,28,ls),
(554,28,o),
(573,46,o),
(573,70,cs),
(573,93,o),
(554,113,o),
(530,113,cs),
(196,113,ls),
(188,113,o),
(185,117,o),
(185,125,cs),
(185,328,l),
(495,328,ls),
(519,328,o),
(538,345,o),
(538,370,cs),
(538,393,o),
(519,413,o),
(495,413,cs),
(185,413,l),
(185,615,ls),
(185,623,o),
(188,627,o),
(196,627,cs),
(530,627,ls),
(554,627,o),
(573,644,o),
(573,669,cs),
(573,692,o),
(554,712,o),
(530,712,cs),
(139,712,ls),
(113,712,o),
(94,690,o),
(94,666,cs),
(94,73,ls),
(94,49,o),
(114,28,o),
(139,28,cs)
);
},
{
closed = 1;
nodes = (
(396,758,o),
(447,790,o),
(472,839,cs),
(474,842,o),
(475,847,o),
(475,852,cs),
(475,869,o),
(462,883,o),
(443,883,cs),
(430,883,o),
(421,877,o),
(415,864,cs),
(400,835,o),
(372,817,o),
(334,817,cs),
(296,817,o),
(268,835,o),
(253,864,cs),
(247,877,o),
(238,883,o),
(225,883,cs),
(206,883,o),
(193,869,o),
(193,852,cs),
(193,847,o),
(194,842,o),
(196,839,cs),
(221,790,o),
(272,758,o),
(334,758,cs)
);
}
);
userData = {
com.hugojourdan.ColorFlow = {
"0" = 0;
"1" = 0;
"10" = 0;
"11" = 0;
"2" = 0;
"3" = 0;
"4" = 0;
"5" = 0;
"6" = 0;
"7" = 0;
"8" = 0;
"9" = 0;
};
};
width = 623;
}
);
note = Ebreve;
unicode = 276;
}
{
glyphname = ebreve;
kernLeft = c;
kernRight = ae;
layers = (
{
anchors = (
{
name = cedilla;
pos = (278,29);
},
{
name = odot;
pos = (538,551);
}
);
layerId = "162F4A02-D1DE-460C-9ADC-EEB0D0B313BF";
shapes = (
{
closed = 1;
nodes = (
(378,18,o),
(420,33,o),
(471,61,cs),
(488,71,o),
(497,83,o),
(497,98,cs),
(497,121,o),
(478,137,o),
(457,137,cs),
(450,137,o),
(444,136,o),
(439,133,cs),
(400,114,o),
(362,103,o),
(308,103,cs),
(208,103,o),
(149,154,o),
(138,246,c),
(468,246,ls),
(495,246,o),
(514,266,o),
(514,291,cs),
(514,382,o),
(475,461,o),
(406,505,cs),
(370,527,o),
(328,538,o),
(280,538,cs),
(178,538,o),
(105,485,o),
(71,406,cs),
(55,366,o),
(46,323,o),
(46,278,cs),
(46,115,o),
(139,18,o),
(300,18,cs)
);
},
{
closed = 1;
nodes = (
(142,380,o),
(170,425,o),
(215,446,cs),
(237,456,o),
(259,461,o),
(280,461,cs),
(324,461,o),
(370,441,o),
(399,398,cs),
(412,381,o),
(420,359,o),
(423,333,cs),
(424,324,o),
(419,320,o),
(411,320,cs),
(138,320,l)
);
},
{
closed = 1;
nodes = (
(341,591,o),
(394,620,o),
(416,671,cs),
(418,675,o),
(419,679,o),
(419,684,cs),
(419,701,o),
(406,716,o),
(388,716,cs),
(374,716,o),
(365,709,o),
(359,696,cs),
(345,667,o),
(316,649,o),
(278,649,cs),
(240,649,o),
(212,667,o),
(197,696,cs),
(191,709,o),
(183,716,o),
(169,716,cs),
(150,716,o),
(138,701,o),
(138,684,cs),
(138,679,o),
(139,675,o),
(141,671,cs),
(163,620,o),
(216,591,o),
(278,591,cs)
);
}
);
userData = {
com.hugojourdan.ColorFlow = {
"0" = 0;
"1" = 0;
"10" = 0;
"11" = 0;
"2" = 0;
"3" = 0;
"4" = 0;
"5" = 0;
"6" = 0;
"7" = 0;
"8" = 0;
"9" = 0;
};
};
width = 553;
}
);
note = ebreve;
unicode = 277;
}
{
glyphname = Edotaccent;
kernLeft = B;
kernRight = AE;
layers = (
{
anchors = (
{
name = odot;
pos = (585,804);
},
{
name = top;
pos = (334,886);
}
);
layerId = "162F4A02-D1DE-460C-9ADC-EEB0D0B313BF";
shapes = (
{
closed = 1;
nodes = (
(530,28,ls),
(554,28,o),
(573,46,o),
(573,70,cs),
(573,93,o),
(554,113,o),
(530,113,cs),
(196,113,ls),
(188,113,o),
(185,117,o),
(185,125,cs),
(185,328,l),
(495,328,ls),
(519,328,o),
(538,345,o),
(538,370,cs),
(538,393,o),
(519,413,o),
(495,413,cs),
(185,413,l),
(185,615,ls),
(185,623,o),
(188,627,o),
(196,627,cs),
(530,627,ls),
(554,627,o),
(573,644,o),
(573,669,cs),
(573,692,o),
(554,712,o),
(530,712,cs),
(139,712,ls),
(113,712,o),
(94,690,o),
(94,666,cs),
(94,73,ls),
(94,49,o),
(114,28,o),
(139,28,cs)
);
},
{
closed = 1;
nodes = (
(361,758,o),
(385,781,o),
(385,808,cs),
(385,836,o),
(361,859,o),
(334,859,cs),
(307,859,o),
(283,836,o),
(283,808,cs),
(283,781,o),
(307,758,o),
(334,758,cs)
);
}
);
userData = {
com.hugojourdan.ColorFlow = {
"0" = 0;
"1" = 0;
"10" = 0;
"11" = 0;
"2" = 0;
"3" = 0;
"4" = 0;
"5" = 0;
"6" = 0;
"7" = 0;
"8" = 0;
"9" = 0;
};
};
width = 623;
}
);
note = Edotaccent;
unicode = 278;
}
{
glyphname = Eogonek;
kernLeft = B;
kernRight = AE;
layers = (
{
anchors = (
{
name = odot;
pos = (585,804);
},
{
name = top;
pos = (334,713);
}
);
layerId = "162F4A02-D1DE-460C-9ADC-EEB0D0B313BF";
shapes = (
{
closed = 1;
nodes = (
(501,-170,o),
(529,-162,o),
(553,-147,cs),
(560,-142,o),
(563,-136,o),
(563,-128,cs),
(563,-115,o),
(554,-106,o),
(541,-106,cs),
(539,-106,o),
(537,-107,o),
(535,-107,cs),
(534,-107,o),
(533,-108,o),
(532,-108,c),
(520,-112,o),
(508,-114,o),
(498,-114,cs),
(465,-114,o),
(449,-98,o),
(449,-68,cs),
(449,-26,o),
(499,11,o),
(545,30,cs),
(563,38,o),
(573,50,o),
(573,70,cs),
(573,93,o),
(554,113,o),
(530,113,cs),
(196,113,ls),
(188,113,o),
(185,117,o),
(185,125,cs),
(185,328,l),
(495,328,ls),
(519,328,o),
(538,345,o),
(538,370,cs),
(538,393,o),
(519,413,o),
(495,413,cs),
(185,413,l),
(185,615,ls),
(185,623,o),
(188,627,o),
(196,627,cs),
(530,627,ls),
(554,627,o),
(573,644,o),
(573,669,cs),
(573,692,o),
(554,712,o),
(530,712,cs),
(139,712,ls),
(113,712,o),
(94,690,o),
(94,666,cs),
(94,73,ls),
(94,49,o),
(114,28,o),
(139,28,cs),
(456,28,l),
(403,-4,o),
(376,-41,o),
(376,-87,cs),
(376,-137,o),
(418,-170,o),
(468,-170,cs)
);
}
);
userData = {
com.hugojourdan.ColorFlow = {
"0" = 0;
"1" = 0;
"10" = 0;
"11" = 0;
"2" = 0;
"3" = 0;
"4" = 0;
"5" = 0;
"6" = 0;
"7" = 0;
"8" = 0;
"9" = 0;
};
};
width = 623;
}
);
note = Eogonek;
unicode = 280;
}
{
glyphname = eogonek;
kernLeft = c;
kernRight = ae;
layers = (
{
anchors = (
{
name = odot;
pos = (538,551);
}
);
layerId = "162F4A02-D1DE-460C-9ADC-EEB0D0B313BF";
shapes = (
{
closed = 1;
nodes = (
(399,-170,o),
(428,-162,o),
(451,-147,cs),
(458,-142,o),
(462,-136,o),
(462,-128,cs),
(462,-115,o),
(452,-106,o),
(439,-106,cs),
(438,-106,o),
(436,-107,o),
(434,-107,cs),
(433,-107,o),
(432,-108,o),
(431,-108,c),
(418,-112,o),
(406,-114,o),
(396,-114,cs),
(363,-114,o),
(348,-98,o),
(348,-69,cs),
(348,-27,o),
(389,7,o),
(468,58,cs),
(487,71,o),
(497,85,o),
(497,98,cs),
(497,121,o),
(478,137,o),
(457,137,cs),
(450,137,o),
(444,136,o),
(439,133,cs),
(400,114,o),
(362,103,o),
(308,103,cs),
(208,103,o),
(149,154,o),
(138,246,c),
(468,246,ls),
(495,246,o),
(514,266,o),
(514,291,cs),
(514,382,o),
(475,461,o),
(406,505,cs),
(370,527,o),
(328,538,o),
(280,538,cs),
(178,538,o),
(105,485,o),
(71,406,cs),
(55,366,o),
(46,323,o),
(46,278,cs),
(46,115,o),
(139,18,o),
(300,18,cs),
(339,18,l),
(297,-11,o),
(274,-45,o),
(274,-87,cs),
(274,-137,o),
(316,-170,o),
(366,-170,cs)
);
},
{
closed = 1;
nodes = (
(142,380,o),
(170,425,o),
(215,446,cs),
(237,456,o),
(259,461,o),
(280,461,cs),
(324,461,o),
(370,441,o),
(399,398,cs),
(412,381,o),
(420,359,o),
(423,333,cs),
(424,324,o),
(419,320,o),
(411,320,cs),
(138,320,l)
);
}
);
userData = {
com.hugojourdan.ColorFlow = {
"0" = 0;
"1" = 0;
"10" = 0;
"11" = 0;
"2" = 0;
"3" = 0;
"4" = 0;
"5" = 0;
"6" = 0;
"7" = 0;
"8" = 0;
"9" = 0;
};
};
width = 553;
}
);
note = eogonek;
unicode = 281;
}
{
glyphname = Ecaron;
kernLeft = B;
kernRight = AE;
layers = (
{
anchors = (
{
name = odot;
pos = (585,804);
},
{
name = top;
pos = (334,886);
}
);
layerId = "162F4A02-D1DE-460C-9ADC-EEB0D0B313BF";
shapes = (
{
closed = 1;
nodes = (
(530,28,ls),
(554,28,o),
(573,46,o),
(573,70,cs),
(573,93,o),
(554,113,o),
(530,113,cs),
(196,113,ls),
(188,113,o),
(185,117,o),
(185,125,cs),
(185,328,l),
(495,328,ls),
(519,328,o),
(538,345,o),
(538,370,cs),
(538,393,o),
(519,413,o),
(495,413,cs),
(185,413,l),
(185,615,ls),
(185,623,o),
(188,627,o),
(196,627,cs),
(530,627,ls),
(554,627,o),
(573,644,o),
(573,669,cs),
(573,692,o),
(554,712,o),
(530,712,cs),
(139,712,ls),
(113,712,o),
(94,690,o),
(94,666,cs),
(94,73,ls),
(94,49,o),
(114,28,o),
(139,28,cs)
);
},
{
closed = 1;
nodes = (
(353,750,ls),
(368,750,o),
(380,756,o),
(393,769,cs),
(459,838,ls),
(463,842,o),
(467,849,o),
(467,857,cs),
(468,872,o),
(453,887,o),
(437,887,cs),
(430,887,o),
(424,885,o),
(418,881,c),
(342,816,ls),
(337,811,o),
(331,811,o),
(326,816,cs),
(250,881,l),
(244,885,o),
(238,887,o),
(231,887,cs),
(215,887,o),
(200,872,o),
(201,857,cs),
(201,849,o),
(205,842,o),
(209,838,cs),
(275,769,ls),
(288,756,o),
(300,750,o),
(315,750,cs)
);
}
);
userData = {
com.hugojourdan.ColorFlow = {
"0" = 0;
"1" = 0;
"10" = 0;
"11" = 0;
"2" = 0;
"3" = 0;
"4" = 0;
"5" = 0;
"6" = 0;
"7" = 0;
"8" = 0;
"9" = 0;
};
};
width = 623;
}
);
note = Ecaron;
unicode = 282;
}
{
glyphname = ecaron;
kernLeft = c;
kernRight = ae;
layers = (
{
anchors = (
{
name = cedilla;
pos = (278,29);
},
{
name = odot;
pos = (538,551);
}
);
layerId = "162F4A02-D1DE-460C-9ADC-EEB0D0B313BF";
shapes = (
{
closed = 1;
nodes = (
(378,18,o),
(420,33,o),
(471,61,cs),
(488,71,o),
(497,83,o),
(497,98,cs),
(497,121,o),
(478,137,o),
(457,137,cs),
(450,137,o),
(444,136,o),
(439,133,cs),
(400,114,o),
(362,103,o),
(308,103,cs),
(208,103,o),
(149,154,o),
(138,246,c),
(468,246,ls),
(495,246,o),
(514,266,o),
(514,291,cs),
(514,382,o),
(475,461,o),
(406,505,cs),
(370,527,o),
(328,538,o),
(280,538,cs),
(178,538,o),
(105,485,o),
(71,406,cs),
(55,366,o),
(46,323,o),
(46,278,cs),
(46,115,o),
(139,18,o),
(300,18,cs)
);
},
{
closed = 1;
nodes = (
(142,380,o),
(170,425,o),
(215,446,cs),
(237,456,o),
(259,461,o),
(280,461,cs),
(324,461,o),
(370,441,o),
(399,398,cs),
(412,381,o),
(420,359,o),
(423,333,cs),
(424,324,o),
(419,320,o),
(411,320,cs),
(138,320,l)
);
},
{
closed = 1;
nodes = (
(297,582,ls),
(313,582,o),
(324,588,o),
(337,601,cs),
(403,670,ls),
(407,675,o),
(411,681,o),
(411,689,cs),
(412,704,o),
(397,719,o),
(381,719,cs),
(374,719,o),
(368,717,o),
(362,713,c),
(286,648,ls),
(281,643,o),
(275,643,o),
(271,648,c),
(194,713,l),
(188,717,o),
(183,719,o),
(176,719,cs),
(159,719,o),
(145,704,o),
(146,689,cs),
(146,681,o),
(149,675,o),
(153,670,cs),
(220,601,ls),
(232,588,o),
(244,582,o),
(260,582,cs)
);
}
);
userData = {
com.hugojourdan.ColorFlow = {
"0" = 0;
"1" = 0;
"10" = 0;
"11" = 0;
"2" = 0;
"3" = 0;
"4" = 0;
"5" = 0;
"6" = 0;
"7" = 0;
"8" = 0;
"9" = 0;
};
};
width = 553;
}
);
note = ecaron;
unicode = 283;
}
{
glyphname = Gcircumflex;
kernLeft = C;
layers = (
{
anchors = (
{
name = top;
pos = (396,886);
}
);
layerId = "162F4A02-D1DE-460C-9ADC-EEB0D0B313BF";
shapes = (
{
closed = 1;
nodes = (
(473,18,o),
(547,37,o),
(620,73,cs),
(645,85,o),
(658,108,o),
(658,134,cs),
(658,356,ls),
(658,383,o),
(637,404,o),
(610,404,cs),
(418,404,ls),
(396,404,o),
(377,385,o),
(377,363,cs),
(377,341,o),
(396,322,o),
(418,322,cs),
(566,322,ls),
(574,322,o),
(578,318,o),
(578,310,cs),
(578,147,l),
(525,119,o),
(470,104,o),
(408,104,cs),
(302,104,o),
(219,151,o),
(176,233,cs),
(154,273,o),
(144,318,o),
(144,369,cs),
(144,476,o),
(189,559,o),
(270,602,cs),
(311,623,o),
(354,633,o),
(403,633,cs),
(475,633,o),
(533,615,o),
(595,579,c),
(602,576,o),
(608,574,o),
(615,574,cs),
(640,574,o),
(657,592,o),
(657,615,cs),
(657,630,o),
(649,645,o),
(637,651,c),
(566,695,o),
(495,721,o),
(394,721,cs),
(268,721,o),
(157,660,o),
(98,552,cs),
(67,499,o),
(53,438,o),
(53,369,cs),
(53,234,o),
(112,123,o),
(218,63,cs),
(270,33,o),
(329,18,o),
(396,18,cs)
);
},
{
closed = 1;
nodes = (
(301,749,o),
(307,751,o),
(313,756,cs),
(389,820,ls),
(394,825,o),
(399,825,o),
(404,820,cs),
(480,756,ls),
(486,751,o),
(492,749,o),
(499,749,cs),
(516,749,o),
(530,764,o),
(529,779,cs),
(529,787,o),
(525,794,o),
(521,799,cs),
(455,867,ls),
(442,881,o),
(431,886,o),
(415,886,cs),
(378,886,ls),
(362,886,o),
(351,881,o),
(338,867,cs),
(271,799,l),
(268,794,o),
(264,787,o),
(264,779,cs),
(263,764,o),
(277,749,o),
(294,749,cs)
);
}
);
userData = {
com.hugojourdan.ColorFlow = {
"0" = 0;
"1" = 0;
"10" = 0;
"11" = 0;
"2" = 0;
"3" = 0;
"4" = 0;
"5" = 0;
"6" = 0;
"7" = 0;
"8" = 0;
"9" = 0;
};
};
width = 739;
}
);
note = Gcircumflex;
unicode = 284;
}
{
glyphname = gcircumflex;
kernLeft = c;
kernRight = g;
layers = (
{
layerId = "162F4A02-D1DE-460C-9ADC-EEB0D0B313BF";
shapes = (
{
closed = 1;
nodes = (
(458,-206,o),
(540,-114,o),
(540,50,cs),
(540,487,ls),
(540,511,o),
(519,533,o),
(494,533,cs),
(469,533,o),
(449,511,o),
(449,487,cs),
(449,466,l),
(404,513,o),
(349,538,o),
(283,538,cs),
(206,538,o),
(128,500,o),
(81,424,cs),
(58,384,o),
(46,338,o),
(46,283,cs),
(46,174,o),
(99,95,o),
(172,57,cs),
(207,38,o),
(244,28,o),
(283,28,cs),
(349,28,o),
(404,52,o),
(449,100,c),
(449,38,ls),
(449,-69,o),
(399,-120,o),
(301,-120,cs),
(243,-120,o),
(189,-108,o),
(140,-83,cs),
(135,-81,o),
(129,-79,o),
(122,-79,cs),
(100,-79,o),
(82,-100,o),
(82,-120,cs),
(82,-136,o),
(88,-148,o),
(101,-156,cs),
(150,-184,o),
(234,-206,o),
(310,-206,cs)
);
},
{
closed = 1;
nodes = (
(204,111,o),
(137,171,o),
(137,283,cs),
(137,395,o),
(204,455,o),
(302,455,cs),
(363,455,o),
(406,426,o),
(449,383,c),
(449,182,l),
(406,139,o),
(363,111,o),
(302,111,cs)
);
},
{
closed = 1;
nodes = (
(213,581,o),
(219,583,o),
(225,588,cs),
(301,652,ls),
(306,657,o),
(312,657,o),
(316,652,c),
(393,588,ls),
(398,583,o),
(404,581,o),
(411,581,cs),
(428,581,o),
(442,596,o),
(441,611,cs),
(441,619,o),
(438,626,o),
(434,631,cs),
(367,699,ls),
(354,713,o),
(343,718,o),
(327,718,cs),
(290,718,ls),
(274,718,o),
(263,713,o),
(250,699,cs),
(184,631,ls),
(180,626,o),
(176,619,o),
(176,611,cs),
(175,596,o),
(189,581,o),
(206,581,cs)
);
}
);
userData = {
com.hugojourdan.ColorFlow = {
"0" = 0;
"1" = 0;
"10" = 0;
"11" = 0;
"2" = 0;
"3" = 0;
"4" = 0;
"5" = 0;
"6" = 0;
"7" = 0;
"8" = 0;
"9" = 0;
};
};
width = 616;
}
);
note = gcircumflex;
unicode = 285;
}
{
glyphname = gdotaccent;
kernLeft = c;
kernRight = g;
layers = (
{
layerId = "162F4A02-D1DE-460C-9ADC-EEB0D0B313BF";
shapes = (
{
closed = 1;
nodes = (
(458,-206,o),
(540,-114,o),
(540,50,cs),
(540,487,ls),
(540,511,o),
(519,533,o),
(494,533,cs),
(469,533,o),
(449,511,o),
(449,487,cs),
(449,466,l),
(404,513,o),
(349,538,o),
(283,538,cs),
(206,538,o),
(128,500,o),
(81,424,cs),
(58,384,o),
(46,338,o),
(46,283,cs),
(46,174,o),
(99,95,o),
(172,57,cs),
(207,38,o),
(244,28,o),
(283,28,cs),
(349,28,o),
(404,52,o),
(449,100,c),
(449,38,ls),
(449,-69,o),
(399,-120,o),
(301,-120,cs),
(243,-120,o),
(189,-108,o),
(140,-83,cs),
(135,-81,o),
(129,-79,o),
(122,-79,cs),
(100,-79,o),
(82,-100,o),
(82,-120,cs),
(82,-136,o),
(88,-148,o),
(101,-156,cs),
(150,-184,o),
(234,-206,o),
(310,-206,cs)
);
},
{
closed = 1;
nodes = (
(204,111,o),
(137,171,o),
(137,283,cs),
(137,395,o),
(204,455,o),
(302,455,cs),
(363,455,o),
(406,426,o),
(449,383,c),
(449,182,l),
(406,139,o),
(363,111,o),
(302,111,cs)
);
},
{
closed = 1;
nodes = (
(336,590,o),
(359,613,o),
(359,640,cs),
(359,668,o),
(336,691,o),
(309,691,cs),
(281,691,o),
(258,668,o),
(258,640,cs),
(258,613,o),
(281,590,o),
(309,590,cs)
);
}
);
userData = {
com.hugojourdan.ColorFlow = {
"0" = 0;
"1" = 0;
"10" = 0;
"11" = 0;
"2" = 0;
"3" = 0;
"4" = 0;
"5" = 0;
"6" = 0;
"7" = 0;
"8" = 0;
"9" = 0;
};
};
width = 616;
}
);
note = gdotaccent;
unicode = 289;
}
{
glyphname = gcommaaccent;
kernLeft = c;
kernRight = g;
layers = (
{
layerId = "162F4A02-D1DE-460C-9ADC-EEB0D0B313BF";
shapes = (
{
closed = 1;
nodes = (
(458,-206,o),
(540,-114,o),
(540,50,cs),
(540,487,ls),
(540,511,o),
(519,533,o),
(494,533,cs),
(469,533,o),
(449,511,o),
(449,487,cs),
(449,466,l),
(404,513,o),
(349,538,o),
(283,538,cs),
(206,538,o),
(128,500,o),
(81,424,cs),
(58,384,o),
(46,338,o),
(46,283,cs),
(46,174,o),
(99,95,o),
(172,57,cs),
(207,38,o),
(244,28,o),
(283,28,cs),
(349,28,o),
(404,52,o),
(449,100,c),
(449,38,ls),
(449,-69,o),
(399,-120,o),
(301,-120,cs),
(243,-120,o),
(189,-108,o),
(140,-83,cs),
(135,-81,o),
(129,-79,o),
(122,-79,cs),
(100,-79,o),
(82,-100,o),
(82,-120,cs),
(82,-136,o),
(88,-148,o),
(101,-156,cs),
(150,-184,o),
(234,-206,o),
(310,-206,cs)
);
},
{
closed = 1;
nodes = (
(204,111,o),
(137,171,o),
(137,283,cs),
(137,395,o),
(204,455,o),
(302,455,cs),
(363,455,o),
(406,426,o),
(449,383,c),
(449,182,l),
(406,139,o),
(363,111,o),
(302,111,cs)
);
},
{
closed = 1;
nodes = (
(335,590,o),
(356,613,o),
(356,640,cs),
(356,669,o),
(336,688,o),
(309,688,c),
(309,711,o),
(323,724,o),
(351,741,c),
(357,746,o),
(362,753,o),
(362,762,cs),
(362,775,o),
(353,786,o),
(340,786,cs),
(335,786,o),
(329,784,o),
(323,781,cs),
(284,758,o),
(257,725,o),
(257,675,cs),
(257,642,ls),
(257,612,o),
(277,590,o),
(307,590,cs)
);
}
);
userData = {
com.hugojourdan.ColorFlow = {
"0" = 0;
"1" = 0;
"10" = 0;
"11" = 0;
"2" = 0;
"3" = 0;
"4" = 0;
"5" = 0;
"6" = 0;
"7" = 0;
"8" = 0;
"9" = 0;
};
};
width = 616;
}
);
note = uni0123;
unicode = 291;
}
{
glyphname = Hcircumflex;
kernLeft = B;
kernRight = H;
layers = (
{
anchors = (
{
name = top;
pos = (368,886);
}
);
layerId = "162F4A02-D1DE-460C-9ADC-EEB0D0B313BF";
shapes = (
{
closed = 1;
nodes = (
(163,23,o),
(185,43,o),
(185,68,cs),
(185,327,l),
(553,327,l),
(553,68,ls),
(553,44,o),
(573,23,o),
(598,23,cs),
(622,23,o),
(644,43,o),
(644,68,cs),
(644,671,ls),
(644,695,o),
(622,717,o),
(598,717,cs),
(572,717,o),
(553,695,o),
(553,671,cs),
(553,412,l),
(185,412,l),
(185,671,ls),
(185,695,o),
(163,717,o),
(139,717,cs),
(113,717,o),
(94,695,o),
(94,671,cs),
(94,68,ls),
(94,44,o),
(114,23,o),
(139,23,cs)
);
},
{
closed = 1;
nodes = (
(273,749,o),
(279,751,o),
(285,756,cs),
(361,820,ls),
(366,825,o),
(372,825,o),
(377,820,cs),
(453,756,ls),
(459,751,o),
(465,749,o),
(472,749,cs),
(488,749,o),
(503,764,o),
(502,779,cs),
(502,787,o),
(498,794,o),
(494,799,cs),
(428,867,ls),
(415,881,o),
(403,886,o),
(388,886,cs),
(351,886,ls),
(335,886,o),
(323,881,o),
(311,867,cs),
(244,799,ls),
(240,794,o),
(236,787,o),
(236,779,cs),
(235,764,o),
(250,749,o),
(267,749,cs)
);
}
);
userData = {
com.hugojourdan.ColorFlow = {
"0" = 0;
"1" = 0;
"10" = 0;
"11" = 0;
"2" = 0;
"3" = 0;
"4" = 0;
"5" = 0;
"6" = 0;
"7" = 0;
"8" = 0;
"9" = 0;
};
};
width = 737;
}
);
note = Hcircumflex;
unicode = 292;
}
{
glyphname = Hbar;
kernLeft = B;
kernRight = H;
layers = (
{
anchors = (
{
name = top;
pos = (374,703);
}
);
layerId = "162F4A02-D1DE-460C-9ADC-EEB0D0B313BF";
shapes = (
{
closed = 1;
nodes = (
(168,23,o),
(189,43,o),
(189,68,cs),
(189,327,l),
(558,327,l),
(558,68,ls),
(558,44,o),
(578,23,o),
(603,23,cs),
(627,23,o),
(648,43,o),
(648,68,cs),
(648,527,l),
(690,527,ls),
(710,527,o),
(727,542,o),
(727,562,cs),
(727,582,o),
(710,598,o),
(690,598,cs),
(648,598,l),
(648,671,ls),
(648,695,o),
(627,717,o),
(603,717,cs),
(577,717,o),
(558,695,o),
(558,671,cs),
(558,598,l),
(189,598,l),
(189,671,ls),
(189,695,o),
(168,717,o),
(144,717,cs),
(118,717,o),
(99,695,o),
(99,671,cs),
(99,598,l),
(56,598,ls),
(37,598,o),
(21,583,o),
(21,562,cs),
(21,543,o),
(36,527,o),
(56,527,cs),
(99,527,l),
(99,68,ls),
(99,44,o),
(119,23,o),
(144,23,cs)
);
},
{
closed = 1;
nodes = (
(189,527,l),
(558,527,l),
(558,412,l),
(189,412,l)
);
}
);
userData = {
com.hugojourdan.ColorFlow = {
"0" = 0;
"1" = 0;
"10" = 0;
"11" = 0;
"2" = 0;
"3" = 0;
"4" = 0;
"5" = 0;
"6" = 0;
"7" = 0;
"8" = 0;
"9" = 0;
};
};
width = 747;
}
);
note = Hbar;
unicode = 294;
}
{
glyphname = hbar;
kernLeft = b;
kernRight = a;
layers = (
{
layerId = "162F4A02-D1DE-460C-9ADC-EEB0D0B313BF";
shapes = (
{
closed = 1;
nodes = (
(150,23,o),
(172,43,o),
(172,68,cs),
(172,361,l),
(218,418,o),
(266,454,o),
(331,454,cs),
(401,454,o),
(438,415,o),
(438,336,cs),
(438,68,ls),
(438,44,o),
(458,23,o),
(482,23,cs),
(507,23,o),
(528,43,o),
(528,68,cs),
(528,345,ls),
(528,417,o),
(499,478,o),
(447,512,cs),
(419,530,o),
(388,538,o),
(353,538,cs),
(275,538,o),
(222,504,o),
(172,450,c),
(172,588,l),
(284,588,ls),
(303,588,o),
(318,601,o),
(318,621,cs),
(318,639,o),
(303,655,o),
(284,655,cs),
(172,655,l),
(172,702,ls),
(172,726,o),
(150,748,o),
(126,748,cs),
(101,748,o),
(81,726,o),
(81,702,cs),
(81,655,l),
(36,655,ls),
(17,655,o),
(3,639,o),
(3,621,cs),
(3,602,o),
(18,588,o),
(36,588,cs),
(81,588,l),
(81,68,ls),
(81,44,o),
(102,23,o),
(126,23,cs)
);
}
);
userData = {
com.hugojourdan.ColorFlow = {
"0" = 0;
"1" = 0;
"10" = 0;
"11" = 0;
"2" = 0;
"3" = 0;
"4" = 0;
"5" = 0;
"6" = 0;
"7" = 0;
"8" = 0;
"9" = 0;
};
};
width = 600;
}
);
note = hbar;
unicode = 295;
}
{
glyphname = Itilde;
kernLeft = B;
kernRight = H;
layers = (
{
anchors = (
{
name = odot;
pos = (280,682);
},
{
name = top;
pos = (140,886);
}
);
layerId = "162F4A02-D1DE-460C-9ADC-EEB0D0B313BF";
shapes = (
{
closed = 1;
nodes = (
(163,23,o),
(185,43,o),
(185,68,cs),
(185,671,ls),
(185,695,o),
(163,717,o),
(139,717,cs),
(113,717,o),
(94,695,o),
(94,671,cs),
(94,68,ls),
(94,44,o),
(114,23,o),
(139,23,cs)
);
},
{
closed = 1;
nodes = (
(17,754,o),
(24,760,o),
(28,772,cs),
(37,793,o),
(50,802,o),
(65,802,cs),
(88,802,o),
(105,795,o),
(136,780,cs),
(170,764,o),
(189,756,o),
(216,756,cs),
(264,756,o),
(299,803,o),
(299,849,cs),
(298,862,o),
(288,872,o),
(275,872,cs),
(264,872,o),
(255,864,o),
(250,850,cs),
(242,832,o),
(231,825,o),
(215,825,cs),
(191,825,o),
(173,833,o),
(143,847,cs),
(110,863,o),
(91,871,o),
(64,871,cs),
(17,871,o),
(-19,820,o),
(-19,777,cs),
(-19,763,o),
(-7,754,o),
(5,754,cs)
);
}
);
userData = {
com.hugojourdan.ColorFlow = {
"0" = 0;
"1" = 0;
"10" = 0;
"11" = 0;
"2" = 0;
"3" = 0;
"4" = 0;
"5" = 0;
"6" = 0;
"7" = 0;
"8" = 0;
"9" = 0;
};
};
width = 278;
}
);
note = Itilde;
unicode = 296;
}
{
glyphname = itilde;
kernLeft = ilong;
kernRight = g;
layers = (
{
anchors = (
{
name = odot;
pos = (255,493);
}
);
layerId = "162F4A02-D1DE-460C-9ADC-EEB0D0B313BF";
shapes = (
{
closed = 1;
nodes = (
(146,23,o),
(167,43,o),
(167,68,cs),
(167,487,ls),
(167,513,o),
(147,533,o),
(121,533,cs),
(96,533,o),
(76,511,o),
(76,487,cs),
(76,68,ls),
(76,44,o),
(97,23,o),
(121,23,cs)
);
},
{
closed = 1;
nodes = (
(-1,586,o),
(7,592,o),
(11,604,cs),
(20,625,o),
(32,634,o),
(48,634,cs),
(70,634,o),
(88,627,o),
(118,612,cs),
(152,596,o),
(172,588,o),
(198,588,cs),
(246,588,o),
(281,635,o),
(281,681,cs),
(280,694,o),
(271,704,o),
(258,704,cs),
(246,704,o),
(237,696,o),
(232,682,cs),
(225,664,o),
(214,657,o),
(197,657,cs),
(174,657,o),
(155,665,o),
(125,679,cs),
(93,695,o),
(73,703,o),
(47,703,cs),
(-1,703,o),
(-36,652,o),
(-36,609,cs),
(-36,595,o),
(-24,586,o),
(-13,586,cs)
);
}
);
userData = {
com.hugojourdan.ColorFlow = {
"0" = 0;
"1" = 0;
"10" = 0;
"11" = 0;
"2" = 0;
"3" = 0;
"4" = 0;
"5" = 0;
"6" = 0;
"7" = 0;
"8" = 0;
"9" = 0;
};
};
width = 243;
}
);
note = itilde;
unicode = 297;
}
{
glyphname = Imacron;
kernLeft = B;
kernRight = H;
layers = (
{
anchors = (
{
name = odot;
pos = (281,672);
},
{
name = top;
pos = (146,886);
}
);
layerId = "162F4A02-D1DE-460C-9ADC-EEB0D0B313BF";
shapes = (
{
closed = 1;
nodes = (
(169,23,o),
(190,43,o),
(190,68,cs),
(190,671,ls),
(190,695,o),
(169,717,o),
(145,717,cs),
(119,717,o),
(100,695,o),
(100,671,cs),
(100,68,ls),
(100,44,o),
(120,23,o),
(145,23,cs)
);
},
{
closed = 1;
nodes = (
(234,770,ls),
(251,770,o),
(265,784,o),
(265,800,cs),
(265,817,o),
(251,831,o),
(234,831,cs),
(57,831,ls),
(40,831,o),
(26,817,o),
(26,800,cs),
(26,784,o),
(40,770,o),
(57,770,cs)
);
}
);
userData = {
com.hugojourdan.ColorFlow = {
"0" = 0;
"1" = 0;
"10" = 0;
"11" = 0;
"2" = 0;
"3" = 0;
"4" = 0;
"5" = 0;
"6" = 0;
"7" = 0;
"8" = 0;
"9" = 0;
};
};
width = 290;
}
);
note = Imacron;
unicode = 298;
}
{
glyphname = imacron;
kernLeft = ilong;
kernRight = g;
layers = (
{
anchors = (
{
name = odot;
pos = (255,493);
}
);
layerId = "162F4A02-D1DE-460C-9ADC-EEB0D0B313BF";
shapes = (
{
closed = 1;
nodes = (
(146,23,o),
(167,43,o),
(167,68,cs),
(167,487,ls),
(167,513,o),
(147,533,o),
(121,533,cs),
(96,533,o),
(76,511,o),
(76,487,cs),
(76,68,ls),
(76,44,o),
(97,23,o),
(121,23,cs)
);
},
{
closed = 1;
nodes = (
(207,602,ls),
(224,602,o),
(237,616,o),
(237,633,cs),
(237,649,o),
(224,663,o),
(207,663,cs),
(37,663,ls),
(21,663,o),
(7,649,o),
(7,633,cs),
(7,616,o),
(21,602,o),
(37,602,cs)
);
}
);
userData = {
com.hugojourdan.ColorFlow = {
"0" = 0;
"1" = 0;
"10" = 0;
"11" = 0;
"2" = 0;
"3" = 0;
"4" = 0;
"5" = 0;
"6" = 0;
"7" = 0;
"8" = 0;
"9" = 0;
};
};
width = 243;
}
);
note = imacron;
unicode = 299;
}
{
glyphname = Ibreve;
kernLeft = B;
kernRight = H;
layers = (
{
anchors = (
{
name = odot;
pos = (275,721);
},
{
name = top;
pos = (140,886);
}
);
layerId = "162F4A02-D1DE-460C-9ADC-EEB0D0B313BF";
shapes = (
{
closed = 1;
nodes = (
(163,23,o),
(185,43,o),
(185,68,cs),
(185,671,ls),
(185,695,o),
(163,717,o),
(139,717,cs),
(113,717,o),
(94,695,o),
(94,671,cs),
(94,68,ls),
(94,44,o),
(114,23,o),
(139,23,cs)
);
},
{
closed = 1;
nodes = (
(201,758,o),
(253,790,o),
(277,839,cs),
(279,842,o),
(280,847,o),
(280,852,cs),
(280,869,o),
(268,883,o),
(249,883,cs),
(235,883,o),
(227,877,o),
(221,864,cs),
(206,835,o),
(178,817,o),
(140,817,cs),
(102,817,o),
(73,835,o),
(59,864,cs),
(53,877,o),
(44,883,o),
(30,883,cs),
(12,883,o),
(-1,869,o),
(-1,852,cs),
(-1,847,o),
(0,842,o),
(2,839,cs),
(26,790,o),
(78,758,o),
(140,758,cs)
);
}
);
userData = {
com.hugojourdan.ColorFlow = {
"0" = 0;
"1" = 0;
"10" = 0;
"11" = 0;
"2" = 0;
"3" = 0;
"4" = 0;
"5" = 0;
"6" = 0;
"7" = 0;
"8" = 0;
"9" = 0;
};
};
width = 278;
}
);
note = Ibreve;
unicode = 300;
}
{
glyphname = ibreve;
kernLeft = ilong;
kernRight = g;
layers = (
{
anchors = (
{
name = odot;
pos = (255,522);
}
);
layerId = "162F4A02-D1DE-460C-9ADC-EEB0D0B313BF";
shapes = (
{
closed = 1;
nodes = (
(146,23,o),
(167,43,o),
(167,68,cs),
(167,487,ls),
(167,513,o),
(147,533,o),
(121,533,cs),
(96,533,o),
(76,511,o),
(76,487,cs),
(76,68,ls),
(76,44,o),
(97,23,o),
(121,23,cs)
);
},
{
closed = 1;
nodes = (
(185,591,o),
(237,620,o),
(260,671,cs),
(262,675,o),
(263,679,o),
(263,684,cs),
(263,701,o),
(250,716,o),
(231,716,cs),
(218,716,o),
(209,709,o),
(203,696,cs),
(188,667,o),
(160,649,o),
(122,649,cs),
(84,649,o),
(56,667,o),
(41,696,cs),
(35,709,o),
(26,716,o),
(13,716,cs),
(-6,716,o),
(-19,701,o),
(-19,684,cs),
(-19,679,o),
(-18,675,o),
(-16,671,cs),
(7,620,o),
(60,591,o),
(122,591,cs)
);
}
);
userData = {
com.hugojourdan.ColorFlow = {
"0" = 0;
"1" = 0;
"10" = 0;
"11" = 0;
"2" = 0;
"3" = 0;
"4" = 0;
"5" = 0;
"6" = 0;
"7" = 0;
"8" = 0;
"9" = 0;
};
};
width = 243;
}
);
note = ibreve;
unicode = 301;
}
{
glyphname = Iogonek;
kernLeft = B;
kernRight = H;
layers = (
{
anchors = (
{
name = odot;
pos = (275,721);
},
{
name = top;
pos = (139,716);
}
);
layerId = "162F4A02-D1DE-460C-9ADC-EEB0D0B313BF";
shapes = (
{
closed = 1;
nodes = (
(174,-170,o),
(198,-162,o),
(221,-147,cs),
(228,-142,o),
(231,-136,o),
(231,-128,cs),
(231,-115,o),
(222,-106,o),
(209,-106,cs),
(207,-106,o),
(205,-107,o),
(203,-107,cs),
(202,-107,o),
(201,-108,o),
(200,-108,c),
(188,-112,o),
(176,-114,o),
(166,-114,cs),
(134,-114,o),
(117,-96,o),
(117,-66,cs),
(117,-28,o),
(134,-7,o),
(160,23,cs),
(167,30,o),
(171,35,o),
(173,38,cs),
(182,51,o),
(185,62,o),
(185,78,cs),
(185,671,ls),
(185,695,o),
(163,717,o),
(139,717,cs),
(113,717,o),
(94,695,o),
(94,671,cs),
(94,68,ls),
(94,52,o),
(101,42,o),
(111,33,c),
(68,5,o),
(44,-34,o),
(44,-77,cs),
(44,-133,o),
(86,-170,o),
(146,-170,cs)
);
}
);
userData = {
com.hugojourdan.ColorFlow = {
"0" = 0;
"1" = 0;
"10" = 0;
"11" = 0;
"2" = 0;
"3" = 0;
"4" = 0;
"5" = 0;
"6" = 0;
"7" = 0;
"8" = 0;
"9" = 0;
};
};
width = 278;
}
);
note = Iogonek;
unicode = 302;
}
{
glyphname = iogonek;
kernLeft = i;
layers = (
{
anchors = (
{
name = odot;
pos = (255,493);
}
);
layerId = "162F4A02-D1DE-460C-9ADC-EEB0D0B313BF";
shapes = (
{
closed = 1;
nodes = (
(156,-170,o),
(181,-162,o),
(203,-147,cs),
(210,-142,o),
(214,-136,o),
(214,-128,cs),
(214,-115,o),
(204,-106,o),
(191,-106,cs),
(189,-106,o),
(188,-107,o),
(186,-107,cs),
(185,-107,o),
(184,-108,o),
(183,-108,c),
(170,-112,o),
(158,-114,o),
(148,-114,cs),
(116,-114,o),
(100,-96,o),
(100,-66,cs),
(100,-28,o),
(116,-7,o),
(143,23,cs),
(149,30,o),
(153,35,o),
(155,38,cs),
(164,51,o),
(167,62,o),
(167,78,cs),
(167,487,ls),
(167,511,o),
(146,533,o),
(121,533,cs),
(96,533,o),
(76,511,o),
(76,487,cs),
(76,68,ls),
(76,52,o),
(83,42,o),
(94,33,c),
(51,5,o),
(26,-34,o),
(26,-77,cs),
(26,-133,o),
(68,-170,o),
(128,-170,cs)
);
},
{
closed = 1;
nodes = (
(149,590,o),
(173,613,o),
(173,640,cs),
(173,668,o),
(149,691,o),
(122,691,cs),
(95,691,o),
(71,668,o),
(71,640,cs),
(71,613,o),
(95,590,o),
(122,590,cs)
);
}
);
userData = {
com.hugojourdan.ColorFlow = {
"0" = 0;
"1" = 0;
"10" = 0;
"11" = 0;
"2" = 0;
"3" = 0;
"4" = 0;
"5" = 0;
"6" = 0;
"7" = 0;
"8" = 0;
"9" = 0;
};
};
width = 243;
}
);
note = iogonek;
unicode = 303;
}
{
glyphname = Idotaccent;
kernLeft = B;
kernRight = H;
layers = (
{
anchors = (
{
name = odot;
pos = (275,721);
},
{
name = top;
pos = (140,886);
}
);
layerId = "162F4A02-D1DE-460C-9ADC-EEB0D0B313BF";
shapes = (
{
closed = 1;
nodes = (
(163,23,o),
(185,43,o),
(185,68,cs),
(185,671,ls),
(185,695,o),
(163,717,o),
(139,717,cs),
(113,717,o),
(94,695,o),
(94,671,cs),
(94,68,ls),
(94,44,o),
(114,23,o),
(139,23,cs)
);
},
{
closed = 1;
nodes = (
(167,758,o),
(190,781,o),
(190,808,cs),
(190,836,o),
(167,859,o),
(140,859,cs),
(112,859,o),
(89,836,o),
(89,808,cs),
(89,781,o),
(112,758,o),
(140,758,cs)
);
}
);
userData = {
com.hugojourdan.ColorFlow = {
"0" = 0;
"1" = 0;
"10" = 0;
"11" = 0;
"2" = 0;
"3" = 0;
"4" = 0;
"5" = 0;
"6" = 0;
"7" = 0;
"8" = 0;
"9" = 0;
};
};
width = 278;
}
);
note = Idotaccent;
unicode = 304;
}
{
glyphname = Jcircumflex;
kernLeft = J;
layers = (
{
anchors = (
{
name = top;
pos = (321,885);
}
);
layerId = "162F4A02-D1DE-460C-9ADC-EEB0D0B313BF";
shapes = (
{
closed = 1;
nodes = (
(297,18,o),
(366,99,o),
(366,254,cs),
(366,671,ls),
(366,695,o),
(345,717,o),
(320,717,cs),
(295,717,o),
(275,695,o),
(275,671,cs),
(275,248,ls),
(275,136,o),
(229,104,o),
(158,104,cs),
(128,104,o),
(98,111,o),
(67,126,c),
(63,129,o),
(57,130,o),
(50,130,cs),
(27,130,o),
(12,109,o),
(12,89,cs),
(12,72,o),
(20,60,o),
(33,51,c),
(73,29,o),
(116,18,o),
(164,18,cs)
);
},
{
closed = 1;
nodes = (
(225,749,o),
(230,751,o),
(236,756,cs),
(313,820,l),
(317,825,o),
(323,825,o),
(328,820,cs),
(404,756,ls),
(410,751,o),
(416,749,o),
(423,749,cs),
(439,749,o),
(454,764,o),
(453,779,cs),
(453,787,o),
(449,794,o),
(445,799,cs),
(379,867,ls),
(366,881,o),
(354,886,o),
(339,886,cs),
(302,886,ls),
(286,886,o),
(274,881,o),
(262,867,cs),
(195,799,ls),
(191,794,o),
(188,787,o),
(188,779,cs),
(187,764,o),
(201,749,o),
(218,749,cs)
);
}
);
userData = {
com.hugojourdan.ColorFlow = {
"0" = 0;
"1" = 0;
"10" = 0;
"11" = 0;
"2" = 0;
"3" = 0;
"4" = 0;
"5" = 0;
"6" = 0;
"7" = 0;
"8" = 0;
"9" = 0;
};
};
width = 455;
}
);
note = Jcircumflex;
unicode = 308;
}
{
glyphname = jcircumflex;
kernLeft = i;
kernRight = uni01C8;
layers = (
{
anchors = (
{
name = odot;
pos = (255,493);
}
);
layerId = "162F4A02-D1DE-460C-9ADC-EEB0D0B313BF";
shapes = (
{
closed = 1;
nodes = (
(127,-206,o),
(172,-159,o),
(172,-72,cs),
(172,486,ls),
(172,512,o),
(152,532,o),
(126,532,cs),
(101,532,o),
(81,510,o),
(81,486,cs),
(81,-70,ls),
(81,-117,o),
(63,-126,o),
(22,-126,cs),
(19,-126,o),
(14,-126,o),
(8,-125,cs),
(5,-125,ls),
(0,-124,o),
(-4,-123,o),
(-7,-123,cs),
(-28,-123,o),
(-45,-142,o),
(-45,-161,cs),
(-45,-178,o),
(-35,-193,o),
(-19,-198,cs),
(-1,-203,o),
(20,-206,o),
(43,-206,cs)
);
},
{
closed = 1;
nodes = (
(31,581,o),
(37,583,o),
(43,588,cs),
(119,652,ls),
(124,657,o),
(130,657,o),
(135,652,cs),
(211,588,ls),
(217,583,o),
(223,581,o),
(229,581,cs),
(246,581,o),
(261,596,o),
(260,611,cs),
(260,619,o),
(256,626,o),
(252,631,cs),
(186,699,ls),
(173,713,o),
(161,718,o),
(146,718,cs),
(108,718,ls),
(93,718,o),
(81,713,o),
(68,699,cs),
(2,631,ls),
(-2,626,o),
(-6,619,o),
(-6,611,cs),
(-7,596,o),
(8,581,o),
(24,581,cs)
);
}
);
userData = {
com.hugojourdan.ColorFlow = {
"0" = 0;
"1" = 0;
"10" = 0;
"11" = 0;
"2" = 0;
"3" = 0;
"4" = 0;
"5" = 0;
"6" = 0;
"7" = 0;
"8" = 0;
"9" = 0;
};
};
width = 248;
}
);
note = jcircumflex;
unicode = 309;
}
{
glyphname = Kcommaaccent;
kernLeft = B;
kernRight = K;
layers = (
{
anchors = (
{
name = top;
pos = (324,706);
}
);
layerId = "162F4A02-D1DE-460C-9ADC-EEB0D0B313BF";
shapes = (
{
closed = 1;
nodes = (
(163,23,o),
(185,43,o),
(185,68,cs),
(185,251,l),
(295,361,l),
(546,41,ls),
(556,29,o),
(567,23,o),
(582,23,cs),
(606,23,o),
(627,43,o),
(626,67,cs),
(626,78,o),
(622,88,o),
(615,96,cs),
(356,422,l),
(582,645,ls),
(589,653,o),
(593,665,o),
(593,676,cs),
(593,700,o),
(573,717,o),
(551,717,cs),
(538,717,o),
(525,712,o),
(517,701,c),
(185,362,l),
(185,671,ls),
(185,695,o),
(163,717,o),
(139,717,cs),
(113,717,o),
(94,695,o),
(94,671,cs),
(94,68,ls),
(94,44,o),
(114,23,o),
(139,23,cs)
);
},
{
closed = 1;
nodes = (
(303,-229,o),
(309,-227,o),
(314,-224,cs),
(354,-200,o),
(381,-168,o),
(381,-117,cs),
(381,-85,ls),
(381,-55,o),
(360,-33,o),
(331,-33,cs),
(303,-33,o),
(281,-56,o),
(281,-83,cs),
(281,-112,o),
(302,-131,o),
(329,-131,c),
(329,-154,o),
(314,-167,o),
(287,-184,cs),
(280,-189,o),
(275,-196,o),
(275,-205,cs),
(275,-218,o),
(285,-229,o),
(298,-229,cs)
);
}
);
userData = {
com.hugojourdan.ColorFlow = {
"0" = 0;
"1" = 0;
"10" = 0;
"11" = 0;
"2" = 0;
"3" = 0;
"4" = 0;
"5" = 0;
"6" = 0;
"7" = 0;
"8" = 0;
"9" = 0;
};
};
width = 654;
}
);
note = uni0136;
unicode = 310;
}
{
glyphname = kcommaaccent;
kernLeft = b;
kernRight = k;
layers = (
{
layerId = "162F4A02-D1DE-460C-9ADC-EEB0D0B313BF";
shapes = (
{
closed = 1;
nodes = (
(146,23,o),
(167,43,o),
(167,68,cs),
(167,194,l),
(251,270,l),
(418,42,ls),
(427,30,o),
(442,23,o),
(455,23,cs),
(481,23,o),
(501,41,o),
(501,67,cs),
(501,77,o),
(497,86,o),
(491,94,cs),
(314,328,l),
(455,453,l),
(465,464,o),
(472,475,o),
(472,487,cs),
(472,514,o),
(456,531,o),
(428,531,cs),
(417,531,o),
(407,526,o),
(397,518,c),
(167,304,l),
(167,702,ls),
(167,726,o),
(146,748,o),
(121,748,cs),
(96,748,o),
(76,726,o),
(76,702,cs),
(76,68,ls),
(76,44,o),
(97,23,o),
(121,23,cs)
);
},
{
closed = 1;
nodes = (
(242,-229,o),
(248,-227,o),
(254,-224,cs),
(293,-200,o),
(320,-168,o),
(320,-117,cs),
(320,-85,ls),
(320,-55,o),
(300,-33,o),
(271,-33,cs),
(242,-33,o),
(221,-56,o),
(221,-83,cs),
(221,-112,o),
(241,-131,o),
(269,-131,c),
(269,-154,o),
(254,-167,o),
(227,-184,cs),
(220,-189,o),
(215,-196,o),
(215,-205,cs),
(215,-218,o),
(225,-229,o),
(237,-229,cs)
);
}
);
userData = {
com.hugojourdan.ColorFlow = {
"0" = 0;
"1" = 0;
"10" = 0;
"11" = 0;
"2" = 0;
"3" = 0;
"4" = 0;
"5" = 0;
"6" = 0;
"7" = 0;
"8" = 0;
"9" = 0;
};
};
width = 532;
}
);
note = uni0137;
unicode = 311;
}
{
glyphname = kgreenlandic;
kernLeft = dotlessi;
kernRight = k;
layers = (
{
layerId = "162F4A02-D1DE-460C-9ADC-EEB0D0B313BF";
shapes = (
{
closed = 1;
nodes = (
(146,23,o),
(167,43,o),
(167,68,cs),
(167,194,l),
(251,270,l),
(418,42,ls),
(427,30,o),
(442,23,o),
(455,23,cs),
(481,23,o),
(501,41,o),
(501,67,cs),
(501,77,o),
(497,86,o),
(491,94,cs),
(314,328,l),
(455,453,l),
(465,464,o),
(472,475,o),
(472,487,cs),
(472,514,o),
(456,531,o),
(428,531,cs),
(417,531,o),
(407,526,o),
(397,518,c),
(167,304,l),
(167,487,ls),
(167,511,o),
(146,533,o),
(121,533,cs),
(96,533,o),
(76,511,o),
(76,487,cs),
(76,68,ls),
(76,44,o),
(97,23,o),
(121,23,cs)
);
}
);
userData = {
com.hugojourdan.ColorFlow = {
"0" = 0;
"1" = 0;
"10" = 0;
"11" = 0;
"2" = 0;
"3" = 0;
"4" = 0;
"5" = 0;
"6" = 0;
"7" = 0;
"8" = 0;
"9" = 0;
};
};
width = 532;
}
);
note = kgreenlandic;
unicode = 312;
}
{
glyphname = Lacute;
kernLeft = B;
kernRight = L;
layers = (
{
anchors = (
{
name = top;
pos = (139,886);
}
);
layerId = "162F4A02-D1DE-460C-9ADC-EEB0D0B313BF";
shapes = (
{
closed = 1;
nodes = (
(503,28,ls),
(527,28,o),
(549,48,o),
(549,73,cs),
(549,97,o),
(527,119,o),
(503,119,cs),
(196,119,ls),
(188,119,o),
(185,123,o),
(185,131,cs),
(185,671,ls),
(185,695,o),
(163,717,o),
(139,717,cs),
(113,717,o),
(94,695,o),
(94,671,cs),
(94,91,ls),
(94,56,o),
(122,28,o),
(156,28,cs)
);
},
{
closed = 1;
nodes = (
(147,750,o),
(155,754,o),
(161,760,cs),
(229,841,ls),
(235,847,o),
(238,857,o),
(238,866,cs),
(238,888,o),
(222,903,o),
(201,903,cs),
(187,903,o),
(175,897,o),
(168,883,cs),
(118,797,ls),
(114,790,o),
(111,784,o),
(111,777,cs),
(111,760,o),
(123,750,o),
(139,750,cs)
);
}
);
userData = {
com.hugojourdan.ColorFlow = {
"0" = 0;
"1" = 0;
"10" = 0;
"11" = 0;
"2" = 0;
"3" = 0;
"4" = 0;
"5" = 0;
"6" = 0;
"7" = 0;
"8" = 0;
"9" = 0;
};
};
width = 563;
}
);
note = Lacute;
unicode = 313;
}
{
glyphname = lacute;
kernLeft = b;
kernRight = d;
layers = (
{
layerId = "162F4A02-D1DE-460C-9ADC-EEB0D0B313BF";
shapes = (
{
closed = 1;
nodes = (
(146,23,o),
(167,43,o),
(167,68,cs),
(167,702,ls),
(167,728,o),
(147,748,o),
(121,748,cs),
(96,748,o),
(76,726,o),
(76,702,cs),
(76,68,ls),
(76,44,o),
(97,23,o),
(121,23,cs)
);
},
{
closed = 1;
nodes = (
(131,783,o),
(139,787,o),
(145,794,cs),
(212,874,l),
(219,881,o),
(222,890,o),
(222,899,cs),
(222,922,o),
(205,936,o),
(185,936,cs),
(170,936,o),
(158,930,o),
(151,917,cs),
(102,830,ls),
(98,823,o),
(95,817,o),
(95,810,cs),
(95,794,o),
(106,783,o),
(122,783,cs)
);
}
);
userData = {
com.hugojourdan.ColorFlow = {
"0" = 0;
"1" = 0;
"10" = 0;
"11" = 0;
"2" = 0;
"3" = 0;
"4" = 0;
"5" = 0;
"6" = 0;
"7" = 0;
"8" = 0;
"9" = 0;
};
};
width = 243;
}
);
note = lacute;
unicode = 314;
}
{
glyphname = Lcommaaccent;
kernLeft = B;
kernRight = L;
layers = (
{
anchors = (
{
name = top;
pos = (139,716);
}
);
layerId = "162F4A02-D1DE-460C-9ADC-EEB0D0B313BF";
shapes = (
{
closed = 1;
nodes = (
(503,28,ls),
(527,28,o),
(549,48,o),
(549,73,cs),
(549,97,o),
(527,119,o),
(503,119,cs),
(196,119,ls),
(188,119,o),
(185,123,o),
(185,131,cs),
(185,671,ls),
(185,695,o),
(163,717,o),
(139,717,cs),
(113,717,o),
(94,695,o),
(94,671,cs),
(94,91,ls),
(94,56,o),
(122,28,o),
(156,28,cs)
);
},
{
closed = 1;
nodes = (
(297,-229,o),
(303,-227,o),
(309,-224,cs),
(348,-200,o),
(375,-168,o),
(375,-117,cs),
(375,-85,ls),
(375,-55,o),
(354,-33,o),
(325,-33,cs),
(297,-33,o),
(275,-56,o),
(275,-83,cs),
(275,-112,o),
(296,-131,o),
(323,-131,c),
(323,-154,o),
(309,-167,o),
(281,-184,cs),
(274,-189,o),
(270,-196,o),
(270,-205,cs),
(270,-218,o),
(279,-229,o),
(292,-229,cs)
);
}
);
userData = {
com.hugojourdan.ColorFlow = {
"0" = 0;
"1" = 0;
"10" = 0;
"11" = 0;
"2" = 0;
"3" = 0;
"4" = 0;
"5" = 0;
"6" = 0;
"7" = 0;
"8" = 0;
"9" = 0;
};
};
width = 563;
}
);
note = uni013B;
unicode = 315;
}
{
glyphname = Lcaron;
kernLeft = B;
kernRight = L;
layers = (
{
anchors = (
{
name = top;
pos = (139,717);
}
);
layerId = "162F4A02-D1DE-460C-9ADC-EEB0D0B313BF";
shapes = (
{
closed = 1;
nodes = (
(503,28,ls),
(527,28,o),
(549,48,o),
(549,73,cs),
(549,97,o),
(527,119,o),
(503,119,cs),
(196,119,ls),
(188,119,o),
(185,123,o),
(185,131,cs),
(185,671,ls),
(185,695,o),
(163,717,o),
(139,717,cs),
(113,717,o),
(94,695,o),
(94,671,cs),
(94,91,ls),
(94,56,o),
(122,28,o),
(156,28,cs)
);
},
{
closed = 1;
nodes = (
(324,503,o),
(330,505,o),
(336,509,c),
(363,537,o),
(403,566,o),
(403,621,cs),
(403,657,ls),
(403,689,o),
(381,715,o),
(349,715,cs),
(316,715,o),
(293,689,o),
(293,658,cs),
(293,628,o),
(315,606,o),
(347,606,c),
(347,583,o),
(334,571,o),
(308,552,cs),
(299,545,o),
(293,538,o),
(293,529,cs),
(293,513,o),
(305,503,o),
(316,503,cs)
);
}
);
userData = {
com.hugojourdan.ColorFlow = {
"0" = 0;
"1" = 0;
"10" = 0;
"11" = 0;
"2" = 0;
"3" = 0;
"4" = 0;
"5" = 0;
"6" = 0;
"7" = 0;
"8" = 0;
"9" = 0;
};
};
width = 563;
}
);
note = Lcaron;
unicode = 317;
}
{
glyphname = lcaron;
kernLeft = b;
kernRight = d;
layers = (
{
layerId = "162F4A02-D1DE-460C-9ADC-EEB0D0B313BF";
shapes = (
{
closed = 1;
nodes = (
(146,23,o),
(167,43,o),
(167,68,cs),
(167,702,ls),
(167,728,o),
(147,748,o),
(121,748,cs),
(96,748,o),
(76,726,o),
(76,702,cs),
(76,68,ls),
(76,44,o),
(97,23,o),
(121,23,cs)
);
},
{
closed = 1;
nodes = (
(220,569,o),
(226,571,o),
(230,575,c),
(270,603,o),
(287,629,o),
(287,669,cs),
(287,699,ls),
(287,727,o),
(269,748,o),
(241,748,cs),
(214,748,o),
(194,726,o),
(194,700,cs),
(194,675,o),
(214,656,o),
(239,656,c),
(239,636,o),
(228,627,o),
(207,611,cs),
(199,605,o),
(194,599,o),
(194,592,cs),
(194,579,o),
(205,569,o),
(214,569,cs)
);
}
);
userData = {
com.hugojourdan.ColorFlow = {
"0" = 0;
"1" = 0;
"10" = 0;
"11" = 0;
"2" = 0;
"3" = 0;
"4" = 0;
"5" = 0;
"6" = 0;
"7" = 0;
"8" = 0;
"9" = 0;
};
};
width = 243;
}
);
note = lcaron;
unicode = 318;
}
{
glyphname = Ldot;
kernLeft = B;
kernRight = L;
layers = (
{
anchors = (
{
name = top;
pos = (139,717);
}
);
layerId = "162F4A02-D1DE-460C-9ADC-EEB0D0B313BF";
shapes = (
{
closed = 1;
nodes = (
(503,28,ls),
(527,28,o),
(549,48,o),
(549,73,cs),
(549,97,o),
(527,119,o),
(503,119,cs),
(196,119,ls),
(188,119,o),
(185,123,o),
(185,131,cs),
(185,671,ls),
(185,695,o),
(163,717,o),
(139,717,cs),
(113,717,o),
(94,695,o),
(94,671,cs),
(94,91,ls),
(94,56,o),
(122,28,o),
(156,28,cs)
);
},
{
closed = 1;
nodes = (
(417,356,ls),
(447,356,o),
(473,382,o),
(473,412,cs),
(473,418,ls),
(473,448,o),
(447,473,o),
(417,473,cs),
(407,473,ls),
(377,473,o),
(352,448,o),
(352,418,cs),
(352,412,ls),
(352,382,o),
(377,356,o),
(407,356,cs)
);
}
);
userData = {
com.hugojourdan.ColorFlow = {
"0" = 0;
"1" = 0;
"10" = 0;
"11" = 0;
"2" = 0;
"3" = 0;
"4" = 0;
"5" = 0;
"6" = 0;
"7" = 0;
"8" = 0;
"9" = 0;
};
};
width = 563;
}
);
note = Ldot;
unicode = 319;
}
{
glyphname = Lslash;
kernRight = L;
layers = (
{
anchors = (
{
name = top;
pos = (145,717);
}
);
layerId = "162F4A02-D1DE-460C-9ADC-EEB0D0B313BF";
shapes = (
{
closed = 1;
nodes = (
(508,28,ls),
(532,28,o),
(554,48,o),
(554,73,cs),
(554,97,o),
(532,119,o),
(508,119,cs),
(201,119,ls),
(193,119,o),
(189,123,o),
(189,131,cs),
(189,413,l),
(295,517,ls),
(304,526,o),
(309,536,o),
(309,547,cs),
(309,565,o),
(292,582,o),
(273,582,cs),
(263,582,o),
(254,577,o),
(246,570,cs),
(189,512,l),
(189,671,ls),
(189,695,o),
(168,717,o),
(144,717,cs),
(118,717,o),
(99,695,o),
(99,671,cs),
(99,421,l),
(33,356,ls),
(24,347,o),
(20,338,o),
(20,326,cs),
(20,306,o),
(35,293,o),
(54,293,cs),
(65,293,o),
(75,298,o),
(84,306,cs),
(99,322,l),
(99,91,ls),
(99,56,o),
(127,28,o),
(161,28,cs)
);
}
);
userData = {
com.hugojourdan.ColorFlow = {
"0" = 0;
"1" = 0;
"10" = 0;
"11" = 0;
"2" = 0;
"3" = 0;
"4" = 0;
"5" = 0;
"6" = 0;
"7" = 0;
"8" = 0;
"9" = 0;
};
};
width = 567;
}
);
note = Lslash;
unicode = 321;
}
{
glyphname = lslash;
kernRight = d;
layers = (
{
layerId = "162F4A02-D1DE-460C-9ADC-EEB0D0B313BF";
shapes = (
{
closed = 1;
nodes = (
(150,23,o),
(172,43,o),
(172,68,cs),
(172,412,l),
(239,478,ls),
(246,485,o),
(250,493,o),
(250,503,cs),
(250,519,o),
(232,537,o),
(214,537,cs),
(204,537,o),
(197,533,o),
(190,527,cs),
(172,508,l),
(172,702,ls),
(172,728,o),
(152,748,o),
(126,748,cs),
(101,748,o),
(81,726,o),
(81,702,cs),
(81,416,l),
(13,348,ls),
(7,342,o),
(3,335,o),
(3,325,cs),
(3,306,o),
(21,290,o),
(37,290,cs),
(47,290,o),
(54,294,o),
(61,300,cs),
(81,321,l),
(81,68,ls),
(81,44,o),
(102,23,o),
(126,23,cs)
);
}
);
userData = {
com.hugojourdan.ColorFlow = {
"0" = 0;
"1" = 0;
"10" = 0;
"11" = 0;
"2" = 0;
"3" = 0;
"4" = 0;
"5" = 0;
"6" = 0;
"7" = 0;
"8" = 0;
"9" = 0;
};
};
width = 253;
}
);
note = lslash;
unicode = 322;
}
{
glyphname = nacute;
kernLeft = idotless;
kernRight = a;
layers = (
{
layerId = "162F4A02-D1DE-460C-9ADC-EEB0D0B313BF";
shapes = (
{
closed = 1;
nodes = (
(146,23,o),
(167,43,o),
(167,68,cs),
(167,361,l),
(213,418,o),
(261,454,o),
(326,454,cs),
(396,454,o),
(433,415,o),
(433,336,cs),
(433,68,ls),
(433,44,o),
(453,23,o),
(478,23,cs),
(502,23,o),
(523,43,o),
(523,68,cs),
(523,345,ls),
(523,417,o),
(494,478,o),
(442,512,cs),
(414,530,o),
(383,538,o),
(348,538,cs),
(271,538,o),
(217,504,o),
(167,450,c),
(167,487,ls),
(167,511,o),
(146,533,o),
(121,533,cs),
(96,533,o),
(76,511,o),
(76,487,cs),
(76,68,ls),
(76,44,o),
(97,23,o),
(121,23,cs)
);
},
{
closed = 1;
nodes = (
(307,582,o),
(314,586,o),
(320,592,cs),
(388,673,l),
(395,679,o),
(397,689,o),
(397,698,cs),
(397,720,o),
(381,735,o),
(360,735,cs),
(346,735,o),
(334,729,o),
(327,716,cs),
(277,629,ls),
(273,622,o),
(271,616,o),
(271,609,cs),
(271,592,o),
(282,582,o),
(298,582,cs)
);
}
);
userData = {
com.hugojourdan.ColorFlow = {
"0" = 0;
"1" = 0;
"10" = 0;
"11" = 0;
"2" = 0;
"3" = 0;
"4" = 0;
"5" = 0;
"6" = 0;
"7" = 0;
"8" = 0;
"9" = 0;
};
};
width = 595;
}
);
note = nacute;
unicode = 324;
}
{
glyphname = Ncommaaccent;
kernLeft = B;
kernRight = H;
layers = (
{
anchors = (
{
name = top;
pos = (385,706);
}
);
layerId = "162F4A02-D1DE-460C-9ADC-EEB0D0B313BF";
shapes = (
{
closed = 1;
nodes = (
(163,23,o),
(185,43,o),
(185,68,cs),
(185,569,ls),
(185,580,o),
(192,583,o),
(198,573,cs),
(561,50,ls),
(572,34,o),
(593,23,o),
(613,23,cs),
(625,23,ls),
(660,23,o),
(690,51,o),
(690,88,cs),
(690,671,ls),
(690,695,o),
(669,717,o),
(645,717,cs),
(619,717,o),
(600,695,o),
(600,671,cs),
(600,171,ls),
(600,160,o),
(592,157,o),
(586,167,cs),
(226,687,l),
(211,706,o),
(192,717,o),
(171,717,cs),
(158,717,ls),
(122,717,o),
(94,686,o),
(94,651,cs),
(94,68,ls),
(94,44,o),
(114,23,o),
(139,23,cs)
);
},
{
closed = 1;
nodes = (
(368,-229,o),
(374,-227,o),
(380,-224,cs),
(419,-200,o),
(446,-168,o),
(446,-117,cs),
(446,-85,ls),
(446,-55,o),
(426,-33,o),
(396,-33,cs),
(368,-33,o),
(347,-56,o),
(347,-83,cs),
(347,-112,o),
(367,-131,o),
(395,-131,c),
(395,-154,o),
(380,-167,o),
(353,-184,cs),
(346,-189,o),
(341,-196,o),
(341,-205,cs),
(341,-218,o),
(351,-229,o),
(363,-229,cs)
);
}
);
userData = {
com.hugojourdan.ColorFlow = {
"0" = 0;
"1" = 0;
"10" = 0;
"11" = 0;
"2" = 0;
"3" = 0;
"4" = 0;
"5" = 0;
"6" = 0;
"7" = 0;
"8" = 0;
"9" = 0;
};
};
width = 784;
}
);
note = uni0145;
unicode = 325;
}
{
glyphname = ncommaaccent;
kernLeft = idotless;
kernRight = a;
layers = (
{
layerId = "162F4A02-D1DE-460C-9ADC-EEB0D0B313BF";
shapes = (
{
closed = 1;
nodes = (
(146,23,o),
(167,43,o),
(167,68,cs),
(167,361,l),
(213,418,o),
(261,454,o),
(326,454,cs),
(396,454,o),
(433,415,o),
(433,336,cs),
(433,68,ls),
(433,44,o),
(453,23,o),
(478,23,cs),
(502,23,o),
(523,43,o),
(523,68,cs),
(523,345,ls),
(523,417,o),
(494,478,o),
(442,512,cs),
(414,530,o),
(383,538,o),
(348,538,cs),
(271,538,o),
(217,504,o),
(167,450,c),
(167,487,ls),
(167,511,o),
(146,533,o),
(121,533,cs),
(96,533,o),
(76,511,o),
(76,487,cs),
(76,68,ls),
(76,44,o),
(97,23,o),
(121,23,cs)
);
},
{
closed = 1;
nodes = (
(273,-229,o),
(279,-227,o),
(285,-224,cs),
(324,-200,o),
(352,-168,o),
(352,-117,cs),
(352,-85,ls),
(352,-55,o),
(331,-33,o),
(302,-33,cs),
(273,-33,o),
(252,-56,o),
(252,-83,cs),
(252,-112,o),
(272,-131,o),
(300,-131,c),
(300,-154,o),
(285,-167,o),
(258,-184,cs),
(251,-189,o),
(246,-196,o),
(246,-205,cs),
(246,-218,o),
(256,-229,o),
(269,-229,cs)
);
}
);
userData = {
com.hugojourdan.ColorFlow = {
"0" = 0;
"1" = 0;
"10" = 0;
"11" = 0;
"2" = 0;
"3" = 0;
"4" = 0;
"5" = 0;
"6" = 0;
"7" = 0;
"8" = 0;
"9" = 0;
};
};
width = 595;
}
);
note = uni0146;
unicode = 326;
}
{
glyphname = ncaron;
kernLeft = idotless;
kernRight = a;
layers = (
{
layerId = "162F4A02-D1DE-460C-9ADC-EEB0D0B313BF";
shapes = (
{
closed = 1;
nodes = (
(146,23,o),
(167,43,o),
(167,68,cs),
(167,361,l),
(213,418,o),
(261,454,o),
(326,454,cs),
(396,454,o),
(433,415,o),
(433,336,cs),
(433,68,ls),
(433,44,o),
(453,23,o),
(478,23,cs),
(502,23,o),
(523,43,o),
(523,68,cs),
(523,345,ls),
(523,417,o),
(494,478,o),
(442,512,cs),
(414,530,o),
(383,538,o),
(348,538,cs),
(271,538,o),
(217,504,o),
(167,450,c),
(167,487,ls),
(167,511,o),
(146,533,o),
(121,533,cs),
(96,533,o),
(76,511,o),
(76,487,cs),
(76,68,ls),
(76,44,o),
(97,23,o),
(121,23,cs)
);
},
{
closed = 1;
nodes = (
(316,582,ls),
(332,582,o),
(344,588,o),
(356,601,cs),
(423,670,ls),
(427,675,o),
(431,681,o),
(431,689,cs),
(432,704,o),
(417,719,o),
(400,719,cs),
(394,719,o),
(388,717,o),
(382,713,c),
(306,648,ls),
(301,643,o),
(295,643,o),
(290,648,cs),
(214,713,l),
(208,717,o),
(202,719,o),
(195,719,cs),
(179,719,o),
(164,704,o),
(165,689,cs),
(165,681,o),
(169,675,o),
(173,670,cs),
(239,601,ls),
(252,588,o),
(264,582,o),
(279,582,cs)
);
}
);
userData = {
com.hugojourdan.ColorFlow = {
"0" = 0;
"1" = 0;
"10" = 0;
"11" = 0;
"2" = 0;
"3" = 0;
"4" = 0;
"5" = 0;
"6" = 0;
"7" = 0;
"8" = 0;
"9" = 0;
};
};
width = 595;
}
);
note = ncaron;
unicode = 328;
}
{
glyphname = napostrophe;
layers = (
{
layerId = "162F4A02-D1DE-460C-9ADC-EEB0D0B313BF";
shapes = (
{
closed = 1;
nodes = (
(146,23,o),
(167,43,o),
(167,68,cs),
(167,361,l),
(213,418,o),
(261,454,o),
(326,454,cs),
(396,454,o),
(433,415,o),
(433,336,cs),
(433,68,ls),
(433,44,o),
(453,23,o),
(478,23,cs),
(502,23,o),
(523,43,o),
(523,68,cs),
(523,345,ls),
(523,417,o),
(494,478,o),
(442,512,cs),
(414,530,o),
(383,538,o),
(348,538,cs),
(271,538,o),
(217,504,o),
(167,450,c),
(167,487,ls),
(167,511,o),
(146,533,o),
(121,533,cs),
(96,533,o),
(76,511,o),
(76,487,cs),
(76,68,ls),
(76,44,o),
(97,23,o),
(121,23,cs)
);
},
{
closed = 1;
nodes = (
(5,569,o),
(11,571,o),
(16,575,cs),
(55,603,o),
(72,629,o),
(72,669,cs),
(72,699,ls),
(72,727,o),
(54,748,o),
(26,748,cs),
(-1,748,o),
(-21,726,o),
(-21,700,cs),
(-21,675,o),
(-1,656,o),
(24,656,c),
(24,636,o),
(13,627,o),
(-8,611,cs),
(-16,605,o),
(-21,599,o),
(-21,592,cs),
(-21,579,o),
(-10,569,o),
(-1,569,cs)
);
}
);
userData = {
com.hugojourdan.ColorFlow = {
"0" = 0;
"1" = 0;
"10" = 0;
"11" = 0;
"2" = 0;
"3" = 0;
"4" = 0;
"5" = 0;
"6" = 0;
"7" = 0;
"8" = 0;
"9" = 0;
};
};
width = 595;
}
);
note = napostrophe;
unicode = 329;
}
{
glyphname = Eng;
kernLeft = B;
kernRight = H;
layers = (
{
anchors = (
{
name = top;
pos = (385,706);
}
);
layerId = "162F4A02-D1DE-460C-9ADC-EEB0D0B313BF";
shapes = (
{
closed = 1;
nodes = (
(646,-206,o),
(690,-153,o),
(690,-52,cs),
(690,671,ls),
(690,695,o),
(669,717,o),
(645,717,cs),
(619,717,o),
(600,695,o),
(600,671,cs),
(600,167,l),
(226,687,ls),
(211,706,o),
(192,717,o),
(171,717,cs),
(158,717,ls),
(122,717,o),
(94,686,o),
(94,651,cs),
(94,68,ls),
(94,44,o),
(114,23,o),
(139,23,cs),
(163,23,o),
(185,43,o),
(185,68,cs),
(185,570,ls),
(185,581,o),
(192,584,o),
(198,574,c),
(600,13,l),
(600,-50,ls),
(600,-105,o),
(582,-126,o),
(541,-126,cs),
(537,-126,o),
(532,-126,o),
(526,-125,cs),
(523,-125,ls),
(519,-124,o),
(515,-123,o),
(512,-123,cs),
(490,-123,o),
(474,-142,o),
(474,-161,cs),
(474,-178,o),
(483,-193,o),
(500,-198,cs),
(518,-203,o),
(538,-206,o),
(562,-206,cs)
);
}
);
userData = {
com.hugojourdan.ColorFlow = {
"0" = 0;
"1" = 0;
"10" = 0;
"11" = 0;
"2" = 0;
"3" = 0;
"4" = 0;
"5" = 0;
"6" = 0;
"7" = 0;
"8" = 0;
"9" = 0;
};
};
width = 784;
}
);
note = Eng;
unicode = 330;
}
